<?xml version="1.0" encoding="UTF-8"?>
<svg xmlns="http://www.w3.org/2000/svg" xmlns:xlink="http://www.w3.org/1999/xlink" viewBox="0 0 346.11 346.11">
  <defs>
    <style>
      .cls-1 {
        fill: #48c2c5;
        opacity: .3;
      }

      .cls-2, .cls-3 {
        fill: #bd4d2d;
      }

      .cls-4 {
        fill: #d37575;
      }

      .cls-3 {
        mix-blend-mode: soft-light;
      }

      .cls-5 {
        fill: #b6bade;
      }

      .cls-6 {
        fill: #fff;
      }

      .cls-7 {
        fill: #d1aa39;
      }

      .cls-8 {
        fill: #ffb0b0;
      }

      .cls-9 {
        fill: none;
      }

      .cls-10 {
        clip-path: url(#clippath-1);
      }

      .cls-11 {
        isolation: isolate;
      }

      .cls-12 {
        fill: #a44e4d;
      }

      .cls-13 {
        fill: #fdc32b;
      }

      .cls-14 {
        fill: #f79569;
      }

      .cls-15 {
        fill: #006991;
      }

      .cls-16 {
        fill: #262225;
      }

      .cls-17 {
        fill: #2b2b2b;
      }

      .cls-18 {
        fill: #fbd5c5;
      }

      .cls-19 {
        fill: #f3e9e0;
      }

      .cls-20 {
        fill: #a8632f;
      }

      .cls-21 {
        fill: #dc7642;
      }

      .cls-22 {
        fill: #e8a167;
      }

      .cls-23 {
        fill: #d8e7db;
      }

      .cls-24 {
        fill: #eccfb6;
      }

      .cls-25 {
        fill: #535562;
      }

      .cls-26 {
        fill: #c8d6cb;
      }

      .cls-27 {
        fill: #ce933b;
      }

      .cls-28 {
        fill: #ed9191;
      }

      .cls-29 {
        fill: #433f46;
      }

      .cls-30 {
        clip-path: url(#clippath);
      }
    </style>
    <clipPath id="clippath">
      <path class="cls-9" d="M84.92,192.97c63.98-.45,127.96.45,191.95,0-.28-41.75-.55-84.87-.83-126.62-62.55.2-125.11.4-187.66.59h-3.17c-.09,42.01-.19,84.02-.28,126.03Z"/>
    </clipPath>
    <clipPath id="clippath-1">
      <path class="cls-21" d="M252.26,249.74l-22.25-78.14c-.23-.82-1.03-1.32-1.76-1.11-.59.17-.97.75-.98,1.39-.28.03-.57-.03-.83-.07-.43-.08-.85-.19-1.29-.15-.28.02-.55.1-.82.13-.36.05-.68-.04-1.02-.15-.54-.19-1.08-.28-1.65-.34-1.19-.13-2.4-.11-3.59-.19-.4-.03-.8-.06-1.2-.09-.13-.7-.69-1.23-1.36-1.23-.63,0-1.17.47-1.33,1.12-.32.01-.63.03-.95.07-.46.05-.9.18-1.35.26-.89.16-1.81-.03-2.71-.08-.94-.06-1.89-.09-2.83-.03-.91.06-1.81.16-2.72.14-.16-.37-.46-.66-.85-.77-.74-.21-1.53.29-1.76,1.11l-22.25,78.14c-.23.82.18,1.66.92,1.87.73.21,1.53-.29,1.76-1.11l22.25-78.14c.1-.35.08-.71-.03-1.02,1.1.03,2.19-.13,3.29-.16.62-.02,1.25,0,1.87.04.57.03,1.12.09,1.69.14.52.04,1.05.04,1.56-.07.58-.13,1.14-.24,1.73-.28.12,0,.24-.01.36-.02-.02.11-.04.23-.04.35v78.76c0,.85.63,1.55,1.39,1.55s1.39-.7,1.39-1.55v-78.76c0-.08,0-.16-.02-.24.18.01.36.03.54.04.98.08,1.97.1,2.95.15.97.04,1.99.1,2.91.43.43.15.81.2,1.26.13.45-.07.84-.14,1.29-.06.43.07.96.24,1.44.19,0,.13.03.26.06.39l22.25,78.14c.23.82,1.02,1.32,1.76,1.11.74-.21,1.15-1.05.91-1.87Z"/>
    </clipPath>
  </defs>
  <g class="cls-11">
    <g id="Layer_1" data-name="Layer 1">
      <rect class="cls-19" x="0" y="0" width="346.11" height="346.11"/>
      <g>
        <g>
          <path class="cls-6" d="M346.1,64.52v-2.48h-46.26V26.8h-2.58v35.24h-54.74V26.8h-2.56v132.91h2.56v-24.75h54.74v105.15h2.58v-105.15h46.26v-2.48h-46.26v-67.96h46.26ZM242.53,132.48v-67.96h54.74v67.96h-54.74Z"/>
          <g>
            <g>
              <g>
                <path class="cls-6" d="M343.77,76.66c-.24-.24-.55-.37-.89-.37h-10.02c-.34,0-.65.13-.89.37-.24.23-.37.55-.37.88v52.4c0,.92.75,1.67,1.67,1.67h9.21c.91,0,1.65-.75,1.65-1.67v-52.4c0-.32-.13-.65-.36-.88ZM343.64,129.94c0,.65-.53,1.17-1.17,1.17h-9.21c-.65,0-1.17-.52-1.17-1.17v-52.4c0-.19.08-.39.23-.52.15-.15.32-.23.54-.23h10.02c.19,0,.39.08.54.23.15.13.23.32.23.52v52.4Z"/>
                <path class="cls-6" d="M344.03,76.4c-.31-.31-.71-.49-1.15-.49h-10.02c-.44,0-.84.18-1.15.49-.31.31-.47.71-.47,1.13v52.4c0,1.12.91,2.04,2.03,2.04h9.21c1.12,0,2.03-.92,2.03-2.04v-52.4c0-.42-.16-.83-.47-1.13ZM343.27,129.94c0,.44-.36.79-.79.79h-9.21c-.44,0-.79-.36-.79-.79v-52.4c0-.1.03-.19.11-.26.06-.08.16-.11.28-.11h10.02c.1,0,.19.03.28.11.06.06.11.16.11.26v52.4Z"/>
              </g>
              <rect class="cls-6" x="334.29" y="80.67" width="7.18" height="20.39" rx=".87" ry=".87"/>
              <path class="cls-6" d="M337.88,122.77c1.68,0,3.05-1.36,3.05-3.05s-1.36-3.05-3.05-3.05-3.05,1.36-3.05,3.05,1.36,3.05,3.05,3.05Z"/>
            </g>
            <g>
              <g>
                <path class="cls-6" d="M329.1,76.66c-.24-.24-.55-.37-.89-.37h-10.02c-.34,0-.65.13-.89.37-.23.23-.36.55-.36.88v52.4c0,.92.73,1.67,1.65,1.67h9.21c.92,0,1.65-.75,1.65-1.67v-52.4c0-.32-.13-.65-.36-.88ZM328.97,129.94c0,.65-.52,1.17-1.17,1.17h-9.21c-.65,0-1.17-.52-1.17-1.17v-52.4c0-.19.08-.39.23-.52.15-.15.32-.23.53-.23h10.02c.21,0,.39.08.53.23.15.13.23.32.23.52v52.4Z"/>
                <path class="cls-6" d="M329.36,76.4c-.31-.31-.71-.49-1.15-.49h-10.02c-.44,0-.84.18-1.15.49s-.47.71-.47,1.13v52.4c0,1.12.91,2.04,2.03,2.04h9.21c1.12,0,2.03-.92,2.03-2.04v-52.4c0-.42-.16-.83-.47-1.13ZM317.8,77.53c0-.1.03-.19.11-.26.08-.08.16-.11.28-.11h10.02c.1,0,.21.03.28.11.08.06.11.16.11.26v52.4c0,.44-.36.79-.79.79h-9.21c-.44,0-.79-.36-.79-.79v-52.4Z"/>
              </g>
              <rect class="cls-6" x="319.62" y="80.67" width="7.18" height="20.39" rx=".87" ry=".87"/>
              <path class="cls-6" d="M323.21,122.77c1.68,0,3.05-1.36,3.05-3.05s-1.36-3.05-3.05-3.05-3.05,1.36-3.05,3.05,1.36,3.05,3.05,3.05Z"/>
            </g>
            <g>
              <g>
                <path class="cls-6" d="M314.43,76.66c-.24-.24-.55-.37-.89-.37h-10.02c-.34,0-.65.13-.89.37-.23.23-.36.55-.36.88v52.4c0,.92.75,1.67,1.65,1.67h9.21c.92,0,1.67-.75,1.67-1.67v-52.4c0-.32-.13-.65-.37-.88ZM314.3,129.94c0,.65-.52,1.17-1.17,1.17h-9.21c-.65,0-1.17-.52-1.17-1.17v-52.4c0-.19.08-.39.23-.52.15-.15.34-.23.53-.23h10.02c.21,0,.39.08.53.23.15.13.23.32.23.52v52.4Z"/>
                <path class="cls-6" d="M314.69,76.4c-.31-.31-.71-.49-1.15-.49h-10.02c-.44,0-.84.18-1.15.49-.31.31-.47.71-.47,1.13v52.4c0,1.12.91,2.04,2.03,2.04h9.21c1.12,0,2.03-.92,2.03-2.04v-52.4c0-.42-.16-.84-.47-1.13ZM303.13,77.53c0-.1.05-.19.11-.26.08-.08.18-.11.28-.11h10.02c.11,0,.21.03.28.11.08.06.11.16.11.26v52.4c0,.44-.36.79-.79.79h-9.21c-.44,0-.79-.36-.79-.79v-52.4Z"/>
              </g>
              <rect class="cls-6" x="304.95" y="80.67" width="7.18" height="20.39" rx=".87" ry=".87"/>
              <path class="cls-6" d="M308.54,122.77c1.68,0,3.05-1.36,3.05-3.05s-1.36-3.05-3.05-3.05-3.05,1.36-3.05,3.05,1.36,3.05,3.05,3.05Z"/>
            </g>
          </g>
          <rect class="cls-24" x="0" y="26.43" width="52.92" height="213.53"/>
          <rect class="cls-6" x="-3.19" y="229.29" width="352.48" height="136.82"/>
          <path class="cls-5" d="M271.17,235.66c-.02.12-.03.23-.03.35,0,.06.09.06.1,0,0-.12-.01-.23-.03-.35,0-.02-.04-.02-.04,0h0Z"/>
          <g>
            <g>
              <g>
                <path class="cls-24" d="M346.1,199.93h-100.86c-.52,0-1.04.2-1.45.6-.4.4-.6.92-.6,1.45v20.44c0,.52.2,1.05.6,1.45.4.4.93.6,1.45.6h100.86v-24.53Z"/>
                <rect class="cls-6" x="256.01" y="206.44" width="32.79" height="11.55" rx="1.01" ry="1.01"/>
              </g>
              <g>
                <path class="cls-23" d="M255.11,197.4h17.55v-19.69h-17.55c1.12,7.74.88,14.05,0,19.69Z"/>
                <g>
                  <path class="cls-26" d="M255.59,193.52h15.7v1.92h-15.91c.08-.63.15-1.27.21-1.92Z"/>
                  <path class="cls-26" d="M255.85,186.65h15.44v1.92h-15.44c0-.63,0-1.27,0-1.92Z"/>
                  <path class="cls-26" d="M271.3,190.08v1.92h-15.59c.04-.63.08-1.27.1-1.92h15.48Z"/>
                  <path class="cls-26" d="M271.3,183.21v1.92h-15.49c-.03-.63-.05-1.26-.1-1.92h15.59Z"/>
                  <path class="cls-26" d="M271.3,179.77v1.91h-15.72c-.06-.63-.12-1.27-.2-1.91h15.92Z"/>
                </g>
                <path class="cls-7" d="M253.41,176.68c0,.71.92,1.28,2.04,1.28h18.39c1.12,0,2.04-.57,2.04-1.28s-.92-1.28-2.04-1.28h-18.39c-1.13,0-2.04.58-2.04,1.28Z"/>
                <path class="cls-7" d="M253.41,198.68c0,.7.92,1.28,2.04,1.28h18.39c1.12,0,2.04-.58,2.04-1.28s-.92-1.28-2.04-1.28h-18.39c-1.13,0-2.04.58-2.04,1.28Z"/>
                <rect class="cls-21" x="270.79" y="175.4" width="75.31" height="24.53"/>
                <path class="cls-7" d="M271.3,175.4c.52,0,1.05.2,1.45.6.4.4.6.92.6,1.45v20.43c0,.53-.2,1.05-.6,1.45-.4.4-.92.6-1.45.6h-.51v-24.53h.51Z"/>
                <path class="cls-16" d="M286.53,187.69c0,3.43,2.78,6.21,6.21,6.21s6.21-2.78,6.21-6.21-2.78-6.21-6.21-6.21-6.21,2.78-6.21,6.21Z"/>
              </g>
              <g>
                <path class="cls-2" d="M346.1,151.05h-105.13c-.52,0-1.04.2-1.44.6-.4.4-.6.92-.6,1.45v20.44c0,.52.2,1.04.6,1.45.4.4.92.6,1.44.6h105.13v-24.53Z"/>
                <rect class="cls-6" x="258.13" y="157.56" width="32.78" height="11.55" rx="1.01" ry="1.01"/>
              </g>
              <g>
                <path class="cls-14" d="M346.1,224.21h-106.23c-.52,0-1.05.2-1.44.6-.4.4-.6.92-.6,1.45v20.44c0,.52.21,1.04.6,1.45.4.4.92.6,1.44.6h106.23v-24.53Z"/>
                <rect class="cls-6" x="250.64" y="230.72" width="32.8" height="11.55" rx="1.01" ry="1.01"/>
              </g>
            </g>
            <g>
              <path class="cls-17" d="M341.48,246.78h-102.58c-.1,0-.17-.08-.17-.17s.08-.17.17-.17h102.58c.1,0,.17.08.17.17s-.08.17-.17.17Z"/>
              <path class="cls-16" d="M341.48,247.15h-102.58c-.3,0-.54-.24-.54-.54s.24-.54.54-.54h102.58c.3,0,.54.24.54.54s-.24.54-.54.54Z"/>
            </g>
            <g>
              <path class="cls-17" d="M342.13,222h0c-19.51-.02-77.63-.02-97.17,0h0c-.1,0-.17-.08-.17-.17,0-.1.08-.17.17-.17,19.54-.02,77.66-.02,97.17,0,.1,0,.17.08.17.17,0,.1-.08.17-.17.17Z"/>
              <path class="cls-16" d="M342.13,222.37h0c-19.51-.02-77.63-.02-97.17,0-.3,0-.54-.24-.54-.54s.24-.54.54-.54c19.54-.02,77.66-.02,97.17,0,.3,0,.54.24.54.54s-.24.54-.54.54Z"/>
            </g>
            <g>
              <path class="cls-17" d="M342.13,198.09h0c-11.39-.03-60.41-.03-71.86,0h0c-.1,0-.17-.08-.17-.17,0-.1.08-.17.17-.17,11.45-.03,60.48-.03,71.86,0,.1,0,.17.08.17.17,0,.1-.08.17-.17.17Z"/>
              <path class="cls-16" d="M342.13,198.46h0c-11.39-.03-60.41-.03-71.86,0-.3,0-.54-.24-.54-.54s.24-.54.54-.54c11.45-.03,60.48-.03,71.86,0,.3,0,.54.24.54.54s-.24.54-.54.54Z"/>
            </g>
            <g>
              <path class="cls-17" d="M342.14,173.83h0c-19.14-.05-76.23-.05-95.44,0h0c-.1,0-.17-.08-.17-.17,0-.1.08-.17.17-.17,19.22-.05,76.31-.05,95.45,0,.1,0,.17.08.17.17,0,.1-.08.17-.17.17Z"/>
              <path class="cls-16" d="M342.14,174.2h0c-19.14-.05-76.23-.05-95.44,0-.3,0-.54-.24-.54-.54s.24-.54.54-.54c19.21-.05,76.31-.05,95.45,0,.3,0,.54.24.54.54s-.24.54-.54.54Z"/>
            </g>
          </g>
          <g>
            <g>
              <path class="cls-6" d="M49.44,58.27v-27.38c0-.17-.14-.31-.31-.31H.02c-.03.2.03.41,0,.61h48.8v27H.02c-.01.2.01.41,0,.61h48.8v29.8H.02s0,.03,0,.04c-.02.1,0,.21,0,.31,0,.09,0,.18,0,.27h0s0,.03,0,.04h48.8v27H.02c-.01.2.01.41,0,.61h48.8v29.8H.02c0,.2,0,.41,0,.61h48.8v91.44h.61v-91.51c.15-.12.15-.35,0-.47v-29.94c.15-.12.15-.35,0-.47v-27.18c.15-.12.15-.35,0-.47v-29.94c.15-.12.15-.35,0-.47Z"/>
              <path class="cls-6" d="M49.92,88.93c0-.15-.05-.28-.11-.39v-29.66c.06-.11.11-.24.11-.37s-.05-.26-.11-.37v-27.25c0-.37-.31-.66-.68-.66H0v1.35h48.45v26.26H-.32l-.03.36v.34c.02.1.02.18,0,.28l-.02.39h48.82v29.06H0l-.34-.03v.37c-.03.15-.02.29-.02.37v.28l-.06.41h48.87v26.26H-.32l-.03.34v.34c.02.1.02.19,0,.28l-.02.39h48.82v29.06H-.36v.39c.02.1,0,.19,0,.29v.31l.02.37h48.79v91.43h1.36v-91.74c.06-.11.11-.24.11-.37s-.05-.26-.11-.37v-29.66c.06-.11.11-.24.11-.37,0-.15-.05-.28-.11-.39v-26.89c.06-.11.11-.24.11-.37ZM49.21,58.46l-.02.02v-.03l.02.02ZM49.19,146.92l.02.02-.02.02v-.03Z"/>
            </g>
            <g>
              <path class="cls-6" d="M53.07,25.77H.02c-.04.2.04.41,0,.61h52.74v212.35h.61V26.08c0-.17-.14-.31-.31-.31Z"/>
              <path class="cls-6" d="M53.75,26.07v213.03h-1.36V26.75H0v-1.35h53.07c.37,0,.68.29.68.66Z"/>
            </g>
            <g>
              <path class="cls-6" d="M16.97,70.77h-8.91c-1.52,0-2.77,1.25-2.77,2.77s1.25,2.77,2.77,2.77h8.91c1.52,0,2.76-1.25,2.76-2.77s-1.23-2.77-2.76-2.77ZM16.97,75.7h-8.91c-1.18,0-2.16-.97-2.16-2.16s.97-2.16,2.16-2.16h8.91c1.18,0,2.14.97,2.14,2.16s-.96,2.16-2.14,2.16Z"/>
              <path class="cls-6" d="M16.97,70.42h-8.91c-1.73,0-3.13,1.39-3.13,3.13s1.39,3.13,3.13,3.13h8.91c1.72,0,3.13-1.39,3.13-3.13s-1.41-3.13-3.13-3.13ZM16.97,75.33h-8.91c-.99,0-1.78-.79-1.78-1.78s.79-1.78,1.78-1.78h8.91c.97,0,1.78.79,1.78,1.78s-.81,1.78-1.78,1.78Z"/>
            </g>
            <g>
              <path class="cls-6" d="M16.97,40.51h-8.91c-1.52,0-2.77,1.25-2.77,2.77s1.25,2.77,2.77,2.77h8.91c1.52,0,2.76-1.25,2.76-2.77s-1.23-2.77-2.76-2.77ZM16.97,45.44h-8.91c-1.18,0-2.16-.97-2.16-2.16s.97-2.16,2.16-2.16h8.91c1.18,0,2.14.97,2.14,2.16s-.96,2.16-2.14,2.16Z"/>
              <path class="cls-6" d="M16.97,40.16h-8.91c-1.73,0-3.13,1.39-3.13,3.13s1.39,3.13,3.13,3.13h8.91c1.72,0,3.13-1.39,3.13-3.13s-1.41-3.13-3.13-3.13ZM16.97,45.07h-8.91c-.99,0-1.78-.79-1.78-1.78s.79-1.78,1.78-1.78h8.91c.97,0,1.78.79,1.78,1.78s-.81,1.78-1.78,1.78Z"/>
            </g>
            <g>
              <path class="cls-6" d="M16.97,128.85h-8.91c-1.52,0-2.77,1.23-2.77,2.76s1.25,2.77,2.77,2.77h8.91c1.52,0,2.76-1.23,2.76-2.77s-1.23-2.76-2.76-2.76ZM16.97,133.76h-8.91c-1.18,0-2.16-.96-2.16-2.16s.97-2.14,2.16-2.14h8.91c1.18,0,2.14.96,2.14,2.14s-.96,2.16-2.14,2.16Z"/>
              <path class="cls-6" d="M16.97,128.48h-8.91c-1.73,0-3.13,1.41-3.13,3.13s1.39,3.14,3.13,3.14h8.91c1.72,0,3.13-1.41,3.13-3.14s-1.41-3.13-3.13-3.13ZM16.97,133.39h-8.91c-.99,0-1.78-.79-1.78-1.78s.79-1.77,1.78-1.77h8.91c.97,0,1.78.79,1.78,1.77s-.81,1.78-1.78,1.78Z"/>
            </g>
            <g>
              <path class="cls-6" d="M16.97,98.59h-8.91c-1.52,0-2.77,1.23-2.77,2.76s1.25,2.77,2.77,2.77h8.91c1.52,0,2.76-1.25,2.76-2.77s-1.23-2.76-2.76-2.76ZM16.97,103.5h-8.91c-1.18,0-2.16-.96-2.16-2.16s.97-2.14,2.16-2.14h8.91c1.18,0,2.14.96,2.14,2.14s-.96,2.16-2.14,2.16Z"/>
              <path class="cls-6" d="M16.97,98.21h-8.91c-1.73,0-3.13,1.41-3.13,3.13s1.39,3.14,3.13,3.14h8.91c1.72,0,3.13-1.41,3.13-3.14s-1.41-3.13-3.13-3.13ZM16.97,103.13h-8.91c-.99,0-1.78-.79-1.78-1.78s.79-1.78,1.78-1.78h8.91c.97,0,1.78.81,1.78,1.78s-.81,1.78-1.78,1.78Z"/>
            </g>
          </g>
          <ellipse class="cls-24" cx="43.8" cy="249.81" rx="7.71" ry="25.22" transform="translate(-207.76 282.06) rotate(-87.36)"/>
          <g>
            <path class="cls-16" d="M71.26,189.2c-9.49-7.48-36.53-6.16-43.04,0-.8,6.72,39.36,11.6,43.04,0Z"/>
            <path class="cls-27" d="M44.63,239.76l-24.6-79.32c.94-.79,2.75-1.42,4.3-1.33l24.6,79.32-4.3,1.33Z"/>
            <path class="cls-14" d="M47.51,233.65l-10.76-76.82c.79-.63,2.92-1.06,4.46-.62l10.76,76.82-4.46.62Z"/>
            <path class="cls-2" d="M43.54,237.08l-18.02-81.07c1.01-.86,3.14-1.55,4.4-.98l18.02,81.07-4.4.98Z"/>
            <path class="cls-21" d="M28.26,189.78l3.75,58.05c.18,3.14,2.2,5.87,5.15,6.97,7.08,2.64,18.34,1.98,25.39-.47,3.04-1.06,5.15-3.85,5.31-7.07l3.4-58.06c-3.57,11.26-41.54,6.99-43.01.58Z"/>
            <g>
              <path class="cls-17" d="M36.23,245.39c-.07,0-.13-.05-.13-.12l-3-43.71c0-.07.05-.14.12-.14.07,0,.14.05.14.12l3,43.71c0,.07-.05.14-.12.14,0,0,0,0,0,0Z"/>
              <path class="cls-16" d="M36.25,245.76h-.02c-.26,0-.48-.2-.5-.47l-3-43.71c-.02-.28.19-.52.47-.54.24,0,.51.19.53.46l3,43.71c0,.13-.03.26-.12.36s-.21.16-.35.17h-.01Z"/>
            </g>
          </g>
          <g>
            <g>
              <path class="cls-2" d="M162.93,197.99l-2.8,39.4c-.32,2.49-1.67,4.72-3.71,6.17l-11.2,7.91h70.41l-11.2-7.91c-2.05-1.45-3.4-3.68-3.71-6.17l-2.8-39.4h-34.98Z"/>
              <polygon class="cls-6" points="198.48 202.41 197.91 197.99 162.93 197.99 162.37 202.41 198.48 202.41"/>
              <path class="cls-2" d="M145.83,254.47c-.74,0-1.35-.6-1.35-1.35v-.46c0-.74.6-1.35,1.35-1.35h69.19c.74,0,1.35.6,1.35,1.35v.46c0,.74-.6,1.35-1.35,1.35h-69.19Z"/>
              <g>
                <path class="cls-6" d="M215.02,251.5h-69.19c-.1,0-.18-.08-.18-.18s.08-.18.18-.18h69.19c.1,0,.18.08.18.18s-.08.18-.18.18Z"/>
                <path class="cls-6" d="M215.02,251.87h-69.19c-.3,0-.55-.25-.55-.55s.25-.55.55-.55h69.19c.3,0,.55.25.55.55s-.25.55-.55.55Z"/>
              </g>
            </g>
            <g>
              <path class="cls-15" d="M282.29,64.52c-.13-.92-.47-1.77-.99-2.48-1.04-1.51-2.77-2.48-4.73-2.48H84.27c-3.19,0-5.77,2.59-5.77,5.79v130.67c0,3.19,2.58,5.79,5.77,5.79h192.3c1.67,0,3.19-.71,4.23-1.86.42-.44.76-.92,1-1.47.06-.13.11-.26.16-.39.05-.11.1-.23.13-.34.03-.13.06-.24.1-.37.11-.44.16-.89.16-1.35V65.34c0-.28-.02-.55-.06-.83ZM274.69,191.3c0,.1-.02.19-.03.29,0,.06-.02.13-.05.19-.03.13-.08.26-.16.37-.03.08-.08.15-.13.19-.03.06-.08.1-.13.15-.06.06-.15.13-.23.18-.18.13-.37.21-.58.26h-.03c-.1.02-.21.03-.31.03H87.82c-.92,0-1.67-.75-1.67-1.67v-122.7c0-.11.02-.23.03-.32.06-.32.23-.62.45-.83.06-.06.13-.13.19-.16.15-.11.32-.19.5-.24.06-.03.13-.05.19-.05.1-.02.19-.03.29-.03h185.22c.92,0,1.65.73,1.65,1.64v122.7Z"/>
              <path class="cls-15" d="M274.69,68.61v122.7c0,.91-.74,1.66-1.66,1.66H87.81c-.91,0-1.66-.75-1.66-1.66v-122.7c0-.91.75-1.65,1.66-1.65h185.21c.92,0,1.66.74,1.66,1.65Z"/>
            </g>
            <path class="cls-6" d="M180.42,61.58c-1.1,0-1.99.89-1.99,1.99s.89,1.99,1.99,1.99,2.01-.89,2.01-1.99-.91-1.99-2.01-1.99Z"/>
            <g>
              <path class="cls-2" d="M99.2,110.54l-3.09.86c-.47.13-.96-.14-1.1-.62l-8.86-37.85v-4.42c0-.87.7-1.57,1.57-1.57h1.93l10.16,42.49c.13.47-.14.96-.62,1.1Z"/>
              <path class="cls-14" d="M103.46,110.49l-2.43.68c-.37.1-.78-.19-.91-.67l-10.46-43.55h4.08l10.16,42.49c.13.47-.06.94-.43,1.04Z"/>
              <path class="cls-13" d="M108.38,110.54l-3.09.86c-.47.13-.96-.14-1.1-.62l-10.54-43.84h5.18l10.16,42.49c.13.47-.14.96-.62,1.1Z"/>
              <path class="cls-2" d="M112.9,110.5l-2.58.72c-.4.11-.82-.18-.95-.66l-10.59-43.61h4.32l10.27,42.49c.13.47-.08.95-.47,1.06Z"/>
              <path class="cls-14" d="M117.86,110.54l-3.09.86c-.47.13-.96-.14-1.09-.62l-10.54-43.84h5.18l10.16,42.49c.13.47-.14.96-.62,1.1Z"/>
              <path class="cls-2" d="M122.96,110.54l-3.09.86c-.47.13-.96-.14-1.1-.62l-10.54-43.84h5.18l10.16,42.49c.13.47-.14.96-.62,1.1Z"/>
            </g>
            <g>
              <polygon class="cls-22" points="261.9 106.46 236.46 106.46 236.65 75.74 262.1 75.74 261.9 106.46"/>
              <polygon class="cls-22" points="258.77 103.42 239.63 103.42 239.78 78.78 258.92 78.78 258.77 103.42"/>
            </g>
            <path class="cls-19" d="M84.92,195.33c63.98-.46,127.96-.92,191.95-1.39-.28-42.53-.55-85.06-.83-127.59-62.55.2-125.11.4-187.66.61h-3.17c-.09,42.79-.19,85.58-.28,128.38Z"/>
            <path class="cls-2" d="M282.29,64.52c-.13-.92-.47-1.77-.99-2.48-1.04-1.51-2.77-2.48-4.73-2.48H84.27c-3.19,0-5.77,2.59-5.77,5.79v130.67c0,3.19,2.58,5.79,5.77,5.79h192.3c1.67,0,3.19-.71,4.23-1.86.42-.44.76-.92,1-1.47.06-.13.11-.26.16-.39.05-.11.1-.23.13-.34.03-.13.06-.24.1-.37.11-.44.16-.89.16-1.35V65.34c0-.28-.02-.55-.06-.83ZM274.69,191.3c0,.1-.02.19-.03.29,0,.06-.02.13-.05.19-.03.13-.08.26-.16.37-.03.08-.08.15-.13.19-.03.06-.08.1-.13.15-.06.06-.15.13-.23.18-.18.13-.37.21-.58.26h-.03c-.1.02-.21.03-.31.03H87.82c-.92,0-1.67-.75-1.67-1.67v-122.7c0-.11.02-.23.03-.32.06-.32.23-.62.45-.83.06-.06.13-.13.19-.16.15-.11.32-.19.5-.24.06-.03.13-.05.19-.05.1-.02.19-.03.29-.03h185.22c.92,0,1.65.73,1.65,1.64v122.7Z"/>
            <g class="cls-30">
              <g>
                <g>
                  <g>
                    <path class="cls-2" d="M184.42,74.85h62.7c2.56,0,4.64,2.08,4.64,4.64v88.71c0,2.56-2.08,4.64-4.64,4.64h-62.7c-2.56,0-4.64-2.08-4.64-4.64v-88.71c0-2.56,2.08-4.64,4.64-4.64Z"/>
                    <path class="cls-6" d="M186.44,77.49h58.67c2.2,0,3.99,1.79,3.99,3.99v87.25c0,2.2-1.79,3.99-3.99,3.99h-58.67c-2.2,0-3.99-1.79-3.99-3.99v-87.25c0-2.2,1.79-3.99,3.99-3.99Z"/>
                    <rect class="cls-21" x="192.19" y="206.55" width="46.88" height="2.63"/>
                    <g>
                      <path class="cls-21" d="M252.26,249.74l-22.25-78.14c-.23-.82-1.03-1.32-1.76-1.11-.59.17-.97.75-.98,1.39-.28.03-.57-.03-.83-.07-.43-.08-.85-.19-1.29-.15-.28.02-.55.1-.82.13-.36.05-.68-.04-1.02-.15-.54-.19-1.08-.28-1.65-.34-1.19-.13-2.4-.11-3.59-.19-.4-.03-.8-.06-1.2-.09-.13-.7-.69-1.23-1.36-1.23-.63,0-1.17.47-1.33,1.12-.32.01-.63.03-.95.07-.46.05-.9.18-1.35.26-.89.16-1.81-.03-2.71-.08-.94-.06-1.89-.09-2.83-.03-.91.06-1.81.16-2.72.14-.16-.37-.46-.66-.85-.77-.74-.21-1.53.29-1.76,1.11l-22.25,78.14c-.23.82.18,1.66.92,1.87.73.21,1.53-.29,1.76-1.11l22.25-78.14c.1-.35.08-.71-.03-1.02,1.1.03,2.19-.13,3.29-.16.62-.02,1.25,0,1.87.04.57.03,1.12.09,1.69.14.52.04,1.05.04,1.56-.07.58-.13,1.14-.24,1.73-.28.12,0,.24-.01.36-.02-.02.11-.04.23-.04.35v78.76c0,.85.63,1.55,1.39,1.55s1.39-.7,1.39-1.55v-78.76c0-.08,0-.16-.02-.24.18.01.36.03.54.04.98.08,1.97.1,2.95.15.97.04,1.99.1,2.91.43.43.15.81.2,1.26.13.45-.07.84-.14,1.29-.06.43.07.96.24,1.44.19,0,.13.03.26.06.39l22.25,78.14c.23.82,1.02,1.32,1.76,1.11.74-.21,1.15-1.05.91-1.87Z"/>
                      <g class="cls-10">
                        <rect class="cls-3" x="196.1" y="169.79" width="43.7" height="6.44"/>
                      </g>
                    </g>
                    <rect class="cls-2" x="176.78" y="168.17" width="77.99" height="4.66" rx="1.1" ry="1.1"/>
                  </g>
                  <g>
                    <path class="cls-24" d="M242.84,126.98h-21.32c-.46,0-.83-.37-.83-.83s.37-.83.83-.83h21.32c.46,0,.83.37.83.83s-.37.83-.83.83Z"/>
                    <path class="cls-24" d="M242.84,132.29h-21.32c-.46,0-.83-.37-.83-.83s.37-.83.83-.83h21.32c.46,0,.83.37.83.83s-.37.83-.83.83Z"/>
                  </g>
                  <g>
                    <path class="cls-24" d="M242.84,141.23h-21.32c-.46,0-.83-.37-.83-.83s.37-.83.83-.83h21.32c.46,0,.83.37.83.83s-.37.83-.83.83Z"/>
                    <path class="cls-24" d="M242.84,146.54h-21.32c-.46,0-.83-.37-.83-.83s.37-.83.83-.83h21.32c.46,0,.83.37.83.83s-.37.83-.83.83Z"/>
                  </g>
                  <g>
                    <path class="cls-24" d="M242.84,155.27h-21.32c-.46,0-.83-.37-.83-.83s.37-.83.83-.83h21.32c.46,0,.83.37.83.83s-.37.83-.83.83Z"/>
                    <path class="cls-24" d="M242.84,160.58h-21.32c-.46,0-.83-.37-.83-.83s.37-.83.83-.83h21.32c.46,0,.83.37.83.83s-.37.83-.83.83Z"/>
                  </g>
                  <g>
                    <rect class="cls-24" x="188.97" y="83.5" width="6.18" height="25.76" rx=".65" ry=".65"/>
                    <rect class="cls-24" x="198.19" y="92.73" width="6.18" height="16.54" rx=".65" ry=".65"/>
                    <rect class="cls-24" x="207.52" y="99.67" width="6.18" height="9.59" rx=".65" ry=".65"/>
                  </g>
                  <g>
                    <rect class="cls-13" x="188.28" y="113.18" width="3.35" height="3.35"/>
                    <rect class="cls-24" x="188.28" y="119.17" width="3.35" height="3.35"/>
                    <rect class="cls-24" x="188.28" y="125.12" width="3.35" height="3.35"/>
                    <g>
                      <path class="cls-24" d="M212.22,113.98h-18.21c-.12,0-.23-.1-.23-.23s.1-.23.23-.23h18.21c.12,0,.23.1.23.23s-.1.23-.23.23Z"/>
                      <path class="cls-24" d="M212.22,116.22h-18.21c-.12,0-.23-.1-.23-.23s.1-.23.23-.23h18.21c.12,0,.23.1.23.23s-.1.23-.23.23Z"/>
                    </g>
                    <g>
                      <path class="cls-24" d="M212.22,119.98h-18.21c-.12,0-.23-.1-.23-.23s.1-.23.23-.23h18.21c.12,0,.23.1.23.23s-.1.23-.23.23Z"/>
                      <path class="cls-24" d="M212.22,122.22h-18.21c-.12,0-.23-.1-.23-.23s.1-.23.23-.23h18.21c.12,0,.23.1.23.23s-.1.23-.23.23Z"/>
                    </g>
                    <g>
                      <path class="cls-24" d="M212.22,125.9h-18.21c-.12,0-.23-.1-.23-.23s.1-.23.23-.23h18.21c.12,0,.23.1.23.23s-.1.23-.23.23Z"/>
                      <path class="cls-24" d="M212.22,128.14h-18.21c-.12,0-.23-.1-.23-.23s.1-.23.23-.23h18.21c.12,0,.23.1.23.23s-.1.23-.23.23Z"/>
                    </g>
                  </g>
                  <g>
                    <rect class="cls-24" x="225.55" y="83.62" width="17.24" height="23.5"/>
                    <path class="cls-2" d="M235.67,84.09c0,.88-.71,1.59-1.59,1.59s-1.59-.71-1.59-1.59.71-1.59,1.59-1.59,1.59.71,1.59,1.59Z"/>
                    <g>
                      <path class="cls-6" d="M240.4,89.38h-12.92c-.19,0-.34-.15-.34-.34s.15-.34.34-.34h12.92c.19,0,.34.15.34.34s-.15.34-.34.34Z"/>
                      <path class="cls-6" d="M240.4,92.54h-12.92c-.19,0-.34-.15-.34-.34s.15-.34.34-.34h12.92c.19,0,.34.15.34.34s-.15.34-.34.34Z"/>
                      <path class="cls-6" d="M240.4,95.7h-12.92c-.19,0-.34-.15-.34-.34s.15-.34.34-.34h12.92c.19,0,.34.15.34.34s-.15.34-.34.34Z"/>
                      <path class="cls-6" d="M240.4,98.86h-12.92c-.19,0-.34-.15-.34-.34s.15-.34.34-.34h12.92c.19,0,.34.15.34.34s-.15.34-.34.34Z"/>
                      <path class="cls-6" d="M240.4,102.02h-12.92c-.19,0-.34-.15-.34-.34s.15-.34.34-.34h12.92c.19,0,.34.15.34.34s-.15.34-.34.34Z"/>
                    </g>
                  </g>
                  <g>
                    <path class="cls-24" d="M199.98,143.1c-.11,0-.21-.06-.26-.16-.08-.14-.02-.32.12-.4l13.32-6.94c.14-.08.32-.02.4.12.07.14.02.32-.12.4l-13.32,6.94s-.09.03-.14.03Z"/>
                    <path class="cls-13" d="M209.8,158.23c-.08,0-.15-.03-.21-.09l-10.94-11.1c-.11-.11-.11-.3,0-.41.11-.11.3-.11.41,0l10.94,11.1c.11.11.11.3,0,.41-.06.06-.13.08-.21.08Z"/>
                    <g>
                      <path class="cls-13" d="M197.14,143.92v-8.22c-5.34.03-9.62,4.54-9.27,9.96.3,4.64,4.07,8.42,8.72,8.71,5.42.34,9.92-3.93,9.95-9.27h-8.22c-.65,0-1.18-.53-1.18-1.18Z"/>
                      <path class="cls-24" d="M206.43,143.72h0c.02-4.38-3.53-7.93-7.91-7.91h0s0,6.73,0,6.73c0,.65.53,1.18,1.18,1.18h6.73Z"/>
                    </g>
                    <path class="cls-13" d="M213.05,157.93c0,1.79-1.46,3.25-3.25,3.25s-3.25-1.46-3.25-3.25,1.45-3.25,3.25-3.25,3.25,1.45,3.25,3.25Z"/>
                    <path class="cls-24" d="M214.98,136.04c0,.92-.74,1.66-1.66,1.66s-1.66-.74-1.66-1.66.74-1.66,1.66-1.66,1.66.74,1.66,1.66Z"/>
                  </g>
                </g>
                <g>
                  <g>
                    <polygon class="cls-8" points="106.76 142.36 114.87 150.18 112.54 156.41 102.01 148.71 106.76 142.36"/>
                    <path class="cls-16" d="M132.46,248.67c-.21.07-13.05,0-13.05,0l.1-1.74c.07-.97,1.77-6.98,1.77-6.98l7.61-.05,2.54,5.5c.63,1.28.97,1.44,1.02,2.86v.4Z"/>
                    <path class="cls-16" d="M174.46,248.81h-19.98s-.01-6.05-.01-6.05l8.95-5.46,4.87,5.42c.77.75,3.29,2.12,4.34,2.39h0c1.12.34,1.88,1.39,1.85,2.56l-.02,1.14Z"/>
                    <g>
                      <path class="cls-8" d="M165.68,132.24l5.93-7.25c.28-.34.38-.78.3-1.2,0,0,0,0,0,0-.09-.52-.15-1.12-.14-1.75.01-.69.28-1.87.48-3.18.15-.94.07-2.02,0-2.7-.05-.44.34-.8.77-.72.36.07.76.27,1.06.75.4.64.67,2.52.83,3.96l4.34-1.87s5.14-2.67,6.78-3.12c.71-.19,1.95.58,1.06,1.54-.6.65-4.3,2.31-5.86,3.22-.75.44-.07.58-.07.58,0,0,5.85-2.84,7.4-2.94.99-.07,2.05.92,1.37,1.4-.37.26-2.21,1.23-3.8,2.06,1.28-.58,2.72-1.08,3.46-.83.24.08.41.25.51.44.25.46.05,1.03-.42,1.25l-1.38.63c.31-.07.59-.11.82-.1.34.02,1.37.68.55,1.44-.82.75-5.55,2.71-5.55,2.71,0,0-3.22,2.53-5.41,2.47-.05,0-.11,0-.16,0-.36-.02-.7.14-.92.43l-5.76,7.54-6.18-4.74Z"/>
                      <path class="cls-4" d="M177.39,124.5c.1,0,.18-.07.2-.17.39-2.75-2.44-4.2-2.47-4.21-.1-.05-.22,0-.27.09-.05.1,0,.22.09.27.03.01,2.6,1.34,2.25,3.8-.02.11.06.21.17.23,0,0,.02,0,.03,0Z"/>
                      <path class="cls-4" d="M183.04,122.34s.05,0,.08-.01l3.83-1.55c.1-.04.15-.16.11-.26-.04-.1-.16-.15-.26-.11l-3.83,1.55c-.1.04-.15.16-.11.26.03.08.11.13.19.13Z"/>
                      <path class="cls-4" d="M183.79,124.63s.05,0,.08-.02c.45-.2,4.39-1.92,4.53-1.99.1-.05.14-.17.09-.27-.05-.1-.17-.14-.27-.09-.12.06-3.3,1.45-4.51,1.98-.1.04-.15.16-.1.27.03.08.11.12.18.12Z"/>
                    </g>
                    <path class="cls-14" d="M115.25,164.67l2.56-12.96,27.69-.57,2.54,13.65,14.37,62.74s1.92,3.71,2.3,5.04c.44,1.5.58,6.7.58,6.7-1.58.23-6.41.79-10.87,4.18l-20.5-57.85-3.98,56.7c-3.96-2.52-6.91-1.62-9.5.73l-5.76-68.84c-.13-2.19.22-7.34.58-9.5Z"/>
                    <path class="cls-21" d="M117.45,154.28l.35-2.56c9.02,1.38,18.24,1.34,27.69-.57l.49,2.66c-8.02,1.58-22.32,1.97-28.54.48Z"/>
                    <rect class="cls-2" x="125.34" y="153.34" width="3.11" height="1.21" transform="translate(-36.84 267.93) rotate(-85.35)"/>
                    <rect class="cls-2" x="137.9" y="151.84" width="1.21" height="3.3" transform="translate(-18.87 19.41) rotate(-7.51)"/>
                    <path class="cls-2" d="M134.66,172.92h0c.07,0,.13-.06.13-.14l-.19-17.03c0-.07-.06-.13-.14-.13-.07,0-.13.06-.13.14l.19,17.03c0,.07.06.13.13.13Z"/>
                    <path class="cls-2" d="M134.51,170.17s.07-.01.1-.04c.05-.05.05-.14,0-.19l-1-1c-.95-.95-1.49-2.22-1.5-3.57l-.2-9.37c0-.07-.06-.13-.13-.13h0c-.07,0-.13.06-.13.14l.2,9.36c.01,1.42.57,2.75,1.57,3.76l1,1s.06.04.1.04Z"/>
                    <path class="cls-2" d="M128.3,156.08c6.09,0,12.08-.48,17.53-1.42.07-.01.12-.08.11-.16-.01-.07-.08-.12-.16-.11-8.71,1.5-18.82,1.82-28.48.89-.07,0-.14.05-.15.12,0,.07.05.14.12.15,3.64.35,7.35.52,11.02.52Z"/>
                    <path class="cls-2" d="M161.65,236.49h0c.07,0,.13-.06.13-.13,0-.13-.01-3.22-.26-4.25-.31-1.34-2.05-4.92-2.18-5.2l-13.66-52.84c-.02-.07-.09-.12-.16-.1-.07.02-.12.09-.1.16l13.66,52.85s0,.02,0,.03c.02.04,1.86,3.81,2.17,5.15.23,1,.25,4.16.25,4.19,0,.07.06.13.13.13Z"/>
                    <path class="cls-2" d="M125.06,238.65h0c.07,0,.13-.06.13-.14l-1.15-66.89c0-.07-.06-.13-.14-.13-.07,0-.13.06-.13.14l1.15,66.89c0,.07.06.13.13.13Z"/>
                    <path class="cls-24" d="M141.96,110.02l3.6.8c2.18.49,4,1.97,4.91,4.01l12.92,28.79-11.39-3.14,14.72-11.36,1.51-.81,2.88-2.93c1.46,1.81,3.58,3.58,5.62,5.26,0,0-1.94,2.62-2.79,4.02-.17.28-.33,1.18-.59,1.45-4.95,4.97-11,15.06-17.39,13.85-8.39-1.59-13.85-22.11-13.85-22.11l-.16-17.82Z"/>
                    <path class="cls-27" d="M141.62,131.14v-.83c2.74-4.57,5.83-9.31,6.14-7.86,4.97,9.29.47,20.04,6.23,26.93-6.88-4.75-12.38-18.24-12.38-18.24Z"/>
                    <path class="cls-24" d="M109.32,113.48c-3.19,2.5-14.28,16.18-16.9,21.22-2.37,5.67,1.71,9.14,5.66,10.16l3.93-4.17,13.26-15.86-.18-13.29s-3.88,1-5.78,1.94Z"/>
                    <path class="cls-27" d="M114.87,125.32l-8.86,10.6c.63-9.55,5.26-9.07,4.51-17.78l4.35,7.18Z"/>
                    <path class="cls-24" d="M144.16,110.55c2.77.66,4.39,3.19,4.55,6.03.63,10.67-.88,24.79-1.72,32.75-.14,1.37-1.3,2.52-1.3,2.52-9.84,2.28-28.08.72-28.08.72,0,0-2.74-1.86-2.88-2.47-2.3-10.46-5.4-36.62-5.4-36.62l19.36-6.62,15.45,3.7Z"/>
                    <path class="cls-24" d="M94.58,144.63c3.24,2.67,5.87,4.45,8.73,6.27.31.2,1.98.49,2.27.67,1.58.99,2.62,1.77,3.5,2.35-.54-1.79,1.77-5.29,3.56-5.91l-2.92-2.89-.44-1.58-13.18-14.06-3.12,4.13c-2.5,4.49-2.26,7.83,1.6,11.02Z"/>
                    <path class="cls-2" d="M117,164.16c6.2,0,7.73-6.54,8.06-8.58.01-.07-.04-.14-.11-.15-.07-.01-.14.04-.15.11-.32,1.98-1.81,8.35-7.8,8.35-.11,0-.22,0-.33,0-.07,0-.14.06-.14.13,0,.07.06.14.13.14.12,0,.23,0,.34,0Z"/>
                    <path class="cls-2" d="M147.38,162.72c.07,0,.13-.05.13-.13,0-.07-.05-.14-.13-.14-2.45-.16-4.21-1.51-5.22-4.04-.76-1.9-.8-3.78-.8-3.8,0-.07-.06-.14-.14-.13-.07,0-.13.06-.13.14,0,.02.03,1.94.81,3.89,1.04,2.6,2.93,4.05,5.46,4.21,0,0,0,0,0,0Z"/>
                    <path class="cls-2" d="M133.89,186.05c.07,0,.13-.06.13-.13l.56-10.41c0-.07-.05-.14-.13-.14-.07,0-.14.05-.14.13l-.56,10.41c0,.07.05.14.13.14,0,0,0,0,0,0Z"/>
                    <g>
                      <path class="cls-27" d="M175.52,132.32v-1.84c.1.09.19.17.29.26v1.18c-.09.13-.19.26-.29.4Z"/>
                      <path class="cls-27" d="M92.66,142.65s.02.03.04.05c.05.07.1.13.15.2.01.01.02.03.03.04h2.22v2.12c.1.08.19.15.29.23v-2.35h4.18v4.18h-1.79c.13.1.26.19.39.29h1.39v.99c.1.07.19.13.29.2v-1.19h4.18v3.73c.09.02.19.05.29.07v-3.81h4.18v4.18h-2.9c.16.1.31.19.45.29h2.45v1.66c.05.04.11.08.16.11-.08-.6-.02-1.32.16-2.06h-.04v-4.18h3.25s-.29-.29-.29-.29h-2.95v-4.11s-.33-.36-.33-.36h-4.13v-4.18h.21l-.35-.38.14-.17v-3.92h3.28s.24-.29.24-.29h-3.52v-4.18h4.18v3.39s.29-.34.29-.34v-3.04h2.54s.07-.08.07-.08c0,.03,0,.05.01.08h1.55v4.18h-.97c.01.09.03.18.04.26,0,0,0,.02,0,.02h.92v4.18h-.31s0,.01,0,.02c.01.09.03.18.04.27h.26v1.7c.05.3.09.6.14.89,0,.01,0,.02,0,.03.05.3.09.59.14.88v-3.5h4.25v4.18h-4.14c.01.07.02.15.04.22,0,.02,0,.05.01.07h4.09v4.18h-3.35c.02.08.03.16.05.24,0,.01,0,.03,0,.04h3.3v4.18h-1.25s0,0,0,0c.13.1.26.19.38.29,0,0,0,0,0,0h.87v.62s0,0,0,0c.07.05.11.08.12.08,0,0,0,0,0,0,0,0,0,0,.01,0,0,0,.01,0,.02,0,0,0,0,0,.01,0,0,0,.02,0,.04,0,0,0,.01,0,.02,0,.02,0,.03,0,.05,0,0,0,0,0,.01,0v-.72h4.18v.99c.09,0,.19,0,.28.01,0,0,0,0,0,0v-1.01h4.18v1.17c.1,0,.19,0,.29,0v-1.18h4.18v1.23c.1,0,.19,0,.29,0v-1.23h4.18v1.15c.1,0,.19,0,.29-.01v-1.14h4.18v.87c.1,0,.19-.02.29-.03v-.85h4.18v.28c.1-.02.19-.04.29-.05v-.23h1.09s.03,0,.04,0c0,0,.1-.1.25-.28h-1.38v-4.18h2.64s0-.05,0-.08c0-.07.01-.14.02-.21h-2.67v-4.18h3.09c0-.1.02-.19.03-.29h-3.12v-4.18h4.18v4.18h-.62c.06.1.11.19.17.29h.45v.73c.1.15.19.3.29.45v-1.18h4.18v4.18h-1.83c.09.1.19.19.28.29h1.54v1.33c.1.07.19.13.29.19v-1.52h4.18v2.62c.1-.01.19-.02.29-.04v-2.58h4.18v.67c.1-.07.19-.14.29-.22v-.45h.57c.11-.09.23-.19.34-.29h-.91v-4.18h4.18v.92c.1-.11.19-.21.29-.32v-.6h.53c.08-.1.17-.19.25-.29h-.78v-4.18h4.18v.16c.13-.15.26-.3.38-.44h-.09v-4.18h3.01c.06-.09.13-.19.19-.29h-3.2v-4.18h3.23c-.09-.09-.18-.19-.27-.29h-2.95v-3.59c-.08-.1-.16-.19-.24-.29l-.05.05v3.83h-4.18v-.22s-.17.09-.17.09l-.12.09v.04h-.05s-.37.29-.37.29h.43v4.18h-4.18v-1.13s-.29.24-.29.24v.88h-1.04s-.34.29-.34.29h1.38v4.18h-4.18v-4.18h1.12s-.13-.29-.13-.29h-.99v-2.21s-.29-.64-.29-.64v2.86h-4.18v-4.18h3.58s-.13-.29-.13-.29h-3.45v-4.18h1.58s-.02-.05-.02-.05l-.11-.24h-1.45v-3.24s-.29-.64-.29-.64v3.88h-4.18v-4.18h4.04s-.11-.25-.11-.25l-.02-.04h-3.91v-4.18h2.04s-.13-.29-.13-.29h-1.91v-3.13s0,0,0,0c-.09-.09-.19-.18-.29-.27,0,0,0,0,0,0v3.4h-4.18v-4.18h3.13s0,0,0,0c-.17-.1-.34-.2-.52-.29,0,0,0,0,0,0h-2.61v-.8s-.29-.06-.29-.06v.86h-4.18v-1.82s-.29-.07-.29-.07v1.89h-4.18v-2.89s-.29-.07-.29-.07v2.96h-4.18v-3.95s-.29-.07-.29-.07v4.02h-4.18v-3.86s-.29.1-.29.1v3.76h-4.18v-2.33s-.29.1-.29.1v2.24h-4.18v-.81s-.29.1-.29.1v.71h-2.07s-.66.22-.66.22c-.07.02-.15.04-.23.06h2.96v4.18h-4.25v-3.81c-.09.03-.19.06-.29.09v3.72h-4.18v-1.92s-.02.02-.04.03c-.08.07-.16.15-.25.23v1.66h-1.63c-.09.09-.18.19-.27.29h1.9v4.18h-4.18v-1.61c-.1.11-.19.22-.29.34v1.28h-1.08c-.08.1-.16.19-.24.29h1.32v4.18h-4.18v-.65c-.1.12-.19.24-.29.37v.29h-.23c-.08.1-.15.19-.23.29h.45v4.18h-3.6c-.07.1-.14.19-.21.29h3.81v4.18h-4.18v-3.66c-.1.14-.19.27-.29.41v3.25h-2.18c-.05.1-.11.19-.16.29h2.34v4.18h-3.73c0,.09-.01.17-.02.26,0,.01,0,.02,0,.03h3.75v4.18h-2.44ZM166.88,134.01h4.18v4.18h-4.18v-4.18ZM166.88,129.55h4.18v4.18h-4.18v-4.18ZM162.42,138.47h4.18v4.18h-4.18v-4.18ZM162.42,134.01h4.18v4.18h-4.18v-4.18ZM157.96,142.94h4.18v4.18h-4.18v-4.18ZM157.96,138.47h4.18v4.18h-4.18v-4.18ZM153.49,142.94h4.18v4.18h-4.18v-4.18ZM153.49,138.47h4.18v4.18h-4.18v-4.18ZM153.49,134.01h4.18v4.18h-4.18v-4.18ZM149.03,138.47h4.18v4.18h-4.18v-4.18ZM149.03,134.01h4.18v4.18h-4.18v-4.18ZM149.03,129.55h4.18v4.18h-4.18v-4.18ZM149.03,125.08h4.18v4.18h-4.18v-4.18ZM144.56,134.01h4.18v4.18h-4.18v-4.18ZM144.56,129.55h4.18v4.18h-4.18v-4.18ZM144.56,125.08h4.18v4.18h-4.18v-4.18ZM144.56,120.62h4.18v4.18h-4.18v-4.18ZM144.56,116.15h4.18v4.18h-4.18v-4.18ZM140.1,147.4h4.18v4.18h-4.18v-4.18ZM140.1,142.94h4.18v4.18h-4.18v-4.18ZM140.1,138.47h4.18v4.18h-4.18v-4.18ZM140.1,134.01h4.18v4.18h-4.18v-4.18ZM140.1,129.55h4.18v4.18h-4.18v-4.18ZM140.1,125.08h4.18v4.18h-4.18v-4.18ZM140.1,120.62h4.18v4.18h-4.18v-4.18ZM140.1,116.15h4.18v4.18h-4.18v-4.18ZM140.1,111.69h4.18v4.18h-4.18v-4.18ZM135.64,147.4h4.18v4.18h-4.18v-4.18ZM135.64,142.94h4.18v4.18h-4.18v-4.18ZM135.64,138.47h4.18v4.18h-4.18v-4.18ZM135.64,134.01h4.18v4.18h-4.18v-4.18ZM135.64,129.55h4.18v4.18h-4.18v-4.18ZM135.64,125.08h4.18v4.18h-4.18v-4.18ZM135.64,120.62h4.18v4.18h-4.18v-4.18ZM135.64,116.15h4.18v4.18h-4.18v-4.18ZM135.64,111.69h4.18v4.18h-4.18v-4.18ZM131.17,147.4h4.18v4.18h-4.18v-4.18ZM131.17,142.94h4.18v4.18h-4.18v-4.18ZM131.17,138.47h4.18v4.18h-4.18v-4.18ZM131.17,134.01h4.18v4.18h-4.18v-4.18ZM131.17,129.55h4.18v4.18h-4.18v-4.18ZM131.17,125.08h4.18v4.18h-4.18v-4.18ZM131.17,120.62h4.18v4.18h-4.18v-4.18ZM131.17,116.15h4.18v4.18h-4.18v-4.18ZM131.17,111.69h4.18v4.18h-4.18v-4.18ZM126.71,147.4h4.18v4.18h-4.18v-4.18ZM126.71,142.94h4.18v4.18h-4.18v-4.18ZM126.71,138.47h4.18v4.18h-4.18v-4.18ZM126.71,134.01h4.18v4.18h-4.18v-4.18ZM126.71,129.55h4.18v4.18h-4.18v-4.18ZM126.71,125.08h4.18v4.18h-4.18v-4.18ZM126.71,120.62h4.18v4.18h-4.18v-4.18ZM126.71,116.15h4.18v4.18h-4.18v-4.18ZM126.71,111.69h4.18v4.18h-4.18v-4.18ZM122.24,147.4h4.18v4.18h-4.18v-4.18ZM122.24,142.94h4.18v4.18h-4.18v-4.18ZM122.24,138.47h4.18v4.18h-4.18v-4.18ZM122.24,134.01h4.18v4.18h-4.18v-4.18ZM122.24,129.55h4.18v4.18h-4.18v-4.18ZM122.24,125.08h4.18v4.18h-4.18v-4.18ZM122.24,120.62h4.18v4.18h-4.18v-4.18ZM122.24,116.15h4.18v4.18h-4.18v-4.18ZM122.24,111.69h4.18v4.18h-4.18v-4.18ZM117.78,147.4h4.18v4.18h-4.18v-4.18ZM117.78,142.94h4.18v4.18h-4.18v-4.18ZM117.78,138.47h4.18v4.18h-4.18v-4.18ZM117.78,134.01h4.18v4.18h-4.18v-4.18ZM117.78,129.55h4.18v4.18h-4.18v-4.18ZM117.78,125.08h4.18v4.18h-4.18v-4.18ZM117.78,120.62h4.18v4.18h-4.18v-4.18ZM117.78,116.15h4.18v4.18h-4.18v-4.18ZM117.78,111.69h4.18v4.18h-4.18v-4.18ZM113.25,134.01h4.25v4.18h-4.25v-4.18ZM113.25,129.55h4.25v4.18h-4.25v-4.18ZM113.25,125.08h4.25v4.18h-4.25v-4.18ZM113.25,120.62h4.25v4.18h-4.25v-4.18ZM113.25,116.15h4.25v4.18h-4.25v-4.18ZM108.78,125.08h4.18v4.18h-4.18v-4.18ZM108.78,120.62h4.18v4.18h-4.18v-4.18ZM108.78,116.15h4.18v4.18h-4.18v-4.18ZM104.32,125.08h4.18v4.18h-4.18v-4.18ZM104.32,120.62h4.18v4.18h-4.18v-4.18ZM104.32,142.94h4.18v4.18h-4.18v-4.18ZM99.86,142.94h4.18v4.18h-4.18v-4.18ZM99.86,138.47h4.18v4.18h-4.18v-4.18ZM99.86,134.01h4.18v4.18h-4.18v-4.18ZM99.86,129.55h4.18v4.18h-4.18v-4.18ZM99.86,125.08h4.18v4.18h-4.18v-4.18ZM95.39,138.47h4.18v4.18h-4.18v-4.18ZM95.39,134.01h4.18v4.18h-4.18v-4.18Z"/>
                    </g>
                    <path class="cls-27" d="M111.71,131.06s.01,0,.02,0c.07-.01.12-.08.11-.15-.53-3.8-1.06-7.87-1.57-12.12,0-.07-.08-.13-.15-.12-.07,0-.13.08-.12.15.51,4.25,1.04,8.32,1.57,12.12,0,.07.07.12.13.12Z"/>
                    <path class="cls-27" d="M147.89,141.76c.07,0,.13-.05.13-.12.53-7.47,1.26-17.69.83-25.06,0-.07-.07-.13-.14-.13-.07,0-.13.07-.13.14.44,7.35-.29,17.56-.83,25.02,0,.07.05.14.12.14,0,0,0,0,0,0Z"/>
                    <path class="cls-27" d="M134.12,152.85c.06,0,.11-.04.13-.1.06-.22.22-.55.42-.96.26-.53.58-1.18.84-1.93.58-1.67-.44-9.37-1.04-13.97-.21-1.62-.38-2.9-.4-3.3-.29-6.7-1.75-18.38-1.77-18.5,0-.07-.07-.12-.15-.12-.07,0-.13.08-.12.15.01.12,1.48,11.79,1.76,18.48.02.42.18,1.64.4,3.33.6,4.58,1.61,12.24,1.06,13.84-.26.74-.57,1.39-.83,1.91-.21.42-.37.76-.44,1-.02.07.02.15.09.16.01,0,.02,0,.04,0Z"/>
                    <path class="cls-27" d="M103.9,137.95s.05,0,.07-.02c.06-.04.08-.12.04-.18-.83-1.36-2.27-3.12-4.37-3.74-1.27-.38-2.17-.17-2.21-.16-.07.02-.12.09-.1.16.02.07.09.12.16.1.03,0,3.5-.78,6.29,3.78.03.04.07.06.11.06Z"/>
                    <path class="cls-27" d="M154.92,138.67s.06,0,.08-.03l4.39-3.46c.06-.05.07-.13.02-.19-.05-.06-.13-.07-.19-.02l-4.39,3.46c-.06.05-.07.13-.02.19.03.03.07.05.11.05Z"/>
                    <path class="cls-27" d="M174.01,134.8s.08-.02.11-.06c.04-.06.03-.14-.03-.19-2.58-1.79-4.98-4.35-5.7-6.09-.03-.07-.11-.1-.18-.07-.07.03-.1.11-.07.18.74,1.78,3.18,4.39,5.79,6.21.02.02.05.02.08.02Z"/>
                    <path class="cls-27" d="M105.52,151.3c.07,0,.13-.06.13-.13.23-4.37,3.86-6.1,3.9-6.11.07-.03.1-.11.07-.18-.03-.07-.11-.1-.18-.07-.04.02-3.82,1.81-4.05,6.34,0,.07.05.14.13.14,0,0,0,0,0,0Z"/>
                    <path class="cls-27" d="M103.51,135.55s.04,0,.06-.02c.07-.04.09-.12.05-.18-1.35-2.51-3.25-3.38-3.33-3.42-.07-.03-.15,0-.18.07-.03.07,0,.15.07.18.02,0,1.9.88,3.2,3.3.02.05.07.07.12.07Z"/>
                    <path class="cls-29" d="M159.27,247.52h14.92c.07,0,.13-.06.13-.13s-.06-.13-.13-.13h-14.92c-1.26,0-2.44-.49-3.32-1.38l-1.07-1.07c-.05-.05-.14-.05-.19,0-.05.05-.05.14,0,.19l1.07,1.07c.94.94,2.19,1.46,3.51,1.46Z"/>
                    <path class="cls-29" d="M119.85,247.52h12.36c.07,0,.13-.06.13-.13s-.06-.13-.13-.13h-12.36c-.07,0-.13.06-.13.13,0,.07.06.13.13.13Z"/>
                    <path class="cls-29" d="M165.72,245.37s.07-.01.09-.04c1.93-1.86,4.22-.92,4.25-.91.07.03.15,0,.18-.07.03-.07,0-.15-.07-.18-.02-.01-2.48-1.02-4.54.96-.05.05-.06.14,0,.19.03.03.06.04.1.04Z"/>
                    <path class="cls-29" d="M164.64,243.86s.07-.01.09-.04c1.12-1.08,2.36-1.22,3.2-1.14.08,0,.14-.05.15-.12,0-.07-.05-.14-.12-.15-.9-.08-2.21.07-3.41,1.22-.05.05-.06.14,0,.19.03.03.06.04.1.04Z"/>
                    <path class="cls-29" d="M128.73,245.02c.05,0,.1-.03.12-.08.03-.07,0-.15-.06-.18-3.17-1.54-6.19-.1-6.22-.08-.07.03-.09.11-.06.18.03.07.11.09.18.06.03-.01,2.94-1.39,5.99.08.02,0,.04.01.06.01Z"/>
                    <path class="cls-29" d="M128.1,243.18c.05,0,.11-.03.13-.09.03-.07-.01-.15-.08-.17-1.98-.72-3.73-.46-4.85-.11-.07.02-.11.1-.09.17.02.07.1.11.17.09,1.08-.33,2.77-.59,4.68.11.02,0,.03,0,.05,0Z"/>
                    <g>
                      <path class="cls-6" d="M129.87,115.61c-.04-.32.16-.61.46-.65.29-.04.56.2.6.52.04.32-.16.61-.46.65-.29.04-.56-.2-.6-.52Z"/>
                      <path class="cls-6" d="M130.63,122.13c-.04-.32.16-.61.46-.65.29-.04.56.2.6.52.04.32-.16.61-.46.65-.29.04-.56-.2-.6-.52Z"/>
                      <path class="cls-6" d="M131.24,128.65c-.04-.32.16-.61.46-.65.29-.04.56.2.6.52.04.32-.16.61-.46.65s-.56-.2-.6-.52Z"/>
                      <path class="cls-6" d="M131.71,135.16c-.04-.32.16-.61.46-.65.29-.04.56.2.6.52.04.32-.16.61-.46.65-.29.04-.56-.2-.6-.52Z"/>
                      <path class="cls-6" d="M132.32,141.68c-.04-.32.16-.61.46-.65.29-.04.56.2.6.52.04.32-.16.61-.46.65-.29.04-.56-.2-.6-.52Z"/>
                      <path class="cls-6" d="M133.07,148.19c-.04-.32.16-.61.46-.65.29-.04.56.2.6.52.04.32-.16.61-.46.65-.29.04-.56-.2-.6-.52Z"/>
                    </g>
                    <path class="cls-12" d="M119.02,155.88h0s0,0,0,0Z"/>
                    <g>
                      <path class="cls-8" d="M111.15,154.31l-.09.37c.06.2.75,1.63,1.46,2.06.64.4,1.85.53,2.81.63.36.04.68.07.89.12l3.07,1.16,1.31.93c.41.26.78.38,1.1.38.15,0,.29-.03.42-.08.33-.14.57-.4.62-.68.04-.22-.04-.43-.22-.6h-.01s-2.05-1.65-2.05-1.65c-.08-.07-.17-.13-.27-.18l-1.47-.87s.09-.4.11-.39l1.77.58,2.8,2.15c.86.51,1.6.39,1.91-.09.36-.55.02-1.32-.45-1.66l-1.66-1.52c.8.53,1.79,1.25,2.37,1.54.2.1.82.22,1.28-.02.2-.1.36-.2.44-.36.28-.61-.06-1.28-.55-1.63l-2.34-1.68c.26.14.56.28.94.41,1.08.4,1.65-.11,1.71-.2.31-.5.17-1.18-.32-1.52-1.16-.8-3.38-2.21-3.58-2.31-.92-.47-2.12-.37-3.91-.28h-.02s-5.58.66-5.58.66l-2.52,4.71Z"/>
                      <path class="cls-4" d="M124.41,153.04c.07,0,.13-.03.17-.09.06-.09.03-.22-.06-.28l-2.2-1.42c-.25-.16-.53-.26-.82-.31l-2.03-.29c-.11-.02-.21.06-.23.17-.02.11.06.21.17.23l2.03.29c.24.03.46.12.66.25l2.2,1.42s.07.03.11.03Z"/>
                      <path class="cls-4" d="M123.07,155.14c.06,0,.12-.03.16-.08.07-.09.05-.22-.05-.28l-1.18-.86c-.43-.31-.93-.52-1.45-.61l-1.28-.23c-.11-.02-.21.05-.23.16-.02.11.05.21.16.23l1.28.23c.46.08.9.27,1.28.54l1.18.86s.08.04.12.04Z"/>
                    </g>
                    <path class="cls-4" d="M112.34,152.11c.08,0,.16-.05.19-.14.41-1.21,1.59-2.15,1.61-2.16.09-.07.1-.2.03-.28-.07-.09-.2-.1-.28-.03-.05.04-1.29,1.03-1.74,2.35-.04.11.02.22.13.26.02,0,.04.01.07.01Z"/>
                    <path class="cls-6" d="M125.54,104.36c7.61-1.01,10.15,4.22,10.15,4.22.22,1.51.35,4.23-.69,6.26l-3.8-1.6-4.43,2.81c-2.53-1.09-3.95-3.37-5.74-6.31,0,0,1.63-4.99,4.51-5.38Z"/>
                    <path class="cls-27" d="M126.73,116.35s.05,0,.08-.02l3.87-2.7,4.41,1.64c.06.02.14,0,.17-.06.95-1.84,1.22-3.93.79-6.21-.01-.07-.08-.12-.16-.11-.07.01-.12.08-.11.16.4,2.18.16,4.18-.72,5.94l-4.36-1.62s-.09,0-.12.02l-3.87,2.7c-2.57-1.13-4.74-3.62-5.55-6.37-.02-.07-.1-.11-.17-.09-.07.02-.11.1-.09.17.84,2.84,3.1,5.42,5.77,6.57.02,0,.04.01.05.01Z"/>
                    <g>
                      <path class="cls-16" d="M136.16,91.89s3.3-4.41.35-7.06c-1.34-1.21-3.83-.64-4.76-.34-.44.14-.9.2-1.36.19-1.89-.05-6.52.41-9.24,2.3-3.15,2.19-2.07,6.29-1.3,8.22.72,1.79,2.62,5.46,3.47,7.08.22.41.76.51,1.1.2l11.74-10.59Z"/>
                      <path class="cls-8" d="M124.31,99.35l-1.15,7.08c-.13,1.96,5.83,6.81,7.57,6.62.98-.28,2.02-1.73,2.84-3.67.49-1.16.42-4.3.42-4.3l-9.68-5.73Z"/>
                      <path class="cls-28" d="M127.73,103.54l6.26,1.54s.03,1.27-.08,2.49c-.08.93-.86,1.64-1.79,1.64h0c-2.97,0-4.39-2.7-4.39-5.67Z"/>
                      <path class="cls-8" d="M133.14,106.28c-3.83.34-6.36-.93-7.64-3.64-.48-1.02-1.67-4.42-1.67-4.42l1.89-.47s-.77-2.31-.47-3.2c.42-1.29.71-1.24.64-1.85-.03-.3-.5-1.26-.07-2.59.26-.78,1.81-.93,2.62-1.03l4.7-.87c1.56-.16,2.69.46,3.23,1.8.37.91.6,2.6.72,3.85l.22,2.18.13,1.27.21,2.09c.38,2.83-1.66,6.62-4.51,6.87Z"/>
                      <path class="cls-4" d="M131.98,106.46c.38,0,.77-.02,1.17-.05.07,0,.13-.07.12-.15,0-.07-.07-.13-.15-.12-1.4.12-2.65.03-3.71-.28-.81-.24-1.52-.6-2.12-1.09-.06-.05-.14-.04-.19.02-.05.06-.04.14.02.19.63.51,1.37.89,2.21,1.14.79.23,1.67.35,2.64.35Z"/>
                      <path class="cls-8" d="M124.91,98.39s-.92-3.38-2.88-3.22c-1.95.16-2.1,2.27-1.77,3.29.26.82,1.86,3.36,4.05,2.29,1.25-.61.6-2.37.6-2.37Z"/>
                      <path class="cls-4" d="M123.68,99.8s.01,0,.02,0c.11-.01.19-.11.18-.22-.03-.34-.03-.87.16-1.49.01-.03.01-.07,0-.11-.39-1.7-1.88-2.19-1.94-2.21-.11-.03-.22.03-.25.13-.03.11.02.22.13.25.06.02,1.3.44,1.66,1.87-.19.66-.19,1.23-.16,1.59.01.1.1.18.2.18Z"/>
                      <g>
                        <path d="M135.22,95.3c.03.35.27.61.53.59.26-.02.45-.33.41-.68-.03-.35-.27-.61-.53-.59s-.45.33-.41.68Z"/>
                        <path d="M129.62,95.84c.03.35.27.61.53.59s.45-.33.41-.68c-.03-.35-.27-.61-.53-.59s-.45.33-.41.68Z"/>
                        <path class="cls-16" d="M128.69,95.06c.13,0,.26-.05.35-.16.79-.9,1.84-.47,1.88-.45.24.1.51-.01.62-.25.1-.24,0-.51-.24-.62-.59-.26-1.97-.44-2.97.7-.17.2-.15.49.04.66.09.08.2.12.31.12Z"/>
                        <path class="cls-16" d="M134.41,94.26c.11,0,.22-.04.31-.12.87-.76,1.6-.32,1.61-.31.22.14.51.07.65-.15.14-.22.07-.51-.15-.65-.46-.29-1.62-.58-2.73.4-.19.17-.21.47-.04.66.09.11.22.16.35.16Z"/>
                      </g>
                      <path class="cls-4" d="M133.2,99.41s.04,0,.06,0l1.22-.39s.03-.01.05-.02c.33-.2.55-.54.61-.93.06-.38-.06-.76-.31-1.05l-1.24-1.65c-.07-.09-.19-.11-.28-.04-.09.07-.11.19-.04.28l1.24,1.65s0,0,.01.01c.18.2.26.47.22.73-.04.26-.18.49-.4.63l-1.19.38c-.11.03-.16.15-.13.25.03.09.11.14.19.14Z"/>
                      <path class="cls-6" d="M134.47,100.17c-.92.19-1.59.22-3.06-.19-.17-.05-.29.18-.21.33.21.38.69,1.01,1.68,1.02,1.4.02,1.59-1.16,1.59-1.16Z"/>
                      <path class="cls-25" d="M132.27,88.29s.05,0,.07-.02c2.33-1.46,1.17-3.59,1.15-3.61-.04-.06-.12-.09-.18-.05-.06.04-.09.12-.05.18.04.08,1.05,1.92-1.06,3.25-.06.04-.08.12-.04.19.03.04.07.06.11.06Z"/>
                      <path class="cls-25" d="M130.08,88.74s.04,0,.05-.01c2.06-.88,2.03-2.49,1.72-3.22-.03-.07-.11-.1-.18-.07-.07.03-.1.11-.07.18.03.08.75,1.87-1.58,2.87-.07.03-.1.11-.07.18.02.05.07.08.12.08Z"/>
                    </g>
                    <path class="cls-2" d="M131.4,155.23c-.24-.22-.38-.52-.39-.85l-.04-.98c-.03-.67.5-1.24,1.17-1.27l1.99-.08c.67-.03,1.24.5,1.27,1.17l.04.98c.01.33-.1.64-.32.88-.22.24-.52.38-.85.39l-1.99.08s-.03,0-.05,0c-.31,0-.6-.11-.82-.32ZM134.24,154.93c.18,0,.35-.09.47-.22.12-.13.19-.31.18-.49l-.04-.98c0-.18-.09-.35-.22-.47-.13-.12-.31-.19-.49-.18l-1.99.08c-.18,0-.35.09-.47.22-.12.13-.19.31-.18.49l.04.98c.02.38.34.67.71.65l1.99-.08Z"/>
                  </g>
                  <ellipse class="cls-28" cx="128.57" cy="97.35" rx="1.4" ry=".64"/>
                  <path class="cls-28" d="M137.44,97.32s-.07.01-.1.02c-.77.13-1.43-.06-1.49-.41-.06-.35.52-.73,1.28-.86.06-.01.12-.02.18-.02l.13,1.27Z"/>
                </g>
              </g>
            </g>
          </g>
          <rect class="cls-6" x="239.97" y="24.21" width="106.13" height="2.59"/>
          <g>
            <polygon class="cls-16" points="308.5 346.11 247.13 294.29 139.71 300.33 186.38 346.11 308.5 346.11"/>
            <g>
              <polygon class="cls-6" points="325.79 346.11 262.21 286.78 150.51 296.08 187.96 346.11 325.79 346.11"/>
              <path class="cls-17" d="M187.74,346.11h.43l-37.34-49.89,111.32-9.27,63.38,59.16h.5l-63.71-59.46s-.08-.05-.13-.05l-111.7,9.3c-.06,0-.12.04-.14.1-.03.06-.02.12.02.17l37.37,49.93Z"/>
            </g>
            <path class="cls-24" d="M190.62,309.49l-2.01-2.78c-.18-.26-.02-.61.29-.65l54.9-5.85c.13-.01.26.04.35.14l2.25,2.56c.22.25.07.64-.26.68l-55.15,6.08c-.15.02-.29-.05-.38-.17Z"/>
            <g>
              <path class="cls-24" d="M279.76,324.81l-.13-.96-1.18-1.11c-.09-.08-.21-.12-.34-.11l-76.85,10.61c-.31.04-.46.4-.27.65l1.07,1.43c.09.12.24.18.38.16l77.32-10.67Z"/>
              <path class="cls-24" d="M269.52,314.69l-.05-.38-1.71-1.6c-.11-.1-.25-.15-.4-.13l-74.02,9.89c-.37.05-.54.47-.32.77l.97,1.3c.1.14.28.21.45.19l75.08-10.03Z"/>
              <path class="cls-24" d="M188.92,317.76l1.07,1.44c.09.12.23.18.38.16l73.67-9.43-.1-.82-1.33-1.25c-.09-.08-.21-.12-.33-.11l-73.08,9.35c-.31.04-.46.4-.28.65Z"/>
              <path class="cls-24" d="M275,319.93l-.07-.49-1.63-1.53c-.09-.08-.21-.12-.33-.11l-75.72,10.07c-.31.04-.46.4-.27.65l1.07,1.43c.09.12.24.18.38.16l76.57-10.19Z"/>
            </g>
            <g>
              <path class="cls-17" d="M206.11,298.11c-.13,0-.26-.09-.29-.23-.04-.16.06-.32.22-.36l2.44-.6c.16-.04.32.06.36.22.04.16-.06.32-.22.36l-2.44.6s-.05,0-.07,0Z"/>
              <path class="cls-22" d="M219.34,314.33s.09,3.68,3.58,4.81c2.27.74,18.85-2.64,18.85-2.64,0,0,6.16,19.2,8.89,29.61h36.43c-.61-.71-1.03-1.26-1.21-1.62-1.89-3.77-5.94-36.76-5.94-39.78s-2.92-6.32-2.92-6.32c0,0-1.79-5.37-3.02-7.73-1.42-2.72-23-11.31-26.87-12.91-3.59-1.49-29.69,5.56-30.26,8.3-.29,1.4,4.33,7.01,8.86,8.2,0,0-9.14,5.56-9.52,7.16-.38,1.6,3.25,4.61,5.94,4.71,0,0-6.22,1.98-6.32,3.11-.09,1.13,1.72,4.85,3.49,5.09Z"/>
              <path class="cls-21" d="M291.01,275.51l-80.24,18.8-3.52,2.92.15.57,4.39.87,80.24-18.8c.69-1.47.17-3.59-1.02-4.35Z"/>
              <g>
                <path class="cls-17" d="M251.56,293.34s-.11-.05-.16-.08c-1.51-.71-4.38-2.07-5.59-2.58h-.02c-.29-.13-.49-.19-.54-.19-.1,0-.18.08-.18.18,0,.08.05.15.13.16.02.02.03.02.05.02.32.06,3.87,1.73,6.08,2.79.02.02.05.02.06.03.03,0,.06.02.08.02.06,0,.13-.05.16-.11.05-.08,0-.19-.08-.23Z"/>
                <path class="cls-20" d="M251.48,294.04h-.09l-.15-.06c-2.67-1.27-5.75-2.7-6.07-2.78-.23-.01-.46-.25-.46-.54,0-.3.25-.55.55-.55.07,0,.17,0,1,.36h.56l-.26.13c.9.39,2.45,1.11,5.15,2.39.27.13.39.46.26.73-.09.19-.28.31-.5.31Z"/>
              </g>
              <g>
                <path class="cls-17" d="M219.58,314.14c-.07,0-.14-.05-.17-.12-.03-.09.02-.19.11-.23l15.41-5.48c.09-.03.2.02.23.11s-.02.19-.11.23l-15.41,5.48s-.04.01-.06.01Z"/>
                <path class="cls-20" d="M235.5,308.3c-.05-.15-.15-.24-.28-.31-.13-.06-.29-.08-.42-.03l-4.23,1.51-.39.15h-.02l-.19.06-.19.06-.41.15-9.09,3.26h-.02l-.88.31c-.28.1-.42.41-.32.7.02.05.05.1.06.13.06.08.13.13.23.16.06.05.15.06.23.06l5.64-1.99.03-.02,5.07-1.78.41-.15.16-.06.19-.06.39-.13,3.7-1.31c.28-.1.44-.41.32-.7Z"/>
              </g>
              <g>
                <path class="cls-17" d="M222.06,306.41c-.07,0-.14-.05-.17-.12-.03-.09.02-.19.11-.23l21.41-7.55s.08-.01.11,0c3.02.97,8.48,2.71,10.04,3.18-2.46-4.39-2.63-8.05-.53-11.49.05-.08.16-.11.25-.06.08.05.11.16.06.25-2.08,3.41-1.84,7.07.76,11.51.04.06.03.14,0,.19-.04.06-.11.09-.18.07-.46-.09-9.53-3-10.43-3.29l-21.35,7.53s-.04.01-.06.01Z"/>
                <path class="cls-20" d="M222.06,306.78c-.23,0-.44-.15-.52-.37-.05-.13-.04-.28.02-.41.06-.13.17-.23.31-.28l21.41-7.55c.11-.04.23-.04.35,0,2.39.77,6.95,2.22,9.17,2.91-2.12-4.17-2.14-7.71-.1-11.07.16-.26.49-.34.75-.18.26.16.34.49.19.75-2,3.29-1.76,6.82.76,11.13.11.19.1.42-.03.6-.12.17-.34.26-.55.22-.46-.09-8.44-2.65-10.35-3.26l-21.42,7.52Z"/>
              </g>
              <path class="cls-22" d="M223.48,304.81c3.62,3.88,7.08,3.85,9.14,8.2,2.15,4.53,7.54,24.51,12.82,30.16.87.93,1.79,1.92,2.73,2.94h9.64l-1.15-46.58c-2.45,3.02-7.16,5.18-9.99,5.28-2.83.09-13.1-7.07-13.1-7.07,0,0-2.04-3.79-4.15-6.03-3.11-3.3-7.35-2.92-7.35-2.92,0,0-5.15.44-3.86,3.3,2.55,5.66,3.17,10.46,5.28,12.73Z"/>
              <g>
                <path class="cls-17" d="M234.54,318.26c-.07,0-.14-.05-.17-.12-.69-1.99-1.39-3.98-1.9-5.05-1.18-2.48-2.81-3.5-4.69-4.69-1.35-.85-2.89-1.82-4.42-3.47-1.26-1.35-1.99-3.55-2.9-6.33-.08-.24-.16-.48-.24-.72-.03-.09.02-.19.11-.23.09-.03.19.02.23.11.08.25.16.49.24.72.9,2.74,1.62,4.9,2.83,6.19,1.5,1.61,2.95,2.53,4.35,3.41,1.93,1.22,3.6,2.27,4.82,4.84.52,1.09,1.23,3.09,1.92,5.09.03.09-.02.19-.11.23-.02,0-.04,0-.06,0Z"/>
                <path class="cls-20" d="M235.06,317.89s-.03-.08-.05-.11c-.1-.28-.19-.57-.29-.84-.39-1.13-.79-2.24-1.13-3.11-.16-.41-.32-.76-.45-1.05-.21-.44-.44-.84-.66-1.2-.31-.49-.63-.89-.99-1.26-.08-.1-.18-.19-.28-.29-.1-.1-.19-.18-.29-.28-.11-.1-.23-.19-.34-.28-.75-.63-1.54-1.15-2.42-1.69-.89-.57-1.8-1.13-2.74-1.91-.06-.05-.15-.11-.23-.19-.1-.08-.19-.16-.29-.24l-.29-.29c-.1-.08-.21-.18-.29-.29-.15-.13-.29-.28-.42-.42-.49-.5-.89-1.17-1.25-1.96-.54-1.12-.99-2.51-1.51-4.08l-.23-.73c-.03-.06-.06-.13-.13-.19-.02-.03-.05-.06-.1-.08l-.05-.05s-.1-.03-.15-.03c-.1-.03-.19-.02-.28.02-.15.03-.26.15-.32.28-.06.13-.08.28-.03.41l.03.1.21.63c.49,1.46.92,2.76,1.39,3.87.45,1.04.96,1.91,1.59,2.59.02.02.05.05.06.06.1.11.19.21.29.31.11.1.19.19.29.28.06.08.13.15.19.19.03.03.06.05.08.06,1.26,1.15,2.48,1.91,3.58,2.61.63.41,1.23.78,1.78,1.18.11.1.23.19.34.28.11.1.23.18.32.28.1.08.19.18.29.28.32.31.62.63.89,1.02.32.44.63.92.91,1.51.1.21.21.45.31.73.36.84.78,1.95,1.18,3.11.1.29.21.58.31.88.03.1.06.19.1.29.06.23.28.37.52.37l.18-.03c.13-.03.24-.15.31-.28.06-.13.08-.28.03-.42Z"/>
              </g>
              <g>
                <path class="cls-17" d="M246.62,304.99c-2.93,0-12.73-6.81-13.15-7.1-.02-.02-.04-.04-.06-.06-.02-.04-2.05-3.8-4.12-6-3.01-3.19-7.16-2.87-7.21-2.87-.02,0-1.52.14-2.66.7-.09.04-.2,0-.24-.08-.04-.09,0-.2.08-.24,1.2-.59,2.72-.73,2.79-.74.04,0,4.36-.35,7.5,2.98,1.99,2.11,3.93,5.63,4.15,6.03.65.45,10.18,7.01,12.91,7.01.02,0,.04,0,.05,0,2.79-.09,7.42-2.21,9.86-5.21.06-.08.17-.09.25-.03.08.06.09.17.03.25-2.5,3.08-7.25,5.25-10.12,5.34-.02,0-.04,0-.06,0Z"/>
                <path class="cls-20" d="M257.02,299.11c-.11-.1-.28-.15-.41-.13-.15.02-.29.1-.37.21-.44.53-.96,1.05-1.51,1.52-.19.18-.41.34-.62.49-.08.08-.19.15-.29.21-.1.08-.21.16-.31.23-.02.02-.03.02-.03.03-.13.08-.24.16-.37.26h-.02c-.13.08-.28.16-.41.24-2.11,1.25-4.41,2.03-6.08,2.09-.44,0-1.09-.19-1.88-.52h-.02c-1.51-.65-3.52-1.78-5.51-3-.02,0-.05-.02-.06-.03-.11-.06-.21-.13-.32-.21-.13-.06-.26-.15-.39-.24-.13-.06-.28-.15-.41-.24-1.52-.96-2.95-1.9-4.04-2.66-.16-.31-.66-1.18-1.35-2.25-.23-.37-.49-.76-.76-1.17-.63-.91-1.35-1.85-2.06-2.61-.42-.45-.88-.84-1.33-1.17-.18-.15-.36-.26-.52-.36-.08-.06-.16-.11-.24-.16-.1-.05-.18-.1-.26-.15-2.58-1.41-5.09-1.3-5.46-1.26-.28.03-1.72.19-2.9.78-.13.06-.24.18-.28.31-.02.05-.02.1-.02.15-.03.1-.02.19.03.28,0,.02.02.03.02.03.02.02.03.02.03.02.05.11.15.18.28.23.05.02.1.03.16.03h.02c.08,0,.16-.02.24-.06.36-.16.75-.29,1.1-.39h.02c.76-.19,1.39-.26,1.41-.26.02-.02,1.28-.1,2.92.37h.02c.15.03.26.08.41.13h.02c.13.03.28.08.41.13h.02c.36.15.73.32,1.1.53h.02c.7.39,1.36.89,2.01,1.57.58.63,1.17,1.38,1.7,2.14.24.32.45.65.66.97.99,1.49,1.69,2.79,1.7,2.82l.08.13.08.05c.16.11,1.57,1.1,3.45,2.3.13.08.26.16.39.24.08.06.16.11.24.16h.02s.06.05.11.1c.13.06.26.15.39.23h.02c1.52.96,3.23,1.96,4.78,2.76,1.62.81,3.06,1.38,3.96,1.38h.08c2.04-.06,5.01-1.15,7.49-2.89.49-.32.94-.68,1.38-1.05.41-.32.78-.68,1.12-1.07.15-.15.28-.31.41-.47.1-.11.15-.26.13-.41-.02-.15-.1-.28-.19-.36Z"/>
              </g>
              <path class="cls-18" d="M222.75,290.56c1.89,1.3,2.59,3.94,2.34,3.93-1.47.36-4.94,2.92-4.44,3.13,0,0-2.5-5.04-2.46-6.62.03-1.07,1.53-2.52,4.56-.44Z"/>
              <g>
                <path class="cls-17" d="M243.47,298.86c-.07,0-.14-.04-.17-.12-.39-1.02-.4-2.38-.04-4.06.26-1.24.64-2.17.65-2.21.04-.09.14-.14.23-.1.09.04.14.14.1.23-.01.04-1.47,3.73-.61,6.01.04.09-.01.2-.1.23-.02,0-.04.01-.06.01Z"/>
                <path class="cls-20" d="M244.57,292.33c-.05-.15-.16-.24-.29-.29-.13-.06-.29-.06-.42,0-.13.05-.24.16-.29.29,0,.02-.37.94-.65,2.2,0,.02-.02.05-.02.06-.31,1.47-.36,2.74-.11,3.74l.1.34c.02.06.05.13.06.19.02.05.05.1.08.15.11.13.26.19.44.19l.19-.03c.1-.03.19-.1.23-.19.05-.03.06-.06.08-.1.03-.06.05-.15.05-.23,0-.06-.02-.13-.05-.19-.03-.08-.05-.16-.08-.24-.34-1.15-.11-2.63.18-3.76.23-.96.49-1.65.52-1.72.05-.15.05-.29-.02-.42Z"/>
              </g>
              <g>
                <path class="cls-17" d="M243.9,286.95c-.08,0-.16-.06-.17-.14-.72-3.18.9-6.19.97-6.31.05-.09.16-.12.24-.07.09.05.12.16.07.24-.02.03-1.62,3.01-.93,6.06.02.1-.04.19-.13.21-.01,0-.03,0-.04,0Z"/>
                <path class="cls-20" d="M245.38,280.44c-.05-.15-.15-.26-.28-.34-.13-.06-.28-.08-.42-.03-.13.03-.24.13-.32.26-.18.32-1.67,3.21-1.04,6.35,0,.06.02.15.03.21.06.26.28.44.53.44l.13-.02c.13-.03.26-.11.34-.24.08-.13.1-.28.06-.42-.02-.06-.03-.15-.03-.21-.53-2.77.88-5.48.94-5.58.06-.13.08-.28.05-.42Z"/>
              </g>
              <g>
                <path class="cls-17" d="M232.65,289.24c-.06,0-.12-.03-.15-.09-.56-.96-.92-2.08-1.06-3.34-.01-.1.06-.19.16-.2.1-.01.19.06.2.16.14,1.21.48,2.29,1.01,3.2.05.09.02.19-.06.24-.03.02-.06.02-.09.02Z"/>
                <path class="cls-20" d="M232.65,289.61c-.19,0-.37-.1-.47-.27-.59-1-.96-2.18-1.11-3.49-.03-.3.18-.57.48-.61.32-.04.57.19.61.48.13,1.16.45,2.19.96,3.06.07.13.09.27.06.42-.04.14-.13.26-.26.34-.08.05-.18.07-.28.07Z"/>
              </g>
              <g>
                <path class="cls-17" d="M211.66,298.37s-.09-.03-.12-.07c-1-1.62-.79-3.53-.78-3.61,0-.06.08-.11.15-.1.08,0,.13.06.13.13,0,.02-.21,1.92.75,3.48.03.06,0,.12-.06.15-.02,0-.05.01-.07,0Z"/>
                <path class="cls-16" d="M212.07,298.04c-.34-.57-.54-1.2-.63-1.73-.15-.86-.08-1.52-.08-1.54v-.21l-.08-.11c-.08-.1-.18-.16-.31-.18h-.03c-.24-.02-.44.11-.5.32-.02.02-.02.05-.02.06,0,.06-.08.76.08,1.7.1.65.31,1.41.75,2.12.03.05.06.08.1.1.08.08.18.11.29.13l.13-.02.08-.02s.05-.02.06-.05c.1-.03.18-.11.21-.23l.03-.23-.08-.13Z"/>
              </g>
              <g>
                <path class="cls-17" d="M291.56,279.83s-.08-.02-.11-.05c-1.39-1.76-1-3.95-.98-4.04.01-.08.09-.13.17-.11.08.01.13.09.11.17,0,.02-.39,2.16.92,3.81.05.06.04.15-.02.2-.03.02-.06.03-.09.03Z"/>
                <path class="cls-16" d="M291.97,279.37c-1.18-1.49-.88-3.44-.86-3.52.02-.11,0-.23-.06-.31,0-.02-.03-.03-.03-.03-.03-.13-.16-.21-.31-.24-.28-.05-.55.13-.6.41,0,0,0,.02-.02.05-.05.37-.34,2.51,1.07,4.3.02.02.03.03.05.03.08.1.21.15.36.15.11,0,.23-.03.32-.1.06-.06.13-.15.15-.24.06-.16.03-.34-.06-.49Z"/>
              </g>
            </g>
            <g>
              <path class="cls-22" d="M97.42,346.11c1.38-2.4,2.65-4.63,3.98-6.14,1.29-1.46,2.93-2.24,4.19-3.73,1.19-1.4,2.13-3.51,4.63-5.77,1.75-1.57,3.33-3.71,3.73-4.8.55-1.49-2.79-3.53-8.82-1.42-4.54,1.59-5.9,2.49-9.47,7.49-.12.04-2.31,3.9-3.93,4.96-2.58,1.68-5.65,2.13-5.78,1.23-.26-1.8,8.02-9.59,9.18-10.62,2.29-2.03,7.92-6.31,10.6-7.8,7.99-4.42,11.85-3.5,17.34-7.08,2.18-1.42,4.65-5.63,3.56-7.33-.28-.43-6.07.42-7.54,1.03,2.91-1.37,6.07-2.66,6.62-6.11.09-.54-.26-1.06-.8-1.19-1.55-.37-4.31-.1-6.98.32.31-.85.48-1.63.4-2.21-9.1-1.85-14.57-1.02-22.35,1.07,2.28-1,4.22-2.57,2.65-3.35-2.9-1.45-9.45.47-10.6.81-8.07,2.37-12.99,4.83-19.31,7.42-2.06.85-5.71,1.33-7.77,2.34-9.4,4.61-35.52,33.66-41.26,40.88h77.72Z"/>
              <g>
                <path class="cls-17" d="M85.14,321.34s-.09-.02-.13-.05c-.07-.07-.07-.18,0-.25,1.43-1.41,10.16-7.54,13.34-9.37,4.35-2.5,20.04-5.58,20.71-5.71.1-.02.19.04.21.14.02.1-.04.19-.14.21-.16.03-16.3,3.2-20.6,5.67-3.17,1.82-11.85,7.91-13.27,9.32-.03.03-.08.05-.13.05Z"/>
                <path class="cls-20" d="M119.6,305.95s0-.03-.02-.05c-.03-.1-.1-.18-.19-.23-.11-.08-.26-.11-.41-.08-.16.03-16.35,3.18-20.81,5.75-3.19,1.83-11.98,7.99-13.42,9.42-.21.23-.21.57,0,.78.1.11.24.16.39.16s.28-.05.37-.15c1.41-1.39,10.05-7.46,13.19-9.27,3.87-2.22,17.81-5.09,20.15-5.54.21-.05.32-.08.34-.08.15-.02.28-.1.36-.23.05-.06.08-.15.08-.23.02-.06.02-.13,0-.18,0-.03-.02-.06-.03-.08Z"/>
              </g>
              <g>
                <path class="cls-17" d="M77,315.19c-.07,0-.13-.04-.16-.1-.04-.09,0-.2.08-.24,3.67-1.8,13.28-7.58,16.13-9.31,5.24-3.17,23.97-6.57,24.76-6.72.1-.02.19.05.21.14.02.1-.05.19-.14.21-.19.04-19.46,3.54-24.64,6.67-2.86,1.73-12.48,7.52-16.16,9.33-.03.01-.05.02-.08.02Z"/>
                <path class="cls-20" d="M118.16,298.56l-.02-.02c-.13-.08-.24-.11-.39-.08-.23.05-1.96.36-4.42.88h-.03c-6.09,1.23-16.68,3.61-20.44,5.9-2.85,1.72-12.43,7.49-16.1,9.29-.15.06-.24.18-.29.31-.05.15-.03.29.03.42.1.19.28.31.49.31l.16-.02.08-.03c3.7-1.82,13.32-7.62,16.19-9.35,4.38-2.64,18.95-5.56,23.29-6.39.76-.15,1.2-.23,1.23-.23.19-.05.36-.19.41-.37.02-.03.02-.06.02-.08.03-.06.03-.13.02-.19-.03-.13-.11-.26-.23-.34Z"/>
              </g>
              <g>
                <path class="cls-17" d="M70.03,309.18c-.07,0-.14-.04-.17-.11-.04-.09,0-.2.1-.23.09-.04,9.12-3.68,11.79-5.57,4.39-3.13,13.74-5.05,13.83-5.07.1-.02.19.04.21.14.02.1-.04.19-.14.21-.09.02-9.36,1.93-13.69,5.01-2.7,1.92-11.49,5.46-11.86,5.61-.02,0-.04.01-.07.01Z"/>
                <path class="cls-20" d="M70.03,309.55c-.23,0-.42-.13-.51-.35-.05-.13-.05-.28,0-.42.06-.13.16-.24.3-.29.09-.04,9.12-3.68,11.71-5.53,4.42-3.14,13.58-5.05,13.97-5.13.29-.06.59.13.65.43.06.3-.13.59-.42.65-.1.02-9.32,1.94-13.56,4.95-2.75,1.96-11.56,5.51-11.94,5.66l-.2.04Z"/>
              </g>
              <path class="cls-18" d="M113.97,325.55c.21-.41-.86-1.34-2.35-1.32-1.47.02-4.32,1.43-4.49,3.69-.05.69,2.96,2.46,2.99,2.42,1.69-1.97,3.21-3.55,3.85-4.79Z"/>
              <path class="cls-18" d="M120.75,305.67c-.67.28-1.31.59-1.9.95-.05.96,1.49,2.1,2.35,2.23,1.74.26,4.49-1.12,5.62-2.16.14-.59.1-1.14-.19-1.58-.21-.33-3.62.09-5.89.57Z"/>
              <path class="cls-18" d="M117.7,301.44c.8,1.14,2.21,1.67,3.56,1.35,1.51-.36,3.21-.76,4.11-1.99.09-.11.17-.22.25-.32.04-.15.07-.3.09-.46.09-.54-.26-1.06-.8-1.19-1.34-.32-3.59-.16-5.9.16-.5.13-1.02.28-1.57.44-.55.14-.98.36-.7.7.26.32.62.81.97,1.31Z"/>
              <path class="cls-18" d="M112.15,299.16c.64.39,3.7,0,3.7,0,.89-.11,1.62-.23,2.2-.36.22-.68.34-1.31.29-1.8-.64-.18-1.47-.35-2.46-.5,0,0-4.36-.59-4.28.57.08,1.17-.1,1.69.55,2.08Z"/>
              <path class="cls-18" d="M95.14,297.35c2.14-.42,3.45-1.07,3.45-1.07.07-.02.13-.04.2-.06.55-.6.62-1.17-.14-1.56-.3-.15-.64-.26-1.01-.35-.2,0-.42,0-.65.02,0,0-5.35-.14-4.44,1.21.91,1.35.45,2.22,2.59,1.8Z"/>
            </g>
          </g>
          <g>
            <g>
              <path class="cls-6" d="M210.52,68.36c0,14.72-10.02,27.12-23.6,30.73-.1.02-.21.06-.31.09-1.78.45-3.61.76-5.5.88-.79.07-1.6.1-2.4.1-7.02,0-13.52-2.28-18.79-6.15l.14.14-10.77,5.84c-1.41.76-2.95-.78-2.19-2.19l5.84-10.77.12.12c-3.87-5.27-6.15-11.76-6.15-18.79,0-11,5.58-20.69,14.06-26.39,5.07-3.42,11.18-5.42,17.75-5.42.54,0,1.07.01,1.6.05.15,0,.29.01.43.02.4.02.78.05,1.16.09.33.02.64.07.96.12.29.04.57.07.86.12.65.09,1.29.22,1.93.37.36.07.72.16,1.08.26.47.12.92.24,1.37.38.03.01.06.02.09.04.4.13.79.26,1.19.4.14.05.29.1.43.16.43.15.85.33,1.27.5.02.01.06.02.09.04.44.2.89.4,1.32.61.43.2.85.42,1.27.64.07.04.14.08.22.13s.15.08.23.13c.34.18.66.37.98.57.44.26.87.54,1.29.83.03.02.07.05.1.07.36.24.71.49,1.06.76.01.01.03.02.05.04.16.12.33.24.49.37.26.19.5.38.75.59t.02.01c.19.16.37.33.56.48.06.06.12.1.17.16.01,0,.02.01.03.02.12.1.22.2.34.3t.02.02s.02.01.02.02c.37.33.73.68,1.08,1.02.36.36.71.72,1.05,1.11.3.33.58.65.86.99.3.36.59.73.87,1.1.2.26.38.52.57.78,0,0,.01.02.02.02,3.74,5.21,5.94,11.59,5.94,18.5Z"/>
              <path class="cls-1" d="M186.61,99.18c-1.9.54-3.87.92-5.5.88,1.89-.13,3.72-.43,5.5-.88Z"/>
            </g>
            <g>
              <path class="cls-2" d="M178.69,79.17v7.47c-.12.03-.24.03-.35.03-1.15,0-2.07-.35-2.78-1.06-.68-.71-1.03-1.62-1.03-2.75s.35-1.98,1.03-2.66c.71-.71,1.62-1.06,2.78-1.06.12,0,.24,0,.35.03Z"/>
              <path class="cls-2" d="M176.3,70.13c-.41.92-.59,2.04-.59,3.31,0,.95.21,1.62.68,2.07.47.44,1.03.68,1.74.68.21,0,.38,0,.56-.06v-9.33c-.32.32-.59.62-.83.89-.65.71-1.18,1.54-1.57,2.45ZM172.67,51.55c-1.8.97-3.19,2.25-4.11,3.72-.92,1.48-1.39,2.95-1.39,4.37v.03c0,.59.27,1.15.77,1.65.5.56,1.15.8,1.89.8,1.3,0,2.13-.74,2.63-2.33.59-1.83,1.36-3.22,2.24-4.16.89-.95,2.22-1.45,3.99-1.48v-4.05c-2.27,0-4.31.5-6.03,1.45Z"/>
            </g>
            <path class="cls-2" d="M190.27,59.2c0,1.27-.27,2.39-.8,3.34-.53.97-1.15,1.86-1.86,2.57-.77.74-2.16,2.01-4.11,3.75-.59.5-1.03.97-1.39,1.36-.35.41-.62.8-.8,1.15-.18.32-.32.68-.41,1.03-.09.33-.24.89-.41,1.68-.24,1.24-.8,1.89-1.8,2.04v-9.33c.53-.5,1.18-1.09,1.92-1.74,1.03-.89,1.8-1.59,2.27-2.07.47-.5.92-1.03,1.24-1.65.35-.62.56-1.33.56-2.07,0-1.45-.56-2.69-1.62-3.66-1.06-.97-2.42-1.48-4.08-1.48-.12,0-.21,0-.3.03v-4.05c.09-.03.21-.03.3-.03h.03c2.24,0,4.22.41,5.94,1.27,1.68.8,3.01,1.92,3.93,3.31.92,1.39,1.39,2.92,1.39,4.55Z"/>
            <path class="cls-2" d="M182.09,82.86c0,1.12-.33,2.04-.97,2.75-.59.65-1.42.97-2.42,1.03v-7.47c1,.06,1.83.38,2.42,1.03.65.68.97,1.57.97,2.66Z"/>
          </g>
          <rect class="cls-6" x="0" y="270.41" width="346.11" height="75.7"/>
          <rect class="cls-2" x="0" y="288.55" width="346.11" height="57.56"/>
          <g>
            <path class="cls-19" d="M47.8,327.62c-.65,0-1.15-.18-1.5-.54-.35-.36-.53-.88-.53-1.57v-14.17c0-1.39.69-2.08,2.08-2.08h8.79c1.04,0,1.57.51,1.57,1.54s-.52,1.57-1.57,1.57h-6.89v4.42h6.32c1.06,0,1.59.51,1.59,1.54s-.53,1.57-1.59,1.57h-6.32v5.6c0,1.41-.65,2.11-1.95,2.11Z"/>
            <path class="cls-19" d="M65.71,327.67c-1.35,0-2.53-.27-3.54-.81-1-.54-1.78-1.3-2.33-2.29-.55-.99-.82-2.16-.82-3.51s.27-2.5.82-3.48c.55-.99,1.32-1.74,2.33-2.27s2.18-.8,3.54-.8,2.53.27,3.53.8c1,.53,1.78,1.29,2.34,2.27.56.99.83,2.15.83,3.48s-.28,2.52-.83,3.51c-.56.99-1.34,1.75-2.34,2.29-1,.54-2.18.81-3.53.81ZM65.71,324.77c.82,0,1.5-.3,2.02-.9.52-.6.78-1.53.78-2.8s-.26-2.17-.78-2.76-1.2-.89-2.02-.89-1.49.3-2.01.89c-.51.59-.77,1.51-.77,2.76s.26,2.2.77,2.8c.51.6,1.18.9,2.01.9Z"/>
            <path class="cls-19" d="M76.79,327.62c-1.34,0-2-.66-2-1.98v-9.13c0-1.3.63-1.95,1.9-1.95s1.9.65,1.9,1.95v.46c.62-1.53,1.89-2.35,3.83-2.47.43-.03.76.07.99.32.23.25.36.66.37,1.22.03.53-.07.95-.32,1.26-.25.31-.67.5-1.25.57l-.59.05c-1.92.19-2.88,1.17-2.88,2.93v4.78c0,1.32-.65,1.98-1.95,1.98Z"/>
            <path class="cls-19" d="M87.38,327.62c-1.3,0-1.95-.66-1.95-1.98v-9.13c0-1.3.63-1.95,1.9-1.95s1.9.65,1.9,1.95v.08c.38-.65.89-1.16,1.55-1.53.66-.37,1.43-.55,2.3-.55s1.65.2,2.28.59c.63.39,1.1.99,1.43,1.8.39-.75.96-1.34,1.71-1.76.75-.42,1.57-.63,2.48-.63,1.44,0,2.51.43,3.21,1.3.7.87,1.05,2.2,1.05,4v5.84c0,.63-.17,1.12-.5,1.47s-.81.51-1.43.51c-1.3,0-1.95-.66-1.95-1.98v-5.71c0-.84-.13-1.45-.4-1.84s-.72-.58-1.35-.58c-.74,0-1.31.26-1.72.77s-.62,1.24-.62,2.19v5.17c0,1.32-.64,1.98-1.93,1.98-.62,0-1.1-.17-1.44-.51-.34-.34-.51-.83-.51-1.47v-5.71c0-.84-.14-1.45-.41-1.84s-.72-.58-1.34-.58c-.74,0-1.31.26-1.72.77-.41.51-.62,1.24-.62,2.19v5.17c0,1.32-.64,1.98-1.93,1.98Z"/>
            <path class="cls-19" d="M112.5,327.67c-.94,0-1.77-.18-2.49-.54-.72-.36-1.29-.85-1.71-1.47-.42-.62-.63-1.31-.63-2.08,0-.91.24-1.64.72-2.19.48-.55,1.26-.94,2.34-1.17,1.08-.23,2.51-.35,4.29-.35h.92v-.44c0-.75-.17-1.29-.51-1.61-.34-.32-.93-.48-1.75-.48-.46,0-.97.06-1.52.17-.55.11-1.14.3-1.77.55-.48.21-.88.22-1.21.04-.33-.18-.54-.45-.64-.82-.1-.37-.07-.74.09-1.12.16-.38.48-.65.96-.82.81-.31,1.56-.53,2.28-.66.71-.13,1.37-.19,1.97-.19,1.95,0,3.41.44,4.37,1.32s1.44,2.25,1.44,4.1v5.71c0,1.32-.6,1.98-1.8,1.98s-1.83-.66-1.83-1.98v-.15c-.26.67-.69,1.2-1.3,1.59s-1.35.59-2.22.59ZM113.38,325.08c.72,0,1.33-.25,1.83-.75s.75-1.14.75-1.93v-.51h-.9c-1.32,0-2.25.12-2.8.35-.55.23-.82.63-.82,1.2,0,.48.17.87.5,1.18.33.31.82.46,1.45.46Z"/>
            <path class="cls-19" d="M128.75,327.67c-3.55,0-5.32-1.72-5.32-5.17v-4.83h-1.08c-1.01,0-1.52-.48-1.52-1.44s.51-1.47,1.52-1.47h1.08v-1.95c0-1.32.65-1.98,1.95-1.98s1.93.66,1.93,1.98v1.95h2.44c.99,0,1.49.49,1.49,1.47s-.5,1.44-1.49,1.44h-2.44v4.68c0,.72.17,1.26.5,1.62.33.36.87.54,1.61.54.26,0,.5-.03.72-.08.22-.05.43-.09.62-.1.24-.02.44.06.59.23s.23.52.23,1.05c0,.43-.07.79-.21,1.09-.14.3-.38.52-.72.66-.22.09-.53.16-.91.22-.39.06-.72.09-.99.09Z"/>
            <path class="cls-19" d="M139.37,327.67c-1.49,0-2.77-.27-3.84-.81-1.07-.54-1.89-1.3-2.47-2.29-.57-.99-.86-2.15-.86-3.48s.28-2.45.84-3.43c.56-.99,1.32-1.76,2.29-2.31.97-.56,2.09-.84,3.35-.84,1.83,0,3.29.58,4.37,1.74,1.08,1.16,1.62,2.72,1.62,4.69,0,.65-.4.98-1.21.98h-7.56c.14.99.5,1.72,1.09,2.17.59.45,1.41.68,2.46.68.41,0,.88-.05,1.4-.14.52-.09,1.02-.26,1.5-.5.5-.24.92-.29,1.26-.14.34.15.58.39.71.73.13.34.13.7,0,1.07-.13.37-.42.67-.86.91-.6.33-1.26.57-1.99.73s-1.43.24-2.09.24ZM138.83,317.08c-.82,0-1.49.25-1.99.75-.51.5-.82,1.19-.94,2.08h5.55c-.1-1.89-.98-2.83-2.62-2.83Z"/>
            <path class="cls-19" d="M151.58,327.67c-1.61,0-2.8-.45-3.56-1.34-.76-.89-1.14-2.23-1.14-4.01v-5.81c0-1.3.64-1.95,1.93-1.95s1.95.65,1.95,1.95v5.91c0,1.49.64,2.24,1.93,2.24.74,0,1.34-.26,1.81-.78.47-.52.71-1.21.71-2.07v-5.3c0-1.3.64-1.95,1.93-1.95s1.95.65,1.95,1.95v9.13c0,1.32-.63,1.98-1.88,1.98-.62,0-1.09-.17-1.41-.51-.33-.34-.49-.82-.49-1.44-.84,1.34-2.08,2.01-3.73,2.01Z"/>
            <path class="cls-19" d="M164.1,327.62c-1.34,0-2-.66-2-1.98v-9.13c0-1.3.63-1.95,1.9-1.95s1.9.65,1.9,1.95v.46c.62-1.53,1.89-2.35,3.83-2.47.43-.03.76.07.99.32.23.25.36.66.37,1.22.03.53-.07.95-.32,1.26-.25.31-.67.5-1.25.57l-.59.05c-1.92.19-2.88,1.17-2.88,2.93v4.78c0,1.32-.65,1.98-1.95,1.98Z"/>
            <path class="cls-19" d="M184.12,327.67c-.94,0-1.77-.18-2.49-.54-.72-.36-1.29-.85-1.71-1.47-.42-.62-.63-1.31-.63-2.08,0-.91.24-1.64.72-2.19.48-.55,1.26-.94,2.34-1.17,1.08-.23,2.51-.35,4.29-.35h.92v-.44c0-.75-.17-1.29-.51-1.61-.34-.32-.93-.48-1.75-.48-.46,0-.97.06-1.52.17-.55.11-1.14.3-1.77.55-.48.21-.88.22-1.21.04-.33-.18-.54-.45-.64-.82-.1-.37-.07-.74.09-1.12.16-.38.48-.65.96-.82.81-.31,1.56-.53,2.28-.66.71-.13,1.37-.19,1.97-.19,1.95,0,3.41.44,4.37,1.32s1.44,2.25,1.44,4.1v5.71c0,1.32-.6,1.98-1.8,1.98s-1.83-.66-1.83-1.98v-.15c-.26.67-.69,1.2-1.3,1.59s-1.35.59-2.22.59ZM185,325.08c.72,0,1.33-.25,1.83-.75s.75-1.14.75-1.93v-.51h-.9c-1.32,0-2.25.12-2.8.35-.55.23-.82.63-.82,1.2,0,.48.17.87.5,1.18.33.31.82.46,1.45.46Z"/>
            <path class="cls-19" d="M196.13,327.62c-1.3,0-1.95-.66-1.95-1.98v-9.13c0-1.3.63-1.95,1.9-1.95s1.9.65,1.9,1.95v.1c.43-.69,1-1.21,1.72-1.57s1.53-.54,2.42-.54c1.49,0,2.61.43,3.34,1.3.74.87,1.1,2.2,1.1,4v5.84c0,1.32-.65,1.98-1.95,1.98-.62,0-1.09-.17-1.43-.51s-.5-.83-.5-1.47v-5.66c0-.87-.16-1.5-.49-1.89s-.81-.58-1.44-.58c-.82,0-1.48.26-1.97.77s-.73,1.2-.73,2.06v5.3c0,1.32-.64,1.98-1.93,1.98Z"/>
            <path class="cls-19" d="M211.42,312.45c-.72,0-1.27-.17-1.66-.5-.39-.33-.58-.81-.58-1.43s.19-1.12.58-1.45c.38-.33.94-.5,1.66-.5,1.47,0,2.21.65,2.21,1.95s-.74,1.93-2.21,1.93ZM211.42,327.6c-.63,0-1.12-.18-1.45-.55-.33-.37-.5-.89-.5-1.56v-8.79c0-1.42.65-2.13,1.95-2.13.62,0,1.09.18,1.43.55.33.37.5.9.5,1.58v8.79c0,.67-.16,1.19-.49,1.56-.33.37-.81.55-1.44.55Z"/>
            <path class="cls-19" d="M218.36,327.62c-1.3,0-1.95-.66-1.95-1.98v-9.13c0-1.3.63-1.95,1.9-1.95s1.9.65,1.9,1.95v.08c.38-.65.89-1.16,1.55-1.53.66-.37,1.43-.55,2.3-.55s1.65.2,2.28.59c.63.39,1.1.99,1.43,1.8.39-.75.96-1.34,1.71-1.76.75-.42,1.57-.63,2.48-.63,1.44,0,2.51.43,3.21,1.3.7.87,1.05,2.2,1.05,4v5.84c0,.63-.17,1.12-.5,1.47s-.81.51-1.43.51c-1.3,0-1.95-.66-1.95-1.98v-5.71c0-.84-.13-1.45-.4-1.84s-.72-.58-1.35-.58c-.74,0-1.31.26-1.72.77s-.62,1.24-.62,2.19v5.17c0,1.32-.64,1.98-1.93,1.98-.62,0-1.1-.17-1.44-.51-.34-.34-.51-.83-.51-1.47v-5.71c0-.84-.14-1.45-.41-1.84s-.72-.58-1.34-.58c-.74,0-1.31.26-1.72.77-.41.51-.62,1.24-.62,2.19v5.17c0,1.32-.64,1.98-1.93,1.98Z"/>
            <path class="cls-19" d="M243.48,327.67c-.94,0-1.77-.18-2.49-.54-.72-.36-1.29-.85-1.71-1.47-.42-.62-.63-1.31-.63-2.08,0-.91.24-1.64.72-2.19.48-.55,1.26-.94,2.34-1.17,1.08-.23,2.51-.35,4.29-.35h.92v-.44c0-.75-.17-1.29-.51-1.61-.34-.32-.93-.48-1.75-.48-.46,0-.97.06-1.52.17-.55.11-1.14.3-1.77.55-.48.21-.88.22-1.21.04-.33-.18-.54-.45-.64-.82-.1-.37-.07-.74.09-1.12.16-.38.48-.65.96-.82.81-.31,1.56-.53,2.28-.66.71-.13,1.37-.19,1.97-.19,1.95,0,3.41.44,4.37,1.32s1.44,2.25,1.44,4.1v5.71c0,1.32-.6,1.98-1.8,1.98s-1.83-.66-1.83-1.98v-.15c-.26.67-.69,1.2-1.3,1.59s-1.35.59-2.22.59ZM244.36,325.08c.72,0,1.33-.25,1.83-.75s.75-1.14.75-1.93v-.51h-.9c-1.32,0-2.25.12-2.8.35-.55.23-.82.63-.82,1.2,0,.48.17.87.5,1.18.33.31.82.46,1.45.46Z"/>
            <path class="cls-19" d="M259.73,327.67c-3.55,0-5.32-1.72-5.32-5.17v-4.83h-1.08c-1.01,0-1.52-.48-1.52-1.44s.51-1.47,1.52-1.47h1.08v-1.95c0-1.32.65-1.98,1.95-1.98s1.93.66,1.93,1.98v1.95h2.44c.99,0,1.49.49,1.49,1.47s-.5,1.44-1.49,1.44h-2.44v4.68c0,.72.17,1.26.5,1.62.33.36.87.54,1.61.54.26,0,.5-.03.72-.08.22-.05.43-.09.62-.1.24-.02.44.06.59.23s.23.52.23,1.05c0,.43-.07.79-.21,1.09-.14.3-.38.52-.72.66-.22.09-.53.16-.91.22-.39.06-.72.09-.99.09Z"/>
            <path class="cls-19" d="M270.35,327.67c-1.49,0-2.77-.27-3.84-.81-1.07-.54-1.89-1.3-2.47-2.29-.57-.99-.86-2.15-.86-3.48s.28-2.45.84-3.43c.56-.99,1.32-1.76,2.29-2.31.97-.56,2.09-.84,3.35-.84,1.83,0,3.29.58,4.37,1.74,1.08,1.16,1.62,2.72,1.62,4.69,0,.65-.4.98-1.21.98h-7.56c.14.99.5,1.72,1.09,2.17.59.45,1.41.68,2.46.68.41,0,.88-.05,1.4-.14.52-.09,1.02-.26,1.5-.5.5-.24.92-.29,1.26-.14.34.15.58.39.71.73.13.34.13.7,0,1.07-.13.37-.42.67-.86.91-.6.33-1.26.57-1.99.73s-1.43.24-2.09.24ZM269.81,317.08c-.82,0-1.49.25-1.99.75-.51.5-.82,1.19-.94,2.08h5.55c-.1-1.89-.98-2.83-2.62-2.83Z"/>
            <path class="cls-19" d="M282.56,327.67c-1.61,0-2.8-.45-3.56-1.34-.76-.89-1.14-2.23-1.14-4.01v-5.81c0-1.3.64-1.95,1.93-1.95s1.95.65,1.95,1.95v5.91c0,1.49.64,2.24,1.93,2.24.74,0,1.34-.26,1.81-.78.47-.52.71-1.21.71-2.07v-5.3c0-1.3.64-1.95,1.93-1.95s1.95.65,1.95,1.95v9.13c0,1.32-.63,1.98-1.88,1.98-.62,0-1.09-.17-1.41-.51-.33-.34-.49-.82-.49-1.44-.84,1.34-2.08,2.01-3.73,2.01Z"/>
            <path class="cls-19" d="M295.08,327.62c-1.34,0-2-.66-2-1.98v-9.13c0-1.3.63-1.95,1.9-1.95s1.9.65,1.9,1.95v.46c.62-1.53,1.89-2.35,3.83-2.47.43-.03.76.07.99.32.23.25.36.66.37,1.22.03.53-.07.95-.32,1.26-.25.31-.67.5-1.25.57l-.59.05c-1.92.19-2.88,1.17-2.88,2.93v4.78c0,1.32-.65,1.98-1.95,1.98Z"/>
          </g>
        </g>
        <path class="cls-6" d="M332.78,45.85l-2.85,1.01c-1.86.66-3.33,2.13-3.99,3.99l-1.01,2.85c-.19.54-.96.54-1.15,0l-1.01-2.85c-.66-1.86-2.13-3.33-3.99-3.99l-2.85-1.01c-.54-.19-.54-.96,0-1.15l2.85-1.01c1.86-.66,3.33-2.13,3.99-3.99l1.01-2.85c.19-.54.96-.54,1.15,0l1.01,2.85c.66,1.86,2.13,3.33,3.99,3.99l2.85,1.01c.54.19.54.96,0,1.15Z"/>
      </g>
      <g>
        <g>
          <circle class="cls-2" cx="167.97" cy="185.07" r="3.6"/>
          <circle class="cls-6" cx="183.37" cy="185.07" r="3.6"/>
        </g>
        <path class="cls-6" d="M166.4,184.25c-.64.29-.58.95-.58.96v.51c0,.12.09.21.21.21h.86c.12,0,.21-.09.21-.21.02-.14-.08-.56.26-.88.2-.18.44-.26.68-.25.99.03.88,1.14.88,1.13,0,.12.09.21.21.21h.89c.12,0,.21-.09.21-.21-.04-.26.19-1.11-.54-1.45-1.08-.51-2.22-.51-3.3-.02Z"/>
        <g>
          <rect class="cls-14" x="181.4" y="183.95" width="3.09" height="2.45" rx=".54" ry=".54"/>
          <path class="cls-14" d="M185.42,184.3l-.93.48v.74l.92.52c.07.04.15.06.23.06h.2c.07,0,.13-.06.13-.13v-1.59c0-.07-.06-.13-.13-.13h-.21c-.07,0-.15.02-.21.05Z"/>
        </g>
      </g>
    </g>
  </g>
</svg>