<?xml version="1.0" encoding="UTF-8"?>
<svg id="Layer_1" data-name="Layer 1" xmlns="http://www.w3.org/2000/svg" viewBox="0 0 346.11 346.11">
  <defs>
    <style>
      .cls-1 {
        fill: #726d7e;
      }

      .cls-1, .cls-2, .cls-3 {
        fill-rule: evenodd;
      }

      .cls-4 {
        fill: #f2b597;
      }

      .cls-5 {
        fill: #bf7a3b;
      }

      .cls-6 {
        fill: #bd4d2d;
      }

      .cls-7 {
        fill: #b6bade;
      }

      .cls-8 {
        fill: #fff;
      }

      .cls-9 {
        fill: #d1aa39;
      }

      .cls-2 {
        fill: #433f46;
      }

      .cls-10 {
        stroke: #dc7642;
        stroke-miterlimit: 10;
        stroke-width: .4px;
      }

      .cls-10, .cls-11 {
        fill: #dc7642;
      }

      .cls-12 {
        fill: #fdc32b;
      }

      .cls-13 {
        fill: #f79569;
      }

      .cls-14 {
        fill: #7f411d;
      }

      .cls-15 {
        fill: #006991;
      }

      .cls-16, .cls-3 {
        fill: #262225;
      }

      .cls-17 {
        fill: #2b2b2b;
      }

      .cls-18 {
        fill: #fbd5c5;
      }

      .cls-19, .cls-20 {
        fill: #f3e9e0;
      }

      .cls-20 {
        opacity: .65;
      }

      .cls-21 {
        fill: #a8632f;
      }

      .cls-22 {
        fill: #e8a167;
      }

      .cls-23 {
        fill: #d8e7db;
      }

      .cls-24 {
        fill: #eccfb6;
      }

      .cls-25 {
        fill: #c8d6cb;
      }

      .cls-26 {
        fill: #ce933b;
      }

      .cls-27 {
        fill: #d4ebfa;
        opacity: .3;
      }

      .cls-28 {
        opacity: .5;
      }

      .cls-29 {
        fill: #db8b48;
      }
    </style>
  </defs>
  <rect class="cls-19" width="346.11" height="346.11"/>
  <g>
    <path class="cls-8" d="M346.1,64.52v-2.48h-46.26V26.8h-2.58v35.24h-54.74V26.8h-2.56v132.91h2.56v-24.75h54.74v105.15h2.58v-105.15h46.26v-2.48h-46.26v-67.96h46.26ZM242.53,132.48v-67.96h54.74v67.96h-54.74Z"/>
    <g>
      <g>
        <g>
          <path class="cls-8" d="M343.77,76.66c-.24-.24-.55-.37-.89-.37h-10.02c-.34,0-.65.13-.89.37-.24.23-.37.55-.37.88v52.4c0,.92.75,1.67,1.67,1.67h9.21c.91,0,1.65-.75,1.65-1.67v-52.4c0-.32-.13-.65-.36-.88ZM343.64,129.94c0,.65-.53,1.17-1.17,1.17h-9.21c-.65,0-1.17-.52-1.17-1.17v-52.4c0-.19.08-.39.23-.52.15-.15.32-.23.54-.23h10.02c.19,0,.39.08.54.23.15.13.23.32.23.52v52.4Z"/>
          <path class="cls-8" d="M344.03,76.4c-.31-.31-.71-.49-1.15-.49h-10.02c-.44,0-.84.18-1.15.49-.31.31-.47.71-.47,1.13v52.4c0,1.12.91,2.04,2.03,2.04h9.21c1.12,0,2.03-.92,2.03-2.04v-52.4c0-.42-.16-.83-.47-1.13ZM343.27,129.94c0,.44-.36.79-.79.79h-9.21c-.44,0-.79-.36-.79-.79v-52.4c0-.1.03-.19.11-.26.06-.08.16-.11.28-.11h10.02c.1,0,.19.03.28.11.06.06.11.16.11.26v52.4Z"/>
        </g>
        <rect class="cls-8" x="334.29" y="80.67" width="7.18" height="20.39" rx=".87" ry=".87"/>
        <path class="cls-8" d="M337.88,122.77c1.68,0,3.05-1.36,3.05-3.05s-1.36-3.05-3.05-3.05-3.05,1.36-3.05,3.05,1.36,3.05,3.05,3.05Z"/>
      </g>
      <g>
        <g>
          <path class="cls-8" d="M329.1,76.66c-.24-.24-.55-.37-.89-.37h-10.02c-.34,0-.65.13-.89.37-.23.23-.36.55-.36.88v52.4c0,.92.73,1.67,1.65,1.67h9.21c.92,0,1.65-.75,1.65-1.67v-52.4c0-.32-.13-.65-.36-.88ZM328.97,129.94c0,.65-.52,1.17-1.17,1.17h-9.21c-.65,0-1.17-.52-1.17-1.17v-52.4c0-.19.08-.39.23-.52.15-.15.32-.23.53-.23h10.02c.21,0,.39.08.53.23.15.13.23.32.23.52v52.4Z"/>
          <path class="cls-8" d="M329.36,76.4c-.31-.31-.71-.49-1.15-.49h-10.02c-.44,0-.84.18-1.15.49s-.47.71-.47,1.13v52.4c0,1.12.91,2.04,2.03,2.04h9.21c1.12,0,2.03-.92,2.03-2.04v-52.4c0-.42-.16-.83-.47-1.13ZM317.8,77.53c0-.1.03-.19.11-.26.08-.08.16-.11.28-.11h10.02c.1,0,.21.03.28.11.08.06.11.16.11.26v52.4c0,.44-.36.79-.79.79h-9.21c-.44,0-.79-.36-.79-.79v-52.4Z"/>
        </g>
        <rect class="cls-8" x="319.62" y="80.67" width="7.18" height="20.39" rx=".87" ry=".87"/>
        <path class="cls-8" d="M323.21,122.77c1.68,0,3.05-1.36,3.05-3.05s-1.36-3.05-3.05-3.05-3.05,1.36-3.05,3.05,1.36,3.05,3.05,3.05Z"/>
      </g>
      <g>
        <g>
          <path class="cls-8" d="M314.43,76.66c-.24-.24-.55-.37-.89-.37h-10.02c-.34,0-.65.13-.89.37-.23.23-.36.55-.36.88v52.4c0,.92.75,1.67,1.65,1.67h9.21c.92,0,1.67-.75,1.67-1.67v-52.4c0-.32-.13-.65-.37-.88ZM314.3,129.94c0,.65-.52,1.17-1.17,1.17h-9.21c-.65,0-1.17-.52-1.17-1.17v-52.4c0-.19.08-.39.23-.52.15-.15.34-.23.53-.23h10.02c.21,0,.39.08.53.23.15.13.23.32.23.52v52.4Z"/>
          <path class="cls-8" d="M314.69,76.4c-.31-.31-.71-.49-1.15-.49h-10.02c-.44,0-.84.18-1.15.49-.31.31-.47.71-.47,1.13v52.4c0,1.12.91,2.04,2.03,2.04h9.21c1.12,0,2.03-.92,2.03-2.04v-52.4c0-.42-.16-.84-.47-1.13ZM303.13,77.53c0-.1.05-.19.11-.26.08-.08.18-.11.28-.11h10.02c.11,0,.21.03.28.11.08.06.11.16.11.26v52.4c0,.44-.36.79-.79.79h-9.21c-.44,0-.79-.36-.79-.79v-52.4Z"/>
        </g>
        <rect class="cls-8" x="304.95" y="80.67" width="7.18" height="20.39" rx=".87" ry=".87"/>
        <path class="cls-8" d="M308.54,122.77c1.68,0,3.05-1.36,3.05-3.05s-1.36-3.05-3.05-3.05-3.05,1.36-3.05,3.05,1.36,3.05,3.05,3.05Z"/>
      </g>
    </g>
    <rect class="cls-24" x="0" y="26.43" width="52.92" height="213.53"/>
    <rect class="cls-8" x="-3.19" y="229.29" width="352.48" height="136.82"/>
    <path class="cls-7" d="M271.17,235.66c-.02.12-.03.23-.03.35,0,.06.09.06.1,0,0-.12-.01-.23-.03-.35,0-.02-.04-.02-.04,0h0Z"/>
    <g>
      <g>
        <g>
          <path class="cls-24" d="M346.1,199.93h-100.86c-.52,0-1.04.2-1.45.6-.4.4-.6.92-.6,1.45v20.44c0,.52.2,1.05.6,1.45.4.4.93.6,1.45.6h100.86v-24.53Z"/>
          <rect class="cls-8" x="256.01" y="206.44" width="32.79" height="11.55" rx="1.01" ry="1.01"/>
        </g>
        <g>
          <path class="cls-23" d="M255.11,197.4h17.55v-19.69h-17.55c1.12,7.74.88,14.05,0,19.69Z"/>
          <g>
            <path class="cls-25" d="M255.59,193.52h15.7v1.92h-15.91c.08-.63.15-1.27.21-1.92Z"/>
            <path class="cls-25" d="M255.85,186.65h15.44v1.92h-15.44c0-.63,0-1.27,0-1.92Z"/>
            <path class="cls-25" d="M271.3,190.08v1.92h-15.59c.04-.63.08-1.27.1-1.92h15.48Z"/>
            <path class="cls-25" d="M271.3,183.21v1.92h-15.49c-.03-.63-.05-1.26-.1-1.92h15.59Z"/>
            <path class="cls-25" d="M271.3,179.77v1.91h-15.72c-.06-.63-.12-1.27-.2-1.91h15.92Z"/>
          </g>
          <path class="cls-9" d="M253.41,176.68c0,.71.92,1.28,2.04,1.28h18.39c1.12,0,2.04-.57,2.04-1.28s-.92-1.28-2.04-1.28h-18.39c-1.13,0-2.04.58-2.04,1.28Z"/>
          <path class="cls-9" d="M253.41,198.68c0,.7.92,1.28,2.04,1.28h18.39c1.12,0,2.04-.58,2.04-1.28s-.92-1.28-2.04-1.28h-18.39c-1.13,0-2.04.58-2.04,1.28Z"/>
          <rect class="cls-11" x="270.79" y="175.4" width="75.31" height="24.53"/>
          <path class="cls-9" d="M271.3,175.4c.52,0,1.05.2,1.45.6.4.4.6.92.6,1.45v20.43c0,.53-.2,1.05-.6,1.45-.4.4-.92.6-1.45.6h-.51v-24.53h.51Z"/>
          <path class="cls-16" d="M286.53,187.69c0,3.43,2.78,6.21,6.21,6.21s6.21-2.78,6.21-6.21-2.78-6.21-6.21-6.21-6.21,2.78-6.21,6.21Z"/>
        </g>
        <g>
          <path class="cls-6" d="M346.1,151.05h-105.13c-.52,0-1.04.2-1.44.6-.4.4-.6.92-.6,1.45v20.44c0,.52.2,1.04.6,1.45.4.4.92.6,1.44.6h105.13v-24.53Z"/>
          <rect class="cls-8" x="258.13" y="157.56" width="32.78" height="11.55" rx="1.01" ry="1.01"/>
        </g>
        <g>
          <path class="cls-13" d="M346.1,224.21h-106.23c-.52,0-1.05.2-1.44.6-.4.4-.6.92-.6,1.45v20.44c0,.52.21,1.04.6,1.45.4.4.92.6,1.44.6h106.23v-24.53Z"/>
          <rect class="cls-8" x="250.64" y="230.72" width="32.8" height="11.55" rx="1.01" ry="1.01"/>
        </g>
      </g>
      <g>
        <path class="cls-17" d="M341.48,246.78h-102.58c-.1,0-.17-.08-.17-.17s.08-.17.17-.17h102.58c.1,0,.17.08.17.17s-.08.17-.17.17Z"/>
        <path class="cls-16" d="M341.48,247.15h-102.58c-.3,0-.54-.24-.54-.54s.24-.54.54-.54h102.58c.3,0,.54.24.54.54s-.24.54-.54.54Z"/>
      </g>
      <g>
        <path class="cls-17" d="M342.13,222h0c-19.51-.02-77.63-.02-97.17,0h0c-.1,0-.17-.08-.17-.17,0-.1.08-.17.17-.17,19.54-.02,77.66-.02,97.17,0,.1,0,.17.08.17.17,0,.1-.08.17-.17.17Z"/>
        <path class="cls-16" d="M342.13,222.37h0c-19.51-.02-77.63-.02-97.17,0-.3,0-.54-.24-.54-.54s.24-.54.54-.54c19.54-.02,77.66-.02,97.17,0,.3,0,.54.24.54.54s-.24.54-.54.54Z"/>
      </g>
      <g>
        <path class="cls-17" d="M342.13,198.09h0c-11.39-.03-60.41-.03-71.86,0h0c-.1,0-.17-.08-.17-.17,0-.1.08-.17.17-.17,11.45-.03,60.48-.03,71.86,0,.1,0,.17.08.17.17,0,.1-.08.17-.17.17Z"/>
        <path class="cls-16" d="M342.13,198.46h0c-11.39-.03-60.41-.03-71.86,0-.3,0-.54-.24-.54-.54s.24-.54.54-.54c11.45-.03,60.48-.03,71.86,0,.3,0,.54.24.54.54s-.24.54-.54.54Z"/>
      </g>
      <g>
        <path class="cls-17" d="M342.14,173.83h0c-19.14-.05-76.23-.05-95.44,0h0c-.1,0-.17-.08-.17-.17,0-.1.08-.17.17-.17,19.22-.05,76.31-.05,95.45,0,.1,0,.17.08.17.17,0,.1-.08.17-.17.17Z"/>
        <path class="cls-16" d="M342.14,174.2h0c-19.14-.05-76.23-.05-95.44,0-.3,0-.54-.24-.54-.54s.24-.54.54-.54c19.21-.05,76.31-.05,95.45,0,.3,0,.54.24.54.54s-.24.54-.54.54Z"/>
      </g>
    </g>
    <g>
      <g>
        <path class="cls-8" d="M49.44,58.27v-27.38c0-.17-.14-.31-.31-.31H.02c-.03.2.03.41,0,.61h48.8v27H.02c-.01.2.01.41,0,.61h48.8v29.8H.02s0,.03,0,.04c-.02.1,0,.21,0,.31,0,.09,0,.18,0,.27h0s0,.03,0,.04h48.8v27H.02c-.01.2.01.41,0,.61h48.8v29.8H.02c0,.2,0,.41,0,.61h48.8v91.44h.61v-91.51c.15-.12.15-.35,0-.47v-29.94c.15-.12.15-.35,0-.47v-27.18c.15-.12.15-.35,0-.47v-29.94c.15-.12.15-.35,0-.47Z"/>
        <path class="cls-8" d="M49.92,88.93c0-.15-.05-.28-.11-.39v-29.66c.06-.11.11-.24.11-.37s-.05-.26-.11-.37v-27.25c0-.37-.31-.66-.68-.66H0v1.35h48.45v26.26H-.32l-.03.36v.34c.02.1.02.18,0,.28l-.02.39h48.82v29.06H0l-.34-.03v.37c-.03.15-.02.29-.02.37v.28l-.06.41h48.87v26.26H-.32l-.03.34v.34c.02.1.02.19,0,.28l-.02.39h48.82v29.06H-.36v.39c.02.1,0,.19,0,.29v.31l.02.37h48.79v91.43h1.36v-91.74c.06-.11.11-.24.11-.37s-.05-.26-.11-.37v-29.66c.06-.11.11-.24.11-.37,0-.15-.05-.28-.11-.39v-26.89c.06-.11.11-.24.11-.37ZM49.21,58.46l-.02.02v-.03l.02.02ZM49.19,146.92l.02.02-.02.02v-.03Z"/>
      </g>
      <g>
        <path class="cls-8" d="M53.07,25.77H.02c-.04.2.04.41,0,.61h52.74v212.35h.61V26.08c0-.17-.14-.31-.31-.31Z"/>
        <path class="cls-8" d="M53.75,26.07v213.03h-1.36V26.75H0v-1.35h53.07c.37,0,.68.29.68.66Z"/>
      </g>
      <g>
        <path class="cls-8" d="M16.97,70.77h-8.91c-1.52,0-2.77,1.25-2.77,2.77s1.25,2.77,2.77,2.77h8.91c1.52,0,2.76-1.25,2.76-2.77s-1.23-2.77-2.76-2.77ZM16.97,75.7h-8.91c-1.18,0-2.16-.97-2.16-2.16s.97-2.16,2.16-2.16h8.91c1.18,0,2.14.97,2.14,2.16s-.96,2.16-2.14,2.16Z"/>
        <path class="cls-8" d="M16.97,70.42h-8.91c-1.73,0-3.13,1.39-3.13,3.13s1.39,3.13,3.13,3.13h8.91c1.72,0,3.13-1.39,3.13-3.13s-1.41-3.13-3.13-3.13ZM16.97,75.33h-8.91c-.99,0-1.78-.79-1.78-1.78s.79-1.78,1.78-1.78h8.91c.97,0,1.78.79,1.78,1.78s-.81,1.78-1.78,1.78Z"/>
      </g>
      <g>
        <path class="cls-8" d="M16.97,40.51h-8.91c-1.52,0-2.77,1.25-2.77,2.77s1.25,2.77,2.77,2.77h8.91c1.52,0,2.76-1.25,2.76-2.77s-1.23-2.77-2.76-2.77ZM16.97,45.44h-8.91c-1.18,0-2.16-.97-2.16-2.16s.97-2.16,2.16-2.16h8.91c1.18,0,2.14.97,2.14,2.16s-.96,2.16-2.14,2.16Z"/>
        <path class="cls-8" d="M16.97,40.16h-8.91c-1.73,0-3.13,1.39-3.13,3.13s1.39,3.13,3.13,3.13h8.91c1.72,0,3.13-1.39,3.13-3.13s-1.41-3.13-3.13-3.13ZM16.97,45.07h-8.91c-.99,0-1.78-.79-1.78-1.78s.79-1.78,1.78-1.78h8.91c.97,0,1.78.79,1.78,1.78s-.81,1.78-1.78,1.78Z"/>
      </g>
      <g>
        <path class="cls-8" d="M16.97,128.85h-8.91c-1.52,0-2.77,1.23-2.77,2.76s1.25,2.77,2.77,2.77h8.91c1.52,0,2.76-1.23,2.76-2.77s-1.23-2.76-2.76-2.76ZM16.97,133.76h-8.91c-1.18,0-2.16-.96-2.16-2.16s.97-2.14,2.16-2.14h8.91c1.18,0,2.14.96,2.14,2.14s-.96,2.16-2.14,2.16Z"/>
        <path class="cls-8" d="M16.97,128.48h-8.91c-1.73,0-3.13,1.41-3.13,3.13s1.39,3.14,3.13,3.14h8.91c1.72,0,3.13-1.41,3.13-3.14s-1.41-3.13-3.13-3.13ZM16.97,133.39h-8.91c-.99,0-1.78-.79-1.78-1.78s.79-1.77,1.78-1.77h8.91c.97,0,1.78.79,1.78,1.77s-.81,1.78-1.78,1.78Z"/>
      </g>
      <g>
        <path class="cls-8" d="M16.97,98.59h-8.91c-1.52,0-2.77,1.23-2.77,2.76s1.25,2.77,2.77,2.77h8.91c1.52,0,2.76-1.25,2.76-2.77s-1.23-2.76-2.76-2.76ZM16.97,103.5h-8.91c-1.18,0-2.16-.96-2.16-2.16s.97-2.14,2.16-2.14h8.91c1.18,0,2.14.96,2.14,2.14s-.96,2.16-2.14,2.16Z"/>
        <path class="cls-8" d="M16.97,98.21h-8.91c-1.73,0-3.13,1.41-3.13,3.13s1.39,3.14,3.13,3.14h8.91c1.72,0,3.13-1.41,3.13-3.14s-1.41-3.13-3.13-3.13ZM16.97,103.13h-8.91c-.99,0-1.78-.79-1.78-1.78s.79-1.78,1.78-1.78h8.91c.97,0,1.78.81,1.78,1.78s-.81,1.78-1.78,1.78Z"/>
      </g>
    </g>
    <ellipse class="cls-24" cx="43.8" cy="249.81" rx="7.71" ry="25.22" transform="translate(-207.76 282.06) rotate(-87.36)"/>
    <g>
      <path class="cls-16" d="M71.26,189.2c-9.49-7.48-36.53-6.16-43.04,0-.8,6.72,39.36,11.6,43.04,0Z"/>
      <path class="cls-26" d="M44.63,239.76l-24.6-79.32c.94-.79,2.75-1.42,4.3-1.33l24.6,79.32-4.3,1.33Z"/>
      <path class="cls-13" d="M47.51,233.65l-10.76-76.82c.79-.63,2.92-1.06,4.46-.62l10.76,76.82-4.46.62Z"/>
      <path class="cls-6" d="M43.54,237.08l-18.02-81.07c1.01-.86,3.14-1.55,4.4-.98l18.02,81.07-4.4.98Z"/>
      <path class="cls-11" d="M28.26,189.78l3.75,58.05c.18,3.14,2.2,5.87,5.15,6.97,7.08,2.64,18.34,1.98,25.39-.47,3.04-1.06,5.15-3.85,5.31-7.07l3.4-58.06c-3.57,11.26-41.54,6.99-43.01.58Z"/>
      <g>
        <path class="cls-17" d="M36.23,245.39c-.07,0-.13-.05-.13-.12l-3-43.71c0-.07.05-.14.12-.14.07,0,.14.05.14.12l3,43.71c0,.07-.05.14-.12.14,0,0,0,0,0,0Z"/>
        <path class="cls-16" d="M36.25,245.76h-.02c-.26,0-.48-.2-.5-.47l-3-43.71c-.02-.28.19-.52.47-.54.24,0,.51.19.53.46l3,43.71c0,.13-.03.26-.12.36s-.21.16-.35.17h-.01Z"/>
      </g>
    </g>
    <g>
      <g>
        <path class="cls-6" d="M162.93,197.99l-2.8,39.4c-.32,2.49-1.67,4.72-3.71,6.17l-11.2,7.91h70.41l-11.2-7.91c-2.05-1.45-3.4-3.68-3.71-6.17l-2.8-39.4h-34.98Z"/>
        <polygon class="cls-8" points="198.48 202.41 197.91 197.99 162.93 197.99 162.37 202.41 198.48 202.41"/>
        <path class="cls-6" d="M145.83,254.47c-.74,0-1.35-.6-1.35-1.35v-.46c0-.74.6-1.35,1.35-1.35h69.19c.74,0,1.35.6,1.35,1.35v.46c0,.74-.6,1.35-1.35,1.35h-69.19Z"/>
        <g>
          <path class="cls-8" d="M215.02,251.5h-69.19c-.1,0-.18-.08-.18-.18s.08-.18.18-.18h69.19c.1,0,.18.08.18.18s-.08.18-.18.18Z"/>
          <path class="cls-8" d="M215.02,251.87h-69.19c-.3,0-.55-.25-.55-.55s.25-.55.55-.55h69.19c.3,0,.55.25.55.55s-.25.55-.55.55Z"/>
        </g>
      </g>
      <g>
        <path class="cls-15" d="M282.29,64.52c-.13-.92-.47-1.77-.99-2.48-1.04-1.51-2.77-2.48-4.73-2.48H84.27c-3.19,0-5.77,2.59-5.77,5.79v130.67c0,3.19,2.58,5.79,5.77,5.79h192.3c1.67,0,3.19-.71,4.23-1.86.42-.44.76-.92,1-1.47.06-.13.11-.26.16-.39.05-.11.1-.23.13-.34.03-.13.06-.24.1-.37.11-.44.16-.89.16-1.35V65.34c0-.28-.02-.55-.06-.83ZM274.69,191.3c0,.1-.02.19-.03.29,0,.06-.02.13-.05.19-.03.13-.08.26-.16.37-.03.08-.08.15-.13.19-.03.06-.08.1-.13.15-.06.06-.15.13-.23.18-.18.13-.37.21-.58.26h-.03c-.1.02-.21.03-.31.03H87.82c-.92,0-1.67-.75-1.67-1.67v-122.7c0-.11.02-.23.03-.32.06-.32.23-.62.45-.83.06-.06.13-.13.19-.16.15-.11.32-.19.5-.24.06-.03.13-.05.19-.05.1-.02.19-.03.29-.03h185.22c.92,0,1.65.73,1.65,1.64v122.7Z"/>
        <path class="cls-15" d="M274.69,68.61v122.7c0,.91-.74,1.66-1.66,1.66H87.81c-.91,0-1.66-.75-1.66-1.66v-122.7c0-.91.75-1.65,1.66-1.65h185.21c.92,0,1.66.74,1.66,1.65Z"/>
      </g>
      <path class="cls-8" d="M274.69,68.61v122.7c0,.91-.74,1.66-1.66,1.66H87.81c-.91,0-1.66-.75-1.66-1.66v-122.7c0-.91.75-1.65,1.66-1.65h185.21c.92,0,1.66.74,1.66,1.65Z"/>
      <path class="cls-8" d="M273.15,66.95h-127.22v126.02h127.22c.85,0,1.54-.69,1.54-1.54v-122.93c0-.85-.69-1.54-1.54-1.54Z"/>
      <path class="cls-22" d="M211.49,119.42c-35.39,17.6-74.22,1.54-72.3,73.55h133.96c.85,0,1.54-.69,1.54-1.54v-50.03c-2.82-21.59-38.96-34.03-63.2-21.97Z"/>
      <path class="cls-8" d="M180.42,61.58c-1.1,0-1.99.89-1.99,1.99s.89,1.99,1.99,1.99,2.01-.89,2.01-1.99-.91-1.99-2.01-1.99Z"/>
      <g>
        <path class="cls-6" d="M99.2,110.54l-3.09.86c-.47.13-.96-.14-1.1-.62l-8.86-37.85v-4.42c0-.87.7-1.57,1.57-1.57h1.93l10.16,42.49c.13.47-.14.96-.62,1.1Z"/>
        <path class="cls-13" d="M103.46,110.49l-2.43.68c-.37.1-.78-.19-.91-.67l-10.46-43.55h4.08l10.16,42.49c.13.47-.06.94-.43,1.04Z"/>
        <path class="cls-12" d="M108.38,110.54l-3.09.86c-.47.13-.96-.14-1.1-.62l-10.54-43.84h5.18l10.16,42.49c.13.47-.14.96-.62,1.1Z"/>
        <path class="cls-6" d="M112.9,110.5l-2.58.72c-.4.11-.82-.18-.95-.66l-10.59-43.61h4.32l10.27,42.49c.13.47-.08.95-.47,1.06Z"/>
        <path class="cls-13" d="M117.86,110.54l-3.09.86c-.47.13-.96-.14-1.09-.62l-10.54-43.84h5.18l10.16,42.49c.13.47-.14.96-.62,1.1Z"/>
        <path class="cls-6" d="M122.96,110.54l-3.09.86c-.47.13-.96-.14-1.1-.62l-10.54-43.84h5.18l10.16,42.49c.13.47-.14.96-.62,1.1Z"/>
      </g>
      <polygon class="cls-6" points="142.39 111.39 86.16 111.39 86.16 114.86 142.39 114.86 142.39 176.31 145.91 176.31 145.91 67.08 142.39 67.08 142.39 111.39"/>
      <g>
        <polygon class="cls-22" points="261.9 106.46 236.46 106.46 236.65 75.74 262.1 75.74 261.9 106.46"/>
        <polygon class="cls-22" points="258.77 103.42 239.63 103.42 239.78 78.78 258.92 78.78 258.77 103.42"/>
      </g>
      <path class="cls-20" d="M84.92,195.33c63.98-.46,127.96-.92,191.95-1.39-.28-42.53-.55-85.06-.83-127.59-62.55.2-125.11.4-187.66.61h-3.17c-.09,42.79-.19,85.58-.28,128.38Z"/>
      <path class="cls-21" d="M159.99,145l-5.83,47.97h94.67l4.5-37.03c.71-5.82-.27-11.09-9.69-10.94h-83.65Z"/>
      <g>
        <path class="cls-14" d="M239.68,192.87s-.01,0-.02,0c-.08,0-.13-.08-.12-.15l5.09-41.47c.21-1.75,1.21-3.37,2.81-4.55.06-.05.15-.03.19.03.05.06.03.15-.03.19-1.54,1.14-2.49,2.68-2.7,4.36l-5.09,41.47c0,.07-.07.12-.14.12Z"/>
        <path class="cls-14" d="M239.68,193.24h-.09c-.25-.04-.45-.29-.42-.57l5.09-41.47c.22-1.85,1.27-3.56,2.95-4.8.23-.16.55-.12.71.1.17.23.12.55-.1.71-1.46,1.08-2.36,2.53-2.55,4.11l-5.09,41.47c-.03.26-.25.45-.5.45Z"/>
      </g>
      <g>
        <path class="cls-17" d="M213.87,165.42s-.06-.05-.1-.05l-16.74-.11c-.08,0-.13.05-.15.11-.02.13-1.22,12.79-1.22,15.67,0,.42.63,1.17,3.63,2.37,1.83.73,3.92,1.35,4.75,1.41h.13c1.85,0,8.36-2.35,9-3.47.62-1.1.73-15.24.75-15.84,0-.05-.02-.08-.05-.1ZM212.93,181.22c-.26.44-1.88,1.28-4.07,2.09-2.11.78-4.08,1.28-4.78,1.23-1.7-.13-8.14-2.46-8.14-3.5,0-2.72,1.09-14.18,1.22-15.51l16.47.11c-.03,4.18-.23,14.72-.7,15.58Z"/>
        <path class="cls-29" d="M214.13,165.14c-.1-.08-.21-.15-.36-.15l-16.74-.11c-.26,0-.49.19-.52.47-.11,1.31-1.22,12.9-1.22,15.69,0,.5.41,1.33,3.86,2.71,1.91.75,4,1.38,4.86,1.44h.16c1.86,0,8.59-2.35,9.3-3.66.65-1.15.78-13.55.79-16.01,0-.13-.05-.26-.15-.37ZM212.61,181.04c-.15.26-1.44,1.02-3.86,1.91-2.32.86-4.1,1.23-4.65,1.22-1.77-.13-7.52-2.35-7.78-3.13,0-2.54.96-12.84,1.17-15.14l15.77.11c-.06,6.94-.32,14.36-.65,15.03Z"/>
      </g>
      <circle class="cls-8" cx="205.05" cy="168.45" r="1.09" transform="translate(-24.34 35.02) rotate(-9.22)"/>
      <g>
        <g>
          <path class="cls-29" d="M216.74,124.66c-3.67-8.68-6.61-27.55-7.52-33.87-.15-3.11-1.04-5.68-2.44-7.75-3.93-5.77-11.54-6.6-12.88-6.75-8.5-.95-19.51,3.15-21.89,11.29-.87,2.96-.37,5.71.13,7.47l-10.64,55.87s65.74,9.04,66.95,4.86c2.91-9.34-7.27-20.63-11.72-31.13Z"/>
          <path class="cls-12" d="M128.86,192.97h118.2s-13.2-42.12-23.98-50.75c-3.65-2.92-12.08-4.94-18.34-9.03-3.58-2.34-6.58,2.12-6.58,2.12l-18.59,2.56s-2.66-5.24-5.99-3.37c-6.63,3.71-12.81,4.86-18.21,9.71-9.3,8.35-18.4,35.14-26.5,48.77Z"/>
          <g>
            <path class="cls-17" d="M151.94,193.38s-.02,0-.03,0c-.08-.02-.12-.09-.11-.16l6.25-30.97c-.38-.88-.82-7.87-.9-9.29,0-.08.05-.14.13-.15.08,0,.14.05.15.13.2,3.37.62,8.84.88,9.21.02.03.03.07.02.11l-6.26,31.01c-.01.07-.07.11-.14.11Z"/>
            <path class="cls-29" d="M158.63,161.96c-.08-.21-.21-1.26-.36-2.82v-.02c-.16-1.65-.32-3.87-.47-6.22-.02-.13-.08-.26-.18-.34-.1-.1-.24-.13-.37-.13-.13.02-.26.06-.34.18-.1.1-.15.23-.13.36.15,2.45.52,8.09.89,9.3l-6.21,30.7-.03.16c-.05.28.13.55.44.62h.06c.24,0,.45-.18.5-.41l.08-.37,4.13-20.52,2.04-10.13c.03-.13,0-.28-.06-.36Z"/>
          </g>
          <g>
            <path class="cls-17" d="M220.2,192.75c-.06,0-.12-.04-.14-.11-.08-.36-.14-3.63-.24-8.57-.12-6.41-.29-15.18-.6-22.93,0,0,0-.01,0-.02.04-.46.93-11.35,2.39-13.54.04-.06.13-.08.19-.04.06.04.08.13.04.19-1.4,2.11-2.31,13.04-2.34,13.4.31,7.75.48,16.52.6,22.93.09,4.75.16,8.18.23,8.52.02.07-.03.15-.11.17-.01,0-.02,0-.03,0Z"/>
            <path class="cls-29" d="M222.16,147.94c.16-.24.1-.55-.15-.71-.23-.15-.53-.08-.7.15-.94,1.41-1.64,6-2.03,9.5-.24,2.07-.39,3.76-.42,4.18l-.02.05v.05c.32,7.76.49,16.53.62,22.97.1,5.69.16,8.22.24,8.61.02.1.06.18.15.24.08.1.21.15.34.15l.11-.02c.1-.02.18-.06.24-.13.03-.02.06-.05.08-.08.08-.11.1-.26.06-.39-.06-.34-.13-4.1-.23-8.44-.11-6.39-.29-15.16-.6-22.89.08-1,.24-2.56.44-4.28.42-3.57,1.09-7.78,1.85-8.95Z"/>
          </g>
          <path class="cls-8" d="M179.7,128.44c-1.35,1.29-5.93,5.88-5.93,5.88,0,0-2.43,10.42-2.83,17.69,2.96-2.16,8.49-5.39,8.49-5.39l8.76,4.18,7.95-5.12s8.08,2.29,10.51,5.52c.94-8.22-1.62-18.05-1.62-18.05l-6.65-8.17c-6.97-3.26-12.55-2.4-18.68,3.46Z"/>
          <path class="cls-4" d="M177.27,115.64c.87-.08,1.56,7.58,1.45,14.18-.19,11.59,6.98,20.19,9.53,20.92,2.87-2.18,11.65-12.2,10.67-25.07-.99-4.06-1.24-12.45-2.25-17.8l-19.4,7.77Z"/>
          <path class="cls-22" d="M178.51,121.92c6.31,15.09,19.06,0,15.83-13.12-1.62-1.97-17.07,6.83-17.07,6.83.52-.05.98,2.68,1.24,6.29Z"/>
          <g>
            <path class="cls-17" d="M186.87,180.44s0,0-.01,0c-.08,0-.13-.07-.13-.15,1.16-13.58,2.51-29.08,2.53-29.23,0-.08.07-.13.15-.13.08,0,.13.07.13.15-.01.15-1.37,15.65-2.53,29.23,0,.07-.07.13-.14.13Z"/>
            <path class="cls-29" d="M189.45,150.57c-.28-.03-.54.18-.55.45l-.05.49c-.05.53-.13,1.49-.24,2.79-.47,5.28-1.41,16.13-2.24,25.97-.03.28.18.52.49.55h.02c.26,0,.49-.21.5-.47.83-9.71,1.78-20.62,2.25-25.93.16-2.03.28-3.24.28-3.29.02-.29-.18-.53-.45-.55Z"/>
          </g>
          <g>
            <path class="cls-8" d="M186.54,159.91c-.06.58-.52,1.01-1.02.96-.5-.05-.87-.56-.81-1.14.06-.58.52-1.01,1.02-.96s.87.56.81,1.14Z"/>
            <path class="cls-8" d="M185.36,168.8c-.11.57-.61.96-1.1.86-.5-.1-.81-.64-.7-1.21.11-.57.61-.96,1.1-.86.5.1.81.64.7,1.21Z"/>
            <path class="cls-8" d="M184.46,177.14c-.03.58-.47,1.03-.98,1-.51-.03-.89-.53-.85-1.11s.47-1.03.98-1c.51.03.89.53.85,1.11Z"/>
          </g>
          <path class="cls-4" d="M171.63,91.46c-.06.18-.13.35-.18.54-1,3.07-.88,5.27-.88,8.92,0,2.95-.97,5.8-.24,9.35,1.67,8.11,6.68,13.59,13.3,13.59,8.42,0,17.7-10.76,18.4-22.31-2.66.69-3.5-5.27-6.5-8.95-4.13-5.07-7.14-10.1-7.14-10.1-4.92,4.02-12.6,4.77-16.76,8.96Z"/>
          <path class="cls-8" d="M178.27,111.38l11.45-1.32s-1.56,3.51-5.75,4.09c-3.72.52-5.7-2.78-5.7-2.78Z"/>
          <path class="cls-4" d="M200.04,101.36s4.97-5.86,7.34-2.9c2.61,3.26-1.39,10.39-6.22,10.24-4.82-.15-1.12-7.35-1.12-7.35Z"/>
          <g class="cls-28">
            <path class="cls-11" d="M177.28,104.23c0,.87-1.54,1.58-3.43,1.58s-3.43-.71-3.43-1.58,1.54-1.58,3.43-1.58,3.43.71,3.43,1.58Z"/>
          </g>
          <g class="cls-28">
            <path class="cls-11" d="M197.08,104.07c0,.96-1.78,1.75-3.98,1.75s-3.98-.78-3.98-1.75,1.78-1.75,3.98-1.75,3.98.78,3.98,1.75Z"/>
          </g>
          <path class="cls-5" d="M179.28,93.5c-1.5.03-4.76.43-6.23,3.15,0,0,3.37-1.6,6.19-1.43.54.03.97-.43.91-.97h0c-.06-.44-.43-.76-.87-.75Z"/>
          <path class="cls-5" d="M187.22,93.32c1.66.04,5.28.48,6.91,3.5,0,0-3.74-1.78-6.88-1.59-.6.04-1.08-.48-1.01-1.08h0c.06-.48.48-.85.97-.83Z"/>
          <path class="cls-11" d="M182.55,108.12c-.58,0-1.21-.15-1.91-.45-.19-.08-.3-.28-.28-.49.44-1.37.84-3.09.97-5.1.05-.86.05-1.66,0-2.39.03-.25.27-.44.52-.4.26.03.44.27.4.52.1.89.16,1.98.05,3.21-.13,1.55-.47,2.84-.8,3.82.67.31,1.14.29,1.46.21.33-.08.89-.33,1.23-.17.04.02.08.05.12.1.12.17.06.52-.13.65-.49.33-1.03.5-1.64.5Z"/>
          <g>
            <path class="cls-16" d="M178.37,99.26c.02,1.13-.4,2.05-.93,2.06-.53,0-.98-.9-1-2.02-.02-1.13.4-2.05.93-2.06.53,0,.98.9,1,2.02Z"/>
            <path class="cls-16" d="M189,99.26c-.02,1.23.43,2.23,1.01,2.24.58,0,1.07-.98,1.09-2.21.02-1.23-.43-2.23-1.01-2.24-.58-.01-1.07.98-1.09,2.21Z"/>
          </g>
        </g>
        <path class="cls-10" d="M183.94,124.19c-.16,0-.33,0-.5,0-2.32-.1-4.64-.87-6.71-2.24-.15-.1-.19-.3-.09-.45.1-.15.3-.19.45-.09,1.97,1.3,4.18,2.04,6.38,2.13.16,0,.32.01.47.01,7.09,0,11.52-6.64,11.71-6.93.1-.15.3-.19.45-.09.15.1.19.3.09.45-.2.3-4.82,7.22-12.25,7.22Z"/>
        <g>
          <path class="cls-3" d="M208.24,97.48c3.48,1.9,4.8,7.13,2.95,11.7-1.85,4.56-6.16,6.72-9.64,4.83-3.48-1.9-4.8-7.13-2.95-11.7,1.85-4.56,6.16-6.72,9.64-4.83"/>
          <path class="cls-2" d="M209.49,98.04c3.48,1.9,4.8,7.13,2.95,11.7-1.85,4.56-6.16,6.72-9.64,4.83-3.48-1.9-4.8-7.13-2.95-11.7,1.22-3,3.5-4.97,5.91-5.42h0s-.82-.62-.82-.62c.33-10.17-7.78-20.25-19.9-19.83,6.89-4.37,22.64,2.34,23.21,20.48h-.27c.51.11,1.02.29,1.51.56"/>
          <path class="cls-16" d="M191.77,119.04c5.02-1.26,7.58-4.02,8.94-5.69l-.38-.9c-2.24,2.65-4.76,4.99-8.78,5.65-1.17-.82-3.18.11-2.83,1.24.32,1.03,2.18,1.37,3.05-.3"/>
          <path class="cls-1" d="M208.76,100.64c1.66-.03,3.04,1.93,3.08,4.37.04,2.44-1.28,4.44-2.94,4.47-1.66.03-3.04-1.93-3.08-4.37-.04-2.44,1.28-4.44,2.94-4.47"/>
        </g>
      </g>
      <g>
        <g>
          <path class="cls-4" d="M140.3,192.92l-14.75-44.51c.21-2-.13-4.94-2.12-8.9-1.11-2.2-3.36-5.22-3.6-5.94-.56-1.71-1.3-3.83-1.75-6.27-.96-.06-2.54,1.94-2.22,5.83.11,1.31,1.48,3.64,1.51,5.32-.58-.2-2.35-1.03-2.65-1.15-.49-.21-2.42-.83-4.67-2.2-3.39-2.07-8.35-6.05-9.2-6.39-3.3-1.32-1.43,2.28-.06,3.57.17.16-2.92-2.14-3.51-1.07-.95,1.71,3.61,5.65,5.27,7.38-2.68-2.4-4.38-2.18-4.25-1.19.2,1.63,3.66,4.4,5.58,6.09-1.55-1.21-3.43-1.65-2.54.1,1.23,2.44,7.32,8.7,10.79,11.63,1.35,1.14,2.69,1.94,3.98,2.46l2.31,35.24h21.9Z"/>
          <g>
            <path class="cls-17" d="M111.46,140.43s-.05,0-.08-.02c-1.03-.69-2.01-1.27-2.8-1.73-.51-.3-.92-.54-1.17-.71-.27-.19-.91-.72-1.71-1.39-1.61-1.35-3.82-3.2-5.11-3.98-.07-.04-.09-.13-.05-.19.04-.07.13-.09.19-.05,1.32.8,3.53,2.65,5.15,4.01.8.67,1.43,1.19,1.69,1.38.24.17.64.4,1.15.7.75.44,1.78,1.04,2.81,1.74.06.04.08.13.04.19-.03.04-.07.06-.12.06Z"/>
            <path class="cls-11" d="M111.95,140.2c-.03-.11-.06-.21-.15-.26-.02-.03-.05-.05-.06-.06-.06-.05-.11-.08-.18-.11-.11-.08-.21-.15-.32-.23-.86-.57-1.69-1.05-2.35-1.43-.49-.29-.88-.52-1.1-.68-.24-.16-.89-.7-1.67-1.35-1.62-1.36-3.84-3.23-5.19-4.04-.13-.08-.29-.1-.42-.03-.03-.02-.06,0-.1.03-.06.03-.13.08-.18.16-.15.24-.06.55.16.7,1.28.78,3.47,2.61,5.09,3.97.84.7,1.44,1.2,1.72,1.39.24.18.65.41,1.18.73.75.42,1.64.96,2.59,1.59.06.05.13.08.19.13l.13.06.05.02h.1c.06,0,.11-.02.16-.05.11-.02.19-.08.28-.18.06-.11.1-.24.06-.37Z"/>
          </g>
          <g>
            <path class="cls-17" d="M110.78,144.87s-.05,0-.07-.02c-1.18-.75-8.08-5.89-8.37-6.11-.06-.05-.07-.13-.03-.19.05-.06.13-.07.19-.03.07.05,7.18,5.35,8.35,6.09.06.04.08.13.04.19-.03.04-.07.06-.12.06Z"/>
            <path class="cls-11" d="M111.06,144.3s-.03-.03-.06-.03c-.06-.05-.16-.11-.28-.19-.1-.06-.21-.15-.34-.23-2.12-1.49-7.59-5.58-7.65-5.62-.18-.13-.41-.13-.57,0h-.02s0,.02-.02.03c-.05,0-.08.03-.11.08-.16.21-.13.53.11.73,1.15.84,6.66,4.94,8.17,5.95.08.06.16.11.21.15l.16.08h.11c.06,0,.13-.02.18-.05.1-.02.18-.1.24-.19.16-.23.08-.55-.15-.7Z"/>
          </g>
          <g>
            <path class="cls-17" d="M110.41,148.67s-.06,0-.08-.03c-.52-.38-.95-.71-1.29-.98-1.61-1.28-4.94-3.67-4.98-3.69-.06-.04-.08-.13-.03-.19.04-.06.13-.08.19-.03.03.02,3.38,2.42,4.99,3.7.34.27.77.59,1.28.97.06.05.08.13.03.19-.03.04-.07.06-.11.06Z"/>
            <path class="cls-11" d="M110.71,148.12c-.5-.37-.92-.7-1.26-.96-1.35-1.09-3.91-2.93-4.99-3.71-.19-.13-.44-.13-.6.02-.05.02-.08.05-.11.1-.08.11-.11.24-.1.39.03.13.1.24.21.32.03.02,3.36,2.4,4.96,3.68.34.28.78.6,1.3.99l.19.1h.11c.16,0,.31-.08.41-.21.16-.23.11-.55-.11-.71Z"/>
          </g>
          <g>
            <path class="cls-17" d="M118.56,149.15s-.07-.01-.09-.04c-4.15-3.75-1.21-10.37-1.18-10.44.03-.07.11-.1.18-.07.07.03.1.11.07.18-.03.06-2.88,6.5,1.12,10.11.06.05.06.14,0,.2-.03.03-.07.05-.1.05Z"/>
            <path class="cls-11" d="M118.56,149.52c-.13,0-.25-.05-.34-.13-4.35-3.93-1.3-10.79-1.27-10.86.12-.26.42-.37.67-.25.26.12.37.42.26.67-.03.06-2.77,6.26,1.03,9.69.21.19.22.51.04.72-.1.11-.24.17-.38.17Z"/>
          </g>
          <g>
            <path class="cls-17" d="M118.74,158.44c-.78,0-1.7-.11-2.67-.5-.07-.03-.11-.11-.08-.18.03-.07.11-.11.18-.08,1.94.76,3.67.42,4.42.27.08-.02.15-.03.2-.04.08-.01.15.04.16.11.01.08-.04.15-.11.16-.05,0-.12.02-.2.04-.4.08-1.07.21-1.9.21Z"/>
            <path class="cls-11" d="M121.11,157.65c-.11-.1-.24-.13-.37-.1l-.23.05c-.71.13-2.37.45-4.2-.26-.13-.05-.28-.05-.39,0-.1.05-.16.11-.21.18-.03.03-.05.06-.06.1-.05.13-.05.28.02.41.05.11.15.21.28.26.06.03.13.05.19.06.83.32,1.69.47,2.61.47.88,0,1.59-.15,1.98-.23l.18-.03c.13-.02.26-.1.32-.21.08-.11.11-.24.1-.37-.02-.13-.1-.26-.21-.32Z"/>
          </g>
        </g>
        <g>
          <path class="cls-17" d="M110.82,145.54c-.07,0-.14-.06-.14-.13-.12-2.42,1.14-6.61,1.2-6.79.02-.07.1-.11.17-.09.07.02.12.1.09.17-.01.04-1.3,4.33-1.18,6.7,0,.08-.06.14-.13.15,0,0,0,0,0,0Z"/>
          <path class="cls-11" d="M110.84,145.91h-.02c-.27,0-.49-.21-.51-.48-.11-2.33.99-6.16,1.21-6.91.09-.28.37-.43.64-.35.27.08.42.37.34.63-.01.05-1.28,4.29-1.17,6.57,0,.14-.04.27-.13.37-.09.1-.22.16-.35.17h0Z"/>
        </g>
      </g>
      <path class="cls-6" d="M282.29,64.52c-.13-.92-.47-1.77-.99-2.48-1.04-1.51-2.77-2.48-4.73-2.48H84.27c-3.19,0-5.77,2.59-5.77,5.79v130.67c0,3.19,2.58,5.79,5.77,5.79h192.3c1.67,0,3.19-.71,4.23-1.86.42-.44.76-.92,1-1.47.06-.13.11-.26.16-.39.05-.11.1-.23.13-.34.03-.13.06-.24.1-.37.11-.44.16-.89.16-1.35V65.34c0-.28-.02-.55-.06-.83ZM274.69,191.3c0,.1-.02.19-.03.29,0,.06-.02.13-.05.19-.03.13-.08.26-.16.37-.03.08-.08.15-.13.19-.03.06-.08.1-.13.15-.06.06-.15.13-.23.18-.18.13-.37.21-.58.26h-.03c-.1.02-.21.03-.31.03H87.82c-.92,0-1.67-.75-1.67-1.67v-122.7c0-.11.02-.23.03-.32.06-.32.23-.62.45-.83.06-.06.13-.13.19-.16.15-.11.32-.19.5-.24.06-.03.13-.05.19-.05.1-.02.19-.03.29-.03h185.22c.92,0,1.65.73,1.65,1.64v122.7Z"/>
      <g>
        <g>
          <circle class="cls-6" cx="167.97" cy="185.07" r="3.6"/>
          <circle class="cls-8" cx="183.37" cy="185.07" r="3.6"/>
        </g>
        <path class="cls-8" d="M166.4,184.25c-.64.29-.58.95-.58.96v.51c0,.12.09.21.21.21h.86c.12,0,.21-.09.21-.21.02-.14-.08-.56.26-.88.2-.18.44-.26.68-.25.99.03.88,1.14.88,1.13,0,.12.09.21.21.21h.89c.12,0,.21-.09.21-.21-.04-.26.19-1.11-.54-1.45-1.08-.51-2.22-.51-3.3-.02Z"/>
        <g>
          <rect class="cls-13" x="181.4" y="183.95" width="3.09" height="2.45" rx=".54" ry=".54"/>
          <path class="cls-13" d="M185.42,184.3l-.93.48v.74l.92.52c.07.04.15.06.23.06h.2c.07,0,.13-.06.13-.13v-1.59c0-.07-.06-.13-.13-.13h-.21c-.07,0-.15.02-.21.05Z"/>
        </g>
      </g>
    </g>
    <g>
      <g>
        <path class="cls-8" d="M95.38,53.97c0,15.58,10.6,28.7,24.98,32.52.11.02.22.06.33.1,1.89.48,3.82.8,5.82.94.84.07,1.69.11,2.54.11,7.43,0,14.31-2.42,19.88-6.51l-.15.15,11.4,6.18c1.49.8,3.12-.83,2.32-2.32l-6.18-11.4-.12.12c4.09-5.57,6.51-12.45,6.51-19.88,0-11.64-5.91-21.9-14.88-27.94-5.36-3.62-11.83-5.73-18.79-5.73-.57,0-1.13.01-1.69.05-.16,0-.31.01-.46.03-.42.02-.83.05-1.23.1-.35.02-.68.07-1.01.12-.31.04-.6.07-.91.12-.69.1-1.37.23-2.05.39-.38.07-.76.17-1.15.27-.49.12-.97.26-1.45.41-.04.01-.06.03-.1.04-.42.14-.84.27-1.26.42-.15.05-.31.11-.46.17-.46.16-.9.35-1.34.53-.02.01-.06.02-.1.04-.47.21-.94.42-1.39.64-.46.21-.9.44-1.34.68-.07.04-.15.09-.23.14s-.16.09-.25.13c-.36.19-.7.39-1.04.6-.47.27-.92.57-1.37.88-.04.03-.07.05-.11.07-.38.26-.75.52-1.12.8-.01.01-.04.03-.05.04-.17.12-.35.26-.52.39-.27.2-.53.41-.79.63t-.02.01c-.2.17-.39.35-.59.51-.06.06-.12.11-.18.17-.01,0-.02.01-.04.03-.12.11-.23.21-.36.32t-.02.03s-.02.01-.02.02c-.39.35-.78.72-1.15,1.08-.38.38-.75.76-1.11,1.17-.32.35-.62.69-.91,1.05-.32.38-.63.78-.92,1.16-.21.27-.41.55-.6.83,0,0-.01.03-.02.03-3.96,5.51-6.29,12.27-6.29,19.58Z"/>
        <path class="cls-27" d="M120.69,86.58c2.01.57,4.09.97,5.82.94-2-.14-3.93-.46-5.82-.94Z"/>
      </g>
      <g>
        <path class="cls-6" d="M144.67,57.82c1.18,0,2.12-.36,2.83-1.09.71-.73,1.06-1.66,1.06-2.8,0-1.11-.35-2.01-1.06-2.72-.71-.71-1.65-1.06-2.83-1.06-1.21,0-2.15.36-2.83,1.06-.67.71-1.01,1.62-1.01,2.72s.34,2.08,1.01,2.8,1.62,1.09,2.83,1.09Z"/>
        <path class="cls-6" d="M129.02,57.82c1.18,0,2.12-.36,2.83-1.09.71-.73,1.06-1.66,1.06-2.8,0-1.11-.35-2.01-1.06-2.72s-1.65-1.06-2.83-1.06c-1.21,0-2.15.36-2.83,1.06-.67.71-1.01,1.62-1.01,2.72s.34,2.08,1.01,2.8,1.62,1.09,2.83,1.09Z"/>
        <path class="cls-6" d="M113.38,57.82c1.18,0,2.12-.36,2.83-1.09.71-.73,1.06-1.66,1.06-2.8,0-1.11-.35-2.01-1.06-2.72s-1.65-1.06-2.83-1.06c-1.21,0-2.15.36-2.83,1.06-.67.71-1.01,1.62-1.01,2.72,0,1.14.34,2.08,1.01,2.8.67.73,1.62,1.09,2.83,1.09Z"/>
      </g>
      <path class="cls-27" d="M120.69,86.58c2.01.57,4.09.97,5.82.94-2-.14-3.93-.46-5.82-.94Z"/>
    </g>
    <rect class="cls-8" x="239.97" y="24.21" width="106.13" height="2.59"/>
    <g>
      <polygon class="cls-16" points="308.5 346.11 247.13 294.29 139.71 300.33 186.38 346.11 308.5 346.11"/>
      <g>
        <polygon class="cls-8" points="325.79 346.11 262.21 286.78 150.51 296.08 187.96 346.11 325.79 346.11"/>
        <path class="cls-17" d="M187.74,346.11h.43l-37.34-49.89,111.32-9.27,63.38,59.16h.5l-63.71-59.46s-.08-.05-.13-.05l-111.7,9.3c-.06,0-.12.04-.14.1-.03.06-.02.12.02.17l37.37,49.93Z"/>
      </g>
      <path class="cls-24" d="M190.62,309.49l-2.01-2.78c-.18-.26-.02-.61.29-.65l54.9-5.85c.13-.01.26.04.35.14l2.25,2.56c.22.25.07.64-.26.68l-55.15,6.08c-.15.02-.29-.05-.38-.17Z"/>
      <g>
        <path class="cls-24" d="M279.76,324.81l-.13-.96-1.18-1.11c-.09-.08-.21-.12-.34-.11l-76.85,10.61c-.31.04-.46.4-.27.65l1.07,1.43c.09.12.24.18.38.16l77.32-10.67Z"/>
        <path class="cls-24" d="M269.52,314.69l-.05-.38-1.71-1.6c-.11-.1-.25-.15-.4-.13l-74.02,9.89c-.37.05-.54.47-.32.77l.97,1.3c.1.14.28.21.45.19l75.08-10.03Z"/>
        <path class="cls-24" d="M188.92,317.76l1.07,1.44c.09.12.23.18.38.16l73.67-9.43-.1-.82-1.33-1.25c-.09-.08-.21-.12-.33-.11l-73.08,9.35c-.31.04-.46.4-.28.65Z"/>
        <path class="cls-24" d="M275,319.93l-.07-.49-1.63-1.53c-.09-.08-.21-.12-.33-.11l-75.72,10.07c-.31.04-.46.4-.27.65l1.07,1.43c.09.12.24.18.38.16l76.57-10.19Z"/>
      </g>
      <g>
        <path class="cls-17" d="M206.11,298.11c-.13,0-.26-.09-.29-.23-.04-.16.06-.32.22-.36l2.44-.6c.16-.04.32.06.36.22.04.16-.06.32-.22.36l-2.44.6s-.05,0-.07,0Z"/>
        <path class="cls-22" d="M219.34,314.33s.09,3.68,3.58,4.81c2.27.74,18.85-2.64,18.85-2.64,0,0,6.16,19.2,8.89,29.61h36.43c-.61-.71-1.03-1.26-1.21-1.62-1.89-3.77-5.94-36.76-5.94-39.78s-2.92-6.32-2.92-6.32c0,0-1.79-5.37-3.02-7.73-1.42-2.72-23-11.31-26.87-12.91-3.59-1.49-29.69,5.56-30.26,8.3-.29,1.4,4.33,7.01,8.86,8.2,0,0-9.14,5.56-9.52,7.16-.38,1.6,3.25,4.61,5.94,4.71,0,0-6.22,1.98-6.32,3.11-.09,1.13,1.72,4.85,3.49,5.09Z"/>
        <path class="cls-11" d="M291.01,275.51l-80.24,18.8-3.52,2.92.15.57,4.39.87,80.24-18.8c.69-1.47.17-3.59-1.02-4.35Z"/>
        <g>
          <path class="cls-17" d="M251.56,293.34s-.11-.05-.16-.08c-1.51-.71-4.38-2.07-5.59-2.58h-.02c-.29-.13-.49-.19-.54-.19-.1,0-.18.08-.18.18,0,.08.05.15.13.16.02.02.03.02.05.02.32.06,3.87,1.73,6.08,2.79.02.02.05.02.06.03.03,0,.06.02.08.02.06,0,.13-.05.16-.11.05-.08,0-.19-.08-.23Z"/>
          <path class="cls-21" d="M251.48,294.04h-.09l-.15-.06c-2.67-1.27-5.75-2.7-6.07-2.78-.23-.01-.46-.25-.46-.54,0-.3.25-.55.55-.55.07,0,.17,0,1,.36h.56l-.26.13c.9.39,2.45,1.11,5.15,2.39.27.13.39.46.26.73-.09.19-.28.31-.5.31Z"/>
        </g>
        <g>
          <path class="cls-17" d="M219.58,314.14c-.07,0-.14-.05-.17-.12-.03-.09.02-.19.11-.23l15.41-5.48c.09-.03.2.02.23.11s-.02.19-.11.23l-15.41,5.48s-.04.01-.06.01Z"/>
          <path class="cls-21" d="M235.5,308.3c-.05-.15-.15-.24-.28-.31-.13-.06-.29-.08-.42-.03l-4.23,1.51-.39.15h-.02l-.19.06-.19.06-.41.15-9.09,3.26h-.02l-.88.31c-.28.1-.42.41-.32.7.02.05.05.1.06.13.06.08.13.13.23.16.06.05.15.06.23.06l5.64-1.99.03-.02,5.07-1.78.41-.15.16-.06.19-.06.39-.13,3.7-1.31c.28-.1.44-.41.32-.7Z"/>
        </g>
        <g>
          <path class="cls-17" d="M222.06,306.41c-.07,0-.14-.05-.17-.12-.03-.09.02-.19.11-.23l21.41-7.55s.08-.01.11,0c3.02.97,8.48,2.71,10.04,3.18-2.46-4.39-2.63-8.05-.53-11.49.05-.08.16-.11.25-.06.08.05.11.16.06.25-2.08,3.41-1.84,7.07.76,11.51.04.06.03.14,0,.19-.04.06-.11.09-.18.07-.46-.09-9.53-3-10.43-3.29l-21.35,7.53s-.04.01-.06.01Z"/>
          <path class="cls-21" d="M222.06,306.78c-.23,0-.44-.15-.52-.37-.05-.13-.04-.28.02-.41.06-.13.17-.23.31-.28l21.41-7.55c.11-.04.23-.04.35,0,2.39.77,6.95,2.22,9.17,2.91-2.12-4.17-2.14-7.71-.1-11.07.16-.26.49-.34.75-.18.26.16.34.49.19.75-2,3.29-1.76,6.82.76,11.13.11.19.1.42-.03.6-.12.17-.34.26-.55.22-.46-.09-8.44-2.65-10.35-3.26l-21.42,7.52Z"/>
        </g>
        <path class="cls-22" d="M223.48,304.81c3.62,3.88,7.08,3.85,9.14,8.2,2.15,4.53,7.54,24.51,12.82,30.16.87.93,1.79,1.92,2.73,2.94h9.64l-1.15-46.58c-2.45,3.02-7.16,5.18-9.99,5.28-2.83.09-13.1-7.07-13.1-7.07,0,0-2.04-3.79-4.15-6.03-3.11-3.3-7.35-2.92-7.35-2.92,0,0-5.15.44-3.86,3.3,2.55,5.66,3.17,10.46,5.28,12.73Z"/>
        <g>
          <path class="cls-17" d="M234.54,318.26c-.07,0-.14-.05-.17-.12-.69-1.99-1.39-3.98-1.9-5.05-1.18-2.48-2.81-3.5-4.69-4.69-1.35-.85-2.89-1.82-4.42-3.47-1.26-1.35-1.99-3.55-2.9-6.33-.08-.24-.16-.48-.24-.72-.03-.09.02-.19.11-.23.09-.03.19.02.23.11.08.25.16.49.24.72.9,2.74,1.62,4.9,2.83,6.19,1.5,1.61,2.95,2.53,4.35,3.41,1.93,1.22,3.6,2.27,4.82,4.84.52,1.09,1.23,3.09,1.92,5.09.03.09-.02.19-.11.23-.02,0-.04,0-.06,0Z"/>
          <path class="cls-21" d="M235.06,317.89s-.03-.08-.05-.11c-.1-.28-.19-.57-.29-.84-.39-1.13-.79-2.24-1.13-3.11-.16-.41-.32-.76-.45-1.05-.21-.44-.44-.84-.66-1.2-.31-.49-.63-.89-.99-1.26-.08-.1-.18-.19-.28-.29-.1-.1-.19-.18-.29-.28-.11-.1-.23-.19-.34-.28-.75-.63-1.54-1.15-2.42-1.69-.89-.57-1.8-1.13-2.74-1.91-.06-.05-.15-.11-.23-.19-.1-.08-.19-.16-.29-.24l-.29-.29c-.1-.08-.21-.18-.29-.29-.15-.13-.29-.28-.42-.42-.49-.5-.89-1.17-1.25-1.96-.54-1.12-.99-2.51-1.51-4.08l-.23-.73c-.03-.06-.06-.13-.13-.19-.02-.03-.05-.06-.1-.08l-.05-.05s-.1-.03-.15-.03c-.1-.03-.19-.02-.28.02-.15.03-.26.15-.32.28-.06.13-.08.28-.03.41l.03.1.21.63c.49,1.46.92,2.76,1.39,3.87.45,1.04.96,1.91,1.59,2.59.02.02.05.05.06.06.1.11.19.21.29.31.11.1.19.19.29.28.06.08.13.15.19.19.03.03.06.05.08.06,1.26,1.15,2.48,1.91,3.58,2.61.63.41,1.23.78,1.78,1.18.11.1.23.19.34.28.11.1.23.18.32.28.1.08.19.18.29.28.32.31.62.63.89,1.02.32.44.63.92.91,1.51.1.21.21.45.31.73.36.84.78,1.95,1.18,3.11.1.29.21.58.31.88.03.1.06.19.1.29.06.23.28.37.52.37l.18-.03c.13-.03.24-.15.31-.28.06-.13.08-.28.03-.42Z"/>
        </g>
        <g>
          <path class="cls-17" d="M246.62,304.99c-2.93,0-12.73-6.81-13.15-7.1-.02-.02-.04-.04-.06-.06-.02-.04-2.05-3.8-4.12-6-3.01-3.19-7.16-2.87-7.21-2.87-.02,0-1.52.14-2.66.7-.09.04-.2,0-.24-.08-.04-.09,0-.2.08-.24,1.2-.59,2.72-.73,2.79-.74.04,0,4.36-.35,7.5,2.98,1.99,2.11,3.93,5.63,4.15,6.03.65.45,10.18,7.01,12.91,7.01.02,0,.04,0,.05,0,2.79-.09,7.42-2.21,9.86-5.21.06-.08.17-.09.25-.03.08.06.09.17.03.25-2.5,3.08-7.25,5.25-10.12,5.34-.02,0-.04,0-.06,0Z"/>
          <path class="cls-21" d="M257.02,299.11c-.11-.1-.28-.15-.41-.13-.15.02-.29.1-.37.21-.44.53-.96,1.05-1.51,1.52-.19.18-.41.34-.62.49-.08.08-.19.15-.29.21-.1.08-.21.16-.31.23-.02.02-.03.02-.03.03-.13.08-.24.16-.37.26h-.02c-.13.08-.28.16-.41.24-2.11,1.25-4.41,2.03-6.08,2.09-.44,0-1.09-.19-1.88-.52h-.02c-1.51-.65-3.52-1.78-5.51-3-.02,0-.05-.02-.06-.03-.11-.06-.21-.13-.32-.21-.13-.06-.26-.15-.39-.24-.13-.06-.28-.15-.41-.24-1.52-.96-2.95-1.9-4.04-2.66-.16-.31-.66-1.18-1.35-2.25-.23-.37-.49-.76-.76-1.17-.63-.91-1.35-1.85-2.06-2.61-.42-.45-.88-.84-1.33-1.17-.18-.15-.36-.26-.52-.36-.08-.06-.16-.11-.24-.16-.1-.05-.18-.1-.26-.15-2.58-1.41-5.09-1.3-5.46-1.26-.28.03-1.72.19-2.9.78-.13.06-.24.18-.28.31-.02.05-.02.1-.02.15-.03.1-.02.19.03.28,0,.02.02.03.02.03.02.02.03.02.03.02.05.11.15.18.28.23.05.02.1.03.16.03h.02c.08,0,.16-.02.24-.06.36-.16.75-.29,1.1-.39h.02c.76-.19,1.39-.26,1.41-.26.02-.02,1.28-.1,2.92.37h.02c.15.03.26.08.41.13h.02c.13.03.28.08.41.13h.02c.36.15.73.32,1.1.53h.02c.7.39,1.36.89,2.01,1.57.58.63,1.17,1.38,1.7,2.14.24.32.45.65.66.97.99,1.49,1.69,2.79,1.7,2.82l.08.13.08.05c.16.11,1.57,1.1,3.45,2.3.13.08.26.16.39.24.08.06.16.11.24.16h.02s.06.05.11.1c.13.06.26.15.39.23h.02c1.52.96,3.23,1.96,4.78,2.76,1.62.81,3.06,1.38,3.96,1.38h.08c2.04-.06,5.01-1.15,7.49-2.89.49-.32.94-.68,1.38-1.05.41-.32.78-.68,1.12-1.07.15-.15.28-.31.41-.47.1-.11.15-.26.13-.41-.02-.15-.1-.28-.19-.36Z"/>
        </g>
        <path class="cls-18" d="M222.75,290.56c1.89,1.3,2.59,3.94,2.34,3.93-1.47.36-4.94,2.92-4.44,3.13,0,0-2.5-5.04-2.46-6.62.03-1.07,1.53-2.52,4.56-.44Z"/>
        <g>
          <path class="cls-17" d="M243.47,298.86c-.07,0-.14-.04-.17-.12-.39-1.02-.4-2.38-.04-4.06.26-1.24.64-2.17.65-2.21.04-.09.14-.14.23-.1.09.04.14.14.1.23-.01.04-1.47,3.73-.61,6.01.04.09-.01.2-.1.23-.02,0-.04.01-.06.01Z"/>
          <path class="cls-21" d="M244.57,292.33c-.05-.15-.16-.24-.29-.29-.13-.06-.29-.06-.42,0-.13.05-.24.16-.29.29,0,.02-.37.94-.65,2.2,0,.02-.02.05-.02.06-.31,1.47-.36,2.74-.11,3.74l.1.34c.02.06.05.13.06.19.02.05.05.1.08.15.11.13.26.19.44.19l.19-.03c.1-.03.19-.1.23-.19.05-.03.06-.06.08-.1.03-.06.05-.15.05-.23,0-.06-.02-.13-.05-.19-.03-.08-.05-.16-.08-.24-.34-1.15-.11-2.63.18-3.76.23-.96.49-1.65.52-1.72.05-.15.05-.29-.02-.42Z"/>
        </g>
        <g>
          <path class="cls-17" d="M243.9,286.95c-.08,0-.16-.06-.17-.14-.72-3.18.9-6.19.97-6.31.05-.09.16-.12.24-.07.09.05.12.16.07.24-.02.03-1.62,3.01-.93,6.06.02.1-.04.19-.13.21-.01,0-.03,0-.04,0Z"/>
          <path class="cls-21" d="M245.38,280.44c-.05-.15-.15-.26-.28-.34-.13-.06-.28-.08-.42-.03-.13.03-.24.13-.32.26-.18.32-1.67,3.21-1.04,6.35,0,.06.02.15.03.21.06.26.28.44.53.44l.13-.02c.13-.03.26-.11.34-.24.08-.13.1-.28.06-.42-.02-.06-.03-.15-.03-.21-.53-2.77.88-5.48.94-5.58.06-.13.08-.28.05-.42Z"/>
        </g>
        <g>
          <path class="cls-17" d="M232.65,289.24c-.06,0-.12-.03-.15-.09-.56-.96-.92-2.08-1.06-3.34-.01-.1.06-.19.16-.2.1-.01.19.06.2.16.14,1.21.48,2.29,1.01,3.2.05.09.02.19-.06.24-.03.02-.06.02-.09.02Z"/>
          <path class="cls-21" d="M232.65,289.61c-.19,0-.37-.1-.47-.27-.59-1-.96-2.18-1.11-3.49-.03-.3.18-.57.48-.61.32-.04.57.19.61.48.13,1.16.45,2.19.96,3.06.07.13.09.27.06.42-.04.14-.13.26-.26.34-.08.05-.18.07-.28.07Z"/>
        </g>
        <g>
          <path class="cls-17" d="M211.66,298.37s-.09-.03-.12-.07c-1-1.62-.79-3.53-.78-3.61,0-.06.08-.11.15-.1.08,0,.13.06.13.13,0,.02-.21,1.92.75,3.48.03.06,0,.12-.06.15-.02,0-.05.01-.07,0Z"/>
          <path class="cls-16" d="M212.07,298.04c-.34-.57-.54-1.2-.63-1.73-.15-.86-.08-1.52-.08-1.54v-.21l-.08-.11c-.08-.1-.18-.16-.31-.18h-.03c-.24-.02-.44.11-.5.32-.02.02-.02.05-.02.06,0,.06-.08.76.08,1.7.1.65.31,1.41.75,2.12.03.05.06.08.1.1.08.08.18.11.29.13l.13-.02.08-.02s.05-.02.06-.05c.1-.03.18-.11.21-.23l.03-.23-.08-.13Z"/>
        </g>
        <g>
          <path class="cls-17" d="M291.56,279.83s-.08-.02-.11-.05c-1.39-1.76-1-3.95-.98-4.04.01-.08.09-.13.17-.11.08.01.13.09.11.17,0,.02-.39,2.16.92,3.81.05.06.04.15-.02.2-.03.02-.06.03-.09.03Z"/>
          <path class="cls-16" d="M291.97,279.37c-1.18-1.49-.88-3.44-.86-3.52.02-.11,0-.23-.06-.31,0-.02-.03-.03-.03-.03-.03-.13-.16-.21-.31-.24-.28-.05-.55.13-.6.41,0,0,0,.02-.02.05-.05.37-.34,2.51,1.07,4.3.02.02.03.03.05.03.08.1.21.15.36.15.11,0,.23-.03.32-.1.06-.06.13-.15.15-.24.06-.16.03-.34-.06-.49Z"/>
        </g>
      </g>
      <g>
        <path class="cls-22" d="M97.42,346.11c1.38-2.4,2.65-4.63,3.98-6.14,1.29-1.46,2.93-2.24,4.19-3.73,1.19-1.4,2.13-3.51,4.63-5.77,1.75-1.57,3.33-3.71,3.73-4.8.55-1.49-2.79-3.53-8.82-1.42-4.54,1.59-5.9,2.49-9.47,7.49-.12.04-2.31,3.9-3.93,4.96-2.58,1.68-5.65,2.13-5.78,1.23-.26-1.8,8.02-9.59,9.18-10.62,2.29-2.03,7.92-6.31,10.6-7.8,7.99-4.42,11.85-3.5,17.34-7.08,2.18-1.42,4.65-5.63,3.56-7.33-.28-.43-6.07.42-7.54,1.03,2.91-1.37,6.07-2.66,6.62-6.11.09-.54-.26-1.06-.8-1.19-1.55-.37-4.31-.1-6.98.32.31-.85.48-1.63.4-2.21-9.1-1.85-14.57-1.02-22.35,1.07,2.28-1,4.22-2.57,2.65-3.35-2.9-1.45-9.45.47-10.6.81-8.07,2.37-12.99,4.83-19.31,7.42-2.06.85-5.71,1.33-7.77,2.34-9.4,4.61-35.52,33.66-41.26,40.88h77.72Z"/>
        <g>
          <path class="cls-17" d="M85.14,321.34s-.09-.02-.13-.05c-.07-.07-.07-.18,0-.25,1.43-1.41,10.16-7.54,13.34-9.37,4.35-2.5,20.04-5.58,20.71-5.71.1-.02.19.04.21.14.02.1-.04.19-.14.21-.16.03-16.3,3.2-20.6,5.67-3.17,1.82-11.85,7.91-13.27,9.32-.03.03-.08.05-.13.05Z"/>
          <path class="cls-21" d="M119.6,305.95s0-.03-.02-.05c-.03-.1-.1-.18-.19-.23-.11-.08-.26-.11-.41-.08-.16.03-16.35,3.18-20.81,5.75-3.19,1.83-11.98,7.99-13.42,9.42-.21.23-.21.57,0,.78.1.11.24.16.39.16s.28-.05.37-.15c1.41-1.39,10.05-7.46,13.19-9.27,3.87-2.22,17.81-5.09,20.15-5.54.21-.05.32-.08.34-.08.15-.02.28-.1.36-.23.05-.06.08-.15.08-.23.02-.06.02-.13,0-.18,0-.03-.02-.06-.03-.08Z"/>
        </g>
        <g>
          <path class="cls-17" d="M77,315.19c-.07,0-.13-.04-.16-.1-.04-.09,0-.2.08-.24,3.67-1.8,13.28-7.58,16.13-9.31,5.24-3.17,23.97-6.57,24.76-6.72.1-.02.19.05.21.14.02.1-.05.19-.14.21-.19.04-19.46,3.54-24.64,6.67-2.86,1.73-12.48,7.52-16.16,9.33-.03.01-.05.02-.08.02Z"/>
          <path class="cls-21" d="M118.16,298.56l-.02-.02c-.13-.08-.24-.11-.39-.08-.23.05-1.96.36-4.42.88h-.03c-6.09,1.23-16.68,3.61-20.44,5.9-2.85,1.72-12.43,7.49-16.1,9.29-.15.06-.24.18-.29.31-.05.15-.03.29.03.42.1.19.28.31.49.31l.16-.02.08-.03c3.7-1.82,13.32-7.62,16.19-9.35,4.38-2.64,18.95-5.56,23.29-6.39.76-.15,1.2-.23,1.23-.23.19-.05.36-.19.41-.37.02-.03.02-.06.02-.08.03-.06.03-.13.02-.19-.03-.13-.11-.26-.23-.34Z"/>
        </g>
        <g>
          <path class="cls-17" d="M70.03,309.18c-.07,0-.14-.04-.17-.11-.04-.09,0-.2.1-.23.09-.04,9.12-3.68,11.79-5.57,4.39-3.13,13.74-5.05,13.83-5.07.1-.02.19.04.21.14.02.1-.04.19-.14.21-.09.02-9.36,1.93-13.69,5.01-2.7,1.92-11.49,5.46-11.86,5.61-.02,0-.04.01-.07.01Z"/>
          <path class="cls-21" d="M70.03,309.55c-.23,0-.42-.13-.51-.35-.05-.13-.05-.28,0-.42.06-.13.16-.24.3-.29.09-.04,9.12-3.68,11.71-5.53,4.42-3.14,13.58-5.05,13.97-5.13.29-.06.59.13.65.43.06.3-.13.59-.42.65-.1.02-9.32,1.94-13.56,4.95-2.75,1.96-11.56,5.51-11.94,5.66l-.2.04Z"/>
        </g>
        <path class="cls-18" d="M113.97,325.55c.21-.41-.86-1.34-2.35-1.32-1.47.02-4.32,1.43-4.49,3.69-.05.69,2.96,2.46,2.99,2.42,1.69-1.97,3.21-3.55,3.85-4.79Z"/>
        <path class="cls-18" d="M120.75,305.67c-.67.28-1.31.59-1.9.95-.05.96,1.49,2.1,2.35,2.23,1.74.26,4.49-1.12,5.62-2.16.14-.59.1-1.14-.19-1.58-.21-.33-3.62.09-5.89.57Z"/>
        <path class="cls-18" d="M117.7,301.44c.8,1.14,2.21,1.67,3.56,1.35,1.51-.36,3.21-.76,4.11-1.99.09-.11.17-.22.25-.32.04-.15.07-.3.09-.46.09-.54-.26-1.06-.8-1.19-1.34-.32-3.59-.16-5.9.16-.5.13-1.02.28-1.57.44-.55.14-.98.36-.7.7.26.32.62.81.97,1.31Z"/>
        <path class="cls-18" d="M112.15,299.16c.64.39,3.7,0,3.7,0,.89-.11,1.62-.23,2.2-.36.22-.68.34-1.31.29-1.8-.64-.18-1.47-.35-2.46-.5,0,0-4.36-.59-4.28.57.08,1.17-.1,1.69.55,2.08Z"/>
        <path class="cls-18" d="M95.14,297.35c2.14-.42,3.45-1.07,3.45-1.07.07-.02.13-.04.2-.06.55-.6.62-1.17-.14-1.56-.3-.15-.64-.26-1.01-.35-.2,0-.42,0-.65.02,0,0-5.35-.14-4.44,1.21.91,1.35.45,2.22,2.59,1.8Z"/>
      </g>
    </g>
    <rect class="cls-8" x="0" y="270.41" width="346.11" height="75.7"/>
    <rect class="cls-6" x="0" y="288.55" width="346.11" height="57.56"/>
    <g>
      <path class="cls-19" d="M27.29,327.62c-.65,0-1.15-.18-1.5-.54-.35-.36-.53-.88-.53-1.57v-14.17c0-1.39.69-2.08,2.08-2.08h8.79c1.04,0,1.57.51,1.57,1.54s-.52,1.57-1.57,1.57h-6.89v4.42h6.32c1.06,0,1.59.51,1.59,1.54s-.53,1.57-1.59,1.57h-6.32v5.6c0,1.41-.65,2.11-1.95,2.11Z"/>
      <path class="cls-19" d="M45.21,327.67c-1.35,0-2.53-.27-3.54-.81-1-.54-1.78-1.3-2.33-2.29-.55-.99-.82-2.16-.82-3.51s.27-2.5.82-3.48c.55-.99,1.32-1.74,2.33-2.27s2.18-.8,3.54-.8,2.53.27,3.53.8c1,.53,1.78,1.29,2.34,2.27.56.99.83,2.15.83,3.48s-.28,2.52-.83,3.51c-.56.99-1.34,1.75-2.34,2.29-1,.54-2.18.81-3.53.81ZM45.21,324.77c.82,0,1.5-.3,2.02-.9.52-.6.78-1.53.78-2.8s-.26-2.17-.78-2.76-1.2-.89-2.02-.89-1.49.3-2.01.89c-.51.59-.77,1.51-.77,2.76s.26,2.2.77,2.8c.51.6,1.18.9,2.01.9Z"/>
      <path class="cls-19" d="M56.29,327.62c-1.34,0-2-.66-2-1.98v-9.13c0-1.3.63-1.95,1.9-1.95s1.9.65,1.9,1.95v.46c.62-1.53,1.89-2.35,3.83-2.47.43-.03.76.07.99.32.23.25.36.66.37,1.22.03.53-.07.95-.32,1.26-.25.31-.67.5-1.25.57l-.59.05c-1.92.19-2.88,1.17-2.88,2.93v4.78c0,1.32-.65,1.98-1.95,1.98Z"/>
      <path class="cls-19" d="M66.88,327.62c-1.3,0-1.95-.66-1.95-1.98v-9.13c0-1.3.63-1.95,1.9-1.95s1.9.65,1.9,1.95v.08c.38-.65.89-1.16,1.55-1.53.66-.37,1.43-.55,2.3-.55s1.65.2,2.28.59c.63.39,1.1.99,1.43,1.8.39-.75.96-1.34,1.71-1.76.75-.42,1.57-.63,2.48-.63,1.44,0,2.51.43,3.21,1.3.7.87,1.05,2.2,1.05,4v5.84c0,.63-.17,1.12-.5,1.47s-.81.51-1.43.51c-1.3,0-1.95-.66-1.95-1.98v-5.71c0-.84-.13-1.45-.4-1.84s-.72-.58-1.35-.58c-.74,0-1.31.26-1.72.77s-.62,1.24-.62,2.19v5.17c0,1.32-.64,1.98-1.93,1.98-.62,0-1.1-.17-1.44-.51-.34-.34-.51-.83-.51-1.47v-5.71c0-.84-.14-1.45-.41-1.84s-.72-.58-1.34-.58c-.74,0-1.31.26-1.72.77-.41.51-.62,1.24-.62,2.19v5.17c0,1.32-.64,1.98-1.93,1.98Z"/>
      <path class="cls-19" d="M92,327.67c-.94,0-1.77-.18-2.49-.54-.72-.36-1.29-.85-1.71-1.47-.42-.62-.63-1.31-.63-2.08,0-.91.24-1.64.72-2.19.48-.55,1.26-.94,2.34-1.17,1.08-.23,2.51-.35,4.29-.35h.92v-.44c0-.75-.17-1.29-.51-1.61-.34-.32-.93-.48-1.75-.48-.46,0-.97.06-1.52.17-.55.11-1.14.3-1.77.55-.48.21-.88.22-1.21.04-.33-.18-.54-.45-.64-.82-.1-.37-.07-.74.09-1.12.16-.38.48-.65.96-.82.81-.31,1.56-.53,2.28-.66.71-.13,1.37-.19,1.97-.19,1.95,0,3.41.44,4.37,1.32s1.44,2.25,1.44,4.1v5.71c0,1.32-.6,1.98-1.8,1.98s-1.83-.66-1.83-1.98v-.15c-.26.67-.69,1.2-1.3,1.59s-1.35.59-2.22.59ZM92.87,325.08c.72,0,1.33-.25,1.83-.75s.75-1.14.75-1.93v-.51h-.9c-1.32,0-2.25.12-2.8.35-.55.23-.82.63-.82,1.2,0,.48.17.87.5,1.18.33.31.82.46,1.45.46Z"/>
      <path class="cls-19" d="M108.25,327.67c-3.55,0-5.32-1.72-5.32-5.17v-4.83h-1.08c-1.01,0-1.52-.48-1.52-1.44s.51-1.47,1.52-1.47h1.08v-1.95c0-1.32.65-1.98,1.95-1.98s1.93.66,1.93,1.98v1.95h2.44c.99,0,1.49.49,1.49,1.47s-.5,1.44-1.49,1.44h-2.44v4.68c0,.72.17,1.26.5,1.62.33.36.87.54,1.61.54.26,0,.5-.03.72-.08.22-.05.43-.09.62-.1.24-.02.44.06.59.23s.23.52.23,1.05c0,.43-.07.79-.21,1.09-.14.3-.38.52-.72.66-.22.09-.53.16-.91.22-.39.06-.72.09-.99.09Z"/>
      <path class="cls-19" d="M114.44,327.62c-1.34,0-2-.66-2-1.98v-9.13c0-1.3.63-1.95,1.9-1.95s1.9.65,1.9,1.95v.46c.62-1.53,1.89-2.35,3.83-2.47.43-.03.76.07.99.32.23.25.36.66.37,1.22.03.53-.07.95-.32,1.26-.25.31-.67.5-1.25.57l-.59.05c-1.92.19-2.88,1.17-2.88,2.93v4.78c0,1.32-.65,1.98-1.95,1.98Z"/>
      <path class="cls-19" d="M124.98,312.45c-.72,0-1.27-.17-1.66-.5-.39-.33-.58-.81-.58-1.43s.19-1.12.58-1.45c.38-.33.94-.5,1.66-.5,1.47,0,2.21.65,2.21,1.95s-.74,1.93-2.21,1.93ZM124.98,327.6c-.63,0-1.12-.18-1.45-.55-.33-.37-.5-.89-.5-1.56v-8.79c0-1.42.65-2.13,1.95-2.13.62,0,1.09.18,1.43.55.33.37.5.9.5,1.58v8.79c0,.67-.16,1.19-.49,1.56-.33.37-.81.55-1.44.55Z"/>
      <path class="cls-19" d="M136.06,327.67c-1.37,0-2.57-.27-3.59-.81-1.02-.54-1.8-1.31-2.35-2.3-.55-.99-.82-2.17-.82-3.52s.27-2.52.82-3.5c.55-.98,1.33-1.73,2.35-2.25,1.02-.52,2.21-.78,3.59-.78.53,0,1.1.06,1.71.19s1.2.35,1.76.66c.43.21.69.49.8.86.1.37.08.73-.06,1.09-.15.36-.38.62-.69.78-.32.16-.69.13-1.12-.09-.69-.36-1.35-.54-2.01-.54-1.01,0-1.79.31-2.35.94-.56.63-.84,1.51-.84,2.66s.28,2.02.84,2.66c.56.64,1.34.96,2.35.96.31,0,.63-.04.98-.12.34-.08.68-.21,1.03-.4.43-.22.8-.25,1.12-.08.32.17.54.43.66.78s.13.72.03,1.09c-.1.38-.36.67-.77.87-.58.29-1.17.5-1.75.63-.58.13-1.14.19-1.67.19Z"/>
      <path class="cls-19" d="M148.5,327.67c-1.49,0-2.77-.27-3.84-.81-1.07-.54-1.89-1.3-2.47-2.29-.57-.99-.86-2.15-.86-3.48s.28-2.45.84-3.43c.56-.99,1.32-1.76,2.29-2.31.97-.56,2.09-.84,3.35-.84,1.83,0,3.29.58,4.37,1.74,1.08,1.16,1.62,2.72,1.62,4.69,0,.65-.4.98-1.21.98h-7.56c.14.99.5,1.72,1.09,2.17.59.45,1.41.68,2.46.68.41,0,.88-.05,1.4-.14.52-.09,1.02-.26,1.5-.5.5-.24.92-.29,1.26-.14.34.15.58.39.71.73.13.34.13.7,0,1.07-.13.37-.42.67-.86.91-.6.33-1.26.57-1.99.73s-1.43.24-2.09.24ZM147.96,317.08c-.82,0-1.49.25-1.99.75-.51.5-.82,1.19-.94,2.08h5.55c-.1-1.89-.98-2.83-2.62-2.83Z"/>
      <path class="cls-19" d="M165.19,332.25c-1.3,0-1.95-.66-1.95-1.98v-13.75c0-1.3.63-1.95,1.9-1.95s1.93.65,1.93,1.95v.08c.36-.63.89-1.14,1.59-1.52.7-.38,1.49-.57,2.37-.57,1.1,0,2.06.27,2.89.8.83.53,1.48,1.29,1.94,2.26.46.98.69,2.14.69,3.5s-.23,2.52-.69,3.51c-.46.99-1.11,1.75-1.94,2.29-.83.54-1.8.81-2.89.81-.84,0-1.61-.18-2.3-.54-.69-.36-1.23-.84-1.61-1.44v4.58c0,1.32-.64,1.98-1.93,1.98ZM169.87,324.77c.82,0,1.49-.3,2-.9.51-.6.77-1.53.77-2.8s-.26-2.17-.77-2.76c-.51-.59-1.18-.89-2-.89s-1.52.3-2.03.89c-.51.59-.77,1.51-.77,2.76s.26,2.2.77,2.8c.51.6,1.19.9,2.03.9Z"/>
      <path class="cls-19" d="M180.92,327.62c-1.34,0-2-.66-2-1.98v-9.13c0-1.3.63-1.95,1.9-1.95s1.9.65,1.9,1.95v.46c.62-1.53,1.89-2.35,3.83-2.47.43-.03.76.07.99.32.23.25.36.66.37,1.22.03.53-.07.95-.32,1.26-.25.31-.67.5-1.25.57l-.59.05c-1.92.19-2.88,1.17-2.88,2.93v4.78c0,1.32-.65,1.98-1.95,1.98Z"/>
      <path class="cls-19" d="M195.83,327.67c-1.49,0-2.77-.27-3.84-.81-1.07-.54-1.89-1.3-2.47-2.29-.57-.99-.86-2.15-.86-3.48s.28-2.45.84-3.43c.56-.99,1.32-1.76,2.29-2.31.97-.56,2.09-.84,3.35-.84,1.83,0,3.29.58,4.37,1.74,1.08,1.16,1.62,2.72,1.62,4.69,0,.65-.4.98-1.21.98h-7.56c.14.99.5,1.72,1.09,2.17.59.45,1.41.68,2.46.68.41,0,.88-.05,1.4-.14.52-.09,1.02-.26,1.5-.5.5-.24.92-.29,1.26-.14.34.15.58.39.71.73.13.34.13.7,0,1.07-.13.37-.42.67-.86.91-.6.33-1.26.57-1.99.73s-1.43.24-2.09.24ZM195.29,317.08c-.82,0-1.49.25-1.99.75-.51.5-.82,1.19-.94,2.08h5.55c-.1-1.89-.98-2.83-2.62-2.83ZM196.58,312.94c-.21.27-.45.43-.73.48-.28.04-.55,0-.81-.15-.26-.15-.44-.35-.55-.62-.11-.27-.09-.55.06-.86l1.83-3.62c.19-.38.43-.62.72-.72.29-.1.59-.11.91-.03.32.09.59.24.82.46s.37.48.42.78c.05.3-.04.61-.28.94l-2.39,3.34Z"/>
      <path class="cls-19" d="M208.22,327.67c-.75,0-1.53-.07-2.33-.21-.8-.14-1.52-.37-2.17-.69-.43-.22-.71-.51-.83-.85-.13-.34-.13-.68-.01-1s.33-.57.64-.73c.31-.16.67-.16,1.08.01.7.29,1.35.5,1.94.62.59.12,1.16.18,1.71.18.72,0,1.25-.12,1.59-.35s.51-.54.51-.91c0-.6-.44-.98-1.31-1.13l-2.7-.49c-1.08-.19-1.9-.57-2.47-1.16s-.85-1.35-.85-2.29c0-.86.24-1.59.72-2.21.48-.62,1.14-1.1,1.98-1.44.84-.34,1.81-.51,2.91-.51,1.51,0,2.84.29,4.01.87.39.19.64.45.73.8.09.34.07.68-.06,1-.14.33-.36.57-.67.73-.31.16-.68.15-1.11-.04-.57-.26-1.08-.44-1.54-.55-.46-.11-.9-.17-1.31-.17-.77,0-1.33.12-1.67.37-.34.25-.51.56-.51.94,0,.6.4.98,1.21,1.13l2.7.49c1.11.19,1.96.56,2.54,1.12.58.56.87,1.32.87,2.27,0,1.32-.51,2.35-1.54,3.08-1.03.74-2.38,1.11-4.06,1.11Z"/>
      <path class="cls-19" d="M222.59,327.67c-1.49,0-2.77-.27-3.84-.81-1.07-.54-1.89-1.3-2.47-2.29-.57-.99-.86-2.15-.86-3.48s.28-2.45.84-3.43c.56-.99,1.32-1.76,2.29-2.31.97-.56,2.09-.84,3.35-.84,1.83,0,3.29.58,4.37,1.74,1.08,1.16,1.62,2.72,1.62,4.69,0,.65-.4.98-1.21.98h-7.56c.14.99.5,1.72,1.09,2.17.59.45,1.41.68,2.46.68.41,0,.88-.05,1.4-.14.52-.09,1.02-.26,1.5-.5.5-.24.92-.29,1.26-.14.34.15.58.39.71.73.13.34.13.7,0,1.07-.13.37-.42.67-.86.91-.6.33-1.26.57-1.99.73s-1.43.24-2.09.24ZM222.05,317.08c-.82,0-1.49.25-1.99.75-.51.5-.82,1.19-.94,2.08h5.55c-.1-1.89-.98-2.83-2.62-2.83Z"/>
      <path class="cls-19" d="M232.11,327.62c-1.3,0-1.95-.66-1.95-1.98v-9.13c0-1.3.63-1.95,1.9-1.95s1.9.65,1.9,1.95v.1c.43-.69,1-1.21,1.72-1.57s1.53-.54,2.42-.54c1.49,0,2.61.43,3.34,1.3.74.87,1.1,2.2,1.1,4v5.84c0,1.32-.65,1.98-1.95,1.98-.62,0-1.09-.17-1.43-.51s-.5-.83-.5-1.47v-5.66c0-.87-.16-1.5-.49-1.89s-.81-.58-1.44-.58c-.82,0-1.48.26-1.97.77s-.73,1.2-.73,2.06v5.3c0,1.32-.64,1.98-1.93,1.98Z"/>
      <path class="cls-19" d="M251.64,327.67c-3.55,0-5.32-1.72-5.32-5.17v-4.83h-1.08c-1.01,0-1.52-.48-1.52-1.44s.51-1.47,1.52-1.47h1.08v-1.95c0-1.32.65-1.98,1.95-1.98s1.93.66,1.93,1.98v1.95h2.44c.99,0,1.49.49,1.49,1.47s-.5,1.44-1.49,1.44h-2.44v4.68c0,.72.17,1.26.5,1.62.33.36.87.54,1.61.54.26,0,.5-.03.72-.08.22-.05.43-.09.62-.1.24-.02.44.06.59.23s.23.52.23,1.05c0,.43-.07.79-.21,1.09-.14.3-.38.52-.72.66-.22.09-.53.16-.91.22-.39.06-.72.09-.99.09Z"/>
      <path class="cls-19" d="M260.1,327.67c-.94,0-1.77-.18-2.49-.54-.72-.36-1.29-.85-1.71-1.47-.42-.62-.63-1.31-.63-2.08,0-.91.24-1.64.72-2.19.48-.55,1.26-.94,2.34-1.17,1.08-.23,2.51-.35,4.29-.35h.92v-.44c0-.75-.17-1.29-.51-1.61-.34-.32-.93-.48-1.75-.48-.46,0-.97.06-1.52.17-.55.11-1.14.3-1.77.55-.48.21-.88.22-1.21.04-.33-.18-.54-.45-.64-.82-.1-.37-.07-.74.09-1.12.16-.38.48-.65.96-.82.81-.31,1.56-.53,2.28-.66.71-.13,1.37-.19,1.97-.19,1.95,0,3.41.44,4.37,1.32s1.44,2.25,1.44,4.1v5.71c0,1.32-.6,1.98-1.8,1.98s-1.83-.66-1.83-1.98v-.15c-.26.67-.69,1.2-1.3,1.59s-1.35.59-2.22.59ZM260.98,325.08c.72,0,1.33-.25,1.83-.75s.75-1.14.75-1.93v-.51h-.9c-1.32,0-2.25.12-2.8.35-.55.23-.82.63-.82,1.2,0,.48.17.87.5,1.18.33.31.82.46,1.45.46Z"/>
      <path class="cls-19" d="M276.35,327.67c-3.55,0-5.32-1.72-5.32-5.17v-4.83h-1.08c-1.01,0-1.52-.48-1.52-1.44s.51-1.47,1.52-1.47h1.08v-1.95c0-1.32.65-1.98,1.95-1.98s1.93.66,1.93,1.98v1.95h2.44c.99,0,1.49.49,1.49,1.47s-.5,1.44-1.49,1.44h-2.44v4.68c0,.72.17,1.26.5,1.62.33.36.87.54,1.61.54.26,0,.5-.03.72-.08.22-.05.43-.09.62-.1.24-.02.44.06.59.23s.23.52.23,1.05c0,.43-.07.79-.21,1.09-.14.3-.38.52-.72.66-.22.09-.53.16-.91.22-.39.06-.72.09-.99.09Z"/>
      <path class="cls-19" d="M282.54,327.62c-1.34,0-2-.66-2-1.98v-9.13c0-1.3.63-1.95,1.9-1.95s1.9.65,1.9,1.95v.46c.62-1.53,1.89-2.35,3.83-2.47.43-.03.76.07.99.32.23.25.36.66.37,1.22.03.53-.07.95-.32,1.26-.25.31-.67.5-1.25.57l-.59.05c-1.92.19-2.88,1.17-2.88,2.93v4.78c0,1.32-.65,1.98-1.95,1.98Z"/>
      <path class="cls-19" d="M293.08,312.45c-.72,0-1.27-.17-1.66-.5-.39-.33-.58-.81-.58-1.43s.19-1.12.58-1.45c.38-.33.94-.5,1.66-.5,1.47,0,2.21.65,2.21,1.95s-.74,1.93-2.21,1.93ZM293.08,327.6c-.63,0-1.12-.18-1.45-.55-.33-.37-.5-.89-.5-1.56v-8.79c0-1.42.65-2.13,1.95-2.13.62,0,1.09.18,1.43.55.33.37.5.9.5,1.58v8.79c0,.67-.16,1.19-.49,1.56-.33.37-.81.55-1.44.55Z"/>
      <path class="cls-19" d="M304.16,327.67c-1.37,0-2.57-.27-3.59-.81-1.02-.54-1.8-1.31-2.35-2.3-.55-.99-.82-2.17-.82-3.52s.27-2.52.82-3.5c.55-.98,1.33-1.73,2.35-2.25,1.02-.52,2.21-.78,3.59-.78.53,0,1.1.06,1.71.19s1.2.35,1.76.66c.43.21.69.49.8.86.1.37.08.73-.06,1.09-.15.36-.38.62-.69.78-.32.16-.69.13-1.12-.09-.69-.36-1.35-.54-2.01-.54-1.01,0-1.79.31-2.35.94-.56.63-.84,1.51-.84,2.66s.28,2.02.84,2.66c.56.64,1.34.96,2.35.96.31,0,.63-.04.98-.12.34-.08.68-.21,1.03-.4.43-.22.8-.25,1.12-.08.32.17.54.43.66.78s.13.72.03,1.09c-.1.38-.36.67-.77.87-.58.29-1.17.5-1.75.63-.58.13-1.14.19-1.67.19Z"/>
      <path class="cls-19" d="M316.61,327.67c-1.49,0-2.77-.27-3.84-.81-1.07-.54-1.89-1.3-2.47-2.29-.57-.99-.86-2.15-.86-3.48s.28-2.45.84-3.43c.56-.99,1.32-1.76,2.29-2.31.97-.56,2.09-.84,3.35-.84,1.83,0,3.29.58,4.37,1.74,1.08,1.16,1.62,2.72,1.62,4.69,0,.65-.4.98-1.21.98h-7.56c.14.99.5,1.72,1.09,2.17.59.45,1.41.68,2.46.68.41,0,.88-.05,1.4-.14.52-.09,1.02-.26,1.5-.5.5-.24.92-.29,1.26-.14.34.15.58.39.71.73.13.34.13.7,0,1.07-.13.37-.42.67-.86.91-.6.33-1.26.57-1.99.73s-1.43.24-2.09.24ZM316.07,317.08c-.82,0-1.49.25-1.99.75-.51.5-.82,1.19-.94,2.08h5.55c-.1-1.89-.98-2.83-2.62-2.83Z"/>
    </g>
  </g>
</svg>